<mxfile host="app.diagrams.net" agent="Mozilla/5.0 (Macintosh; Intel Mac OS X 10_15_7) AppleWebKit/537.36 (KHTML, like Gecko) Chrome/129.0.0.0 Safari/537.36" version="24.7.17">
  <diagram name="第 1 页" id="ciVVU5z0hrm5nFvQyxHC">
    <mxGraphModel dx="1026" dy="650" grid="0" gridSize="10" guides="1" tooltips="1" connect="1" arrows="1" fold="1" page="1" pageScale="1" pageWidth="827" pageHeight="1169" math="0" shadow="0">
      <root>
        <mxCell id="0" />
        <mxCell id="1" parent="0" />
        <mxCell id="_6upnzTkpWK8pY87iuGv-4" style="edgeStyle=orthogonalEdgeStyle;rounded=1;orthogonalLoop=1;jettySize=auto;html=1;exitX=1;exitY=0.5;exitDx=0;exitDy=0;fillColor=#dae8fc;strokeColor=#6c8ebf;curved=0;shape=flexArrow;entryX=0;entryY=0.5;entryDx=0;entryDy=0;" parent="1" source="_6upnzTkpWK8pY87iuGv-2" target="_6upnzTkpWK8pY87iuGv-3" edge="1">
          <mxGeometry relative="1" as="geometry">
            <mxPoint x="420" y="180" as="targetPoint" />
          </mxGeometry>
        </mxCell>
        <mxCell id="_6upnzTkpWK8pY87iuGv-2" value="" style="shape=image;verticalLabelPosition=bottom;labelBackgroundColor=default;verticalAlign=top;aspect=fixed;imageAspect=0;image=data:image/png,iVBORw0KGgoAAAANSUhEUgAAAvQAAAEICAYAAAAwZGDpAAAMTWlDQ1BJQ0MgUHJvZmlsZQAASImVVwdYU8kWnltSIQQIREBK6E0QkRJASggt9I4gKiEJEEqMCUHFji6u4FoRESwrugqi2AERG+qqK4tidy2LBYWVdXFd7MqbEECXfeV7831z57//nPnnnDNzywBA7+RLpbmoJgB5knxZbLA/a3JyCovUDagAB0zgCkz5ArmUEx0dDmAZbv9eXt8EiLK95qDU+mf/fy1aQpFcAAASDXG6UC7Ig/gwAHiLQCrLB4Aohbz5rHypEpdBrCODDkJco8SZKtyixOkqfGXQJj6WC/ETAMjqfL4sEwCNPsizCgSZUIcOowVOEqFYArEfxD55eTOEEC+C2AbawDnpSn12+lc6mX/TTB/R5PMzR7AqlsFCDhDLpbn8Of9nOv53yctVDM9hDat6liwkVhkzzNuTnBlhSqwO8VtJemQUxNoAoLhYOGivxMwsRUiCyh61Eci5MGdwnQE6SZ4bxxviY4X8gDCIDSHOkORGhg/ZFGWIg5Q2MH9ohTifFw+xHsQ1Inlg3JDNKdmM2OF5b2bIuJwhvpsvG/RBqf9ZkZPAUelj2lki3pA+5liYFZ8EMRXigAJxYiTEGhBHynPiwoZsUguzuJHDNjJFrDIWC4hlIkmwv0ofK8+QBcUO2e/Okw/Hjp3KEvMih/DV/Kz4EFWusCcC/qD/MBasTyThJAzriOSTw4djEYoCAlWx42SRJCFOxeN60nz/WNVY3E6aGz1kj/uLcoOVvBnE8fKCuOGxBflwc6r08WJpfnS8yk+8MpsfGq3yB98PwgEXBAAWUMCaDmaAbCBu723shXeqniDABzKQCUTAYYgZHpE02COB1zhQCH6HSATkI+P8B3tFoADyn0axSk48wqmuDiBjqE+pkgOeQpwHwkAuvFcMKklGPEgETyAj/odHfFgFMIZcWJX9/54fZr8wHMiEDzGK4RlZ9GFLYiAxgBhCDCLa4ga4D+6Fh8OrH6zOOBv3GI7jiz3hKaGD8Ihwg9BJuDNdXCQb5WUE6IT6QUP5Sf86P7gV1HTF/XFvqA6VcSZuABxwFzgPB/eFM7tCljvktzIrrFHaf4vgqxUasqM4UVDKGIofxWb0SA07DdcRFWWuv86Pytf0kXxzR3pGz8/9KvtC2IaNtsS+xQ5h57HT2EWsBWsELOwk1oS1YceVeGTHPRncccOzxQ76kwN1Ru+ZLyurzKTcqc6px+mjqi9fNDtf+TByZ0jnyMSZWfksDvxiiFg8icBxHMvZydkFAOX3R/V6exUz+F1BmG1fuCW/AuB9cmBg4NgXLvQkAAfc4Svh6BfOhg0/LWoAXDgqUMgKVByuvBDgm4MOnz59YAzMgQ2Mxxm4AS/gBwJBKIgC8SAZTIPeZ8F9LgOzwDywGBSDUrAarAeVYCvYDmrAXnAQNIIWcBr8CC6BK+AGuAt3Txd4DvrAa/ABQRASQkMYiD5iglgi9ogzwkZ8kEAkHIlFkpE0JBORIApkHrIEKUXWIpXINqQWOYAcRU4jF5EO5A7yEOlB/kTeoxiqjuqgRqgVOh5loxw0DI1Hp6KZ6Ey0EF2KrkQr0Gp0D9qAnkYvoTfQTvQ52o8BTA1jYqaYA8bGuFgUloJlYDJsAVaClWPVWD3WDNf5GtaJ9WLvcCLOwFm4A9zBIXgCLsBn4gvwFXglXoM34Gfxa/hDvA//TKARDAn2BE8CjzCZkEmYRSgmlBN2Eo4QzsFnqYvwmkgkMonWRHf4LCYTs4lziSuIm4n7iKeIHcTHxH4SiaRPsid5k6JIfFI+qZi0kbSHdJJ0ldRFektWI5uQnclB5BSyhFxELifvJp8gXyU/I3+gaFIsKZ6UKIqQMoeyirKD0ky5TOmifKBqUa2p3tR4ajZ1MbWCWk89R71HfaWmpmam5qEWoyZWW6RWobZf7YLaQ7V36trqdupc9VR1hfpK9V3qp9TvqL+i0WhWND9aCi2ftpJWSztDe0B7q8HQcNTgaQg1FmpUaTRoXNV4QafQLekc+jR6Ib2cfoh+md6rSdG00uRq8jUXaFZpHtW8pdmvxdCaoBWllae1Qmu31kWtbm2StpV2oLZQe6n2du0z2o8ZGMOcwWUIGEsYOxjnGF06RB1rHZ5Otk6pzl6ddp0+XW1dF91E3dm6VbrHdTuZGNOKyWPmMlcxDzJvMt+PMRrDGSMas3xM/ZirY97ojdXz0xPplejt07uh916fpR+on6O/Rr9R/74BbmBnEGMwy2CLwTmD3rE6Y73GCsaWjD049hdD1NDOMNZwruF2wzbDfiNjo2AjqdFGozNGvcZMYz/jbOMy4xPGPSYMEx8TsUmZyUmT31i6LA4rl1XBOsvqMzU0DTFVmG4zbTf9YGZtlmBWZLbP7L451ZxtnmFeZt5q3mdhYhFhMc+izuIXS4ol2zLLcoPlecs3VtZWSVbLrBqtuq31rHnWhdZ11vdsaDa+NjNtqm2u2xJt2bY5tpttr9ihdq52WXZVdpftUXs3e7H9ZvuOcYRxHuMk46rH3XJQd+A4FDjUOTx0ZDqGOxY5Njq+GG8xPmX8mvHnx392cnXKddrhdHeC9oTQCUUTmif86WznLHCucr4+kTYxaOLCiU0TX7rYu4hctrjcdmW4Rrguc211/eTm7iZzq3frcbdwT3Pf5H6LrcOOZq9gX/AgePh7LPRo8Xjn6eaZ73nQ8w8vB68cr91e3ZOsJ4km7Zj02NvMm++9zbvTh+WT5vO9T6evqS/ft9r3kZ+5n9Bvp98zji0nm7OH88LfyV/mf8T/DdeTO597KgALCA4oCWgP1A5MCKwMfBBkFpQZVBfUF+waPDf4VAghJCxkTcgtnhFPwKvl9YW6h84PPRumHhYXVhn2KNwuXBbeHIFGhEasi7gXaRkpiWyMAlG8qHVR96Oto2dGH4shxkTHVMU8jZ0QOy/2fBwjbnrc7rjX8f7xq+LvJtgkKBJaE+mJqYm1iW+SApLWJnVOHj95/uRLyQbJ4uSmFFJKYsrOlP4pgVPWT+lKdU0tTr051Xrq7KkXpxlMy512fDp9On/6oTRCWlLa7rSP/Ch+Nb8/nZe+Kb1PwBVsEDwX+gnLhD0ib9Fa0bMM74y1Gd2Z3pnrMnuyfLPKs3rFXHGl+GV2SPbW7Dc5UTm7cgZyk3L35ZHz0vKOSrQlOZKzM4xnzJ7RIbWXFks7Z3rOXD+zTxYm2ylH5FPlTfk68Ee/TWGj+EbxsMCnoKrg7azEWYdma82WzG6bYzdn+ZxnhUGFP8zF5wrmts4znbd43sP5nPnbFiAL0he0LjRfuHRh16LgRTWLqYtzFv9c5FS0tuivJUlLmpcaLV209PE3wd/UFWsUy4pvLfNatvVb/Fvxt+3LJy7fuPxzibDkp1Kn0vLSjysEK376bsJ3Fd8NrMxY2b7KbdWW1cTVktU31/iuqVmrtbZw7eN1EesaylhlJWV/rZ++/mK5S/nWDdQNig2dFeEVTRstNq7e+LEyq/JGlX/Vvk2Gm5ZverNZuPnqFr8t9VuNtpZuff+9+Pvb24K3NVRbVZdvJ24v2P50R+KO8z+wf6jdabCzdOenXZJdnTWxNWdr3WtrdxvuXlWH1inqevak7rmyN2BvU71D/bZ9zH2l+8F+xf7fDqQduHkw7GDrIfah+sOWhzcdYRwpaUAa5jT0NWY1djYlN3UcDT3a2uzVfOSY47FdLaYtVcd1j686QT2x9MTAycKT/aekp3pPZ55+3Dq99e6ZyWeun405234u7NyFH4N+PHOec/7kBe8LLRc9Lx79if1T4yW3Sw1trm1Hfnb9+Ui7W3vDZffLTVc8rjR3TOo4cdX36ulrAdd+vM67fulG5I2Omwk3b99KvdV5W3i7+07unZe/FPzy4e6ie4R7Jfc175c/MHxQ/avtr/s63TqPPwx42PYo7tHdx4LHz5/In3zsWvqU9rT8mcmz2m7n7paeoJ4rv035reu59PmH3uLftX7f9MLmxeE//P5o65vc1/VS9nLgzxWv9F/t+svlr9b+6P4Hr/Nef3hT8lb/bc079rvz75PeP/sw6yPpY8Un20/Nn8M+3xvIGxiQ8mX8wV8BDCiPNhkA/LkLAFoyAAx4bqROUZ0PBwuiOtMOIvCfsOoMOVjcAKiH//QxvfDv5hYA+3cAYAX16akARNMAiPcA6MSJI3X4LDd47lQWIjwbfB/5KT0vHfybojqTfuX36BYoVV3A6PZfEvWDKm8YvE0AAACKZVhJZk1NACoAAAAIAAQBGgAFAAAAAQAAAD4BGwAFAAAAAQAAAEYBKAADAAAAAQACAACHaQAEAAAAAQAAAE4AAAAAAAAAkAAAAAEAAACQAAAAAQADkoYABwAAABIAAAB4oAIABAAAAAEAAAL0oAMABAAAAAEAAAEIAAAAAEFTQ0lJAAAAU2NyZWVuc2hvdAMv8VEAAAAJcEhZcwAAFiUAABYlAUlSJPAAAAHWaVRYdFhNTDpjb20uYWRvYmUueG1wAAAAAAA8eDp4bXBtZXRhIHhtbG5zOng9ImFkb2JlOm5zOm1ldGEvIiB4OnhtcHRrPSJYTVAgQ29yZSA2LjAuMCI+CiAgIDxyZGY6UkRGIHhtbG5zOnJkZj0iaHR0cDovL3d3dy53My5vcmcvMTk5OS8wMi8yMi1yZGYtc3ludGF4LW5zIyI+CiAgICAgIDxyZGY6RGVzY3JpcHRpb24gcmRmOmFib3V0PSIiCiAgICAgICAgICAgIHhtbG5zOmV4aWY9Imh0dHA6Ly9ucy5hZG9iZS5jb20vZXhpZi8xLjAvIj4KICAgICAgICAgPGV4aWY6UGl4ZWxZRGltZW5zaW9uPjI2NDwvZXhpZjpQaXhlbFlEaW1lbnNpb24+CiAgICAgICAgIDxleGlmOlBpeGVsWERpbWVuc2lvbj43NTY8L2V4aWY6UGl4ZWxYRGltZW5zaW9uPgogICAgICAgICA8ZXhpZjpVc2VyQ29tbWVudD5TY3JlZW5zaG90PC9leGlmOlVzZXJDb21tZW50PgogICAgICA8L3JkZjpEZXNjcmlwdGlvbj4KICAgPC9yZGY6UkRGPgo8L3g6eG1wbWV0YT4KD9+gMwAAABxpRE9UAAAAAgAAAAAAAACEAAAAKAAAAIQAAACEAABAUvhKY/4AAEAASURBVHgB7J0FWFRLG8f/KIiFoGCh2N2t1269dot57bh2x/Wqn3XtunZ3ix14LRSxu1uxwcIEUfnmneWsu7AIi7vKnn3neWDPmTMzZ+Y3Z8/+z5x33rEJEQEcmAATYAJMgAkwASbABJgAE7BIAjYs6C2y37jSTIAJMAEmwASYABNgAkxAEmBBzxcCE2ACTIAJMAEmwASYABOwYAIs6C2487jqTIAJMAEmwASYABNgAkyABT1fA0yACTABJsAEmAATYAJMwIIJsKC34M7jqjMBJsAEmAATYAJMgAkwARb0fA0wASbABJgAE2ACTIAJMAELJsCC3oI7j6vOBJgAE2ACTIAJMAEmwARY0PM1wASYABNgAkyACTABJsAELJgAC3oL7jyuOhNgAkyACTABJsAEmAATYEHP1wATYAJMgAkwASbABJgAE7BgAizoLbjzuOpMgAkwASbABJgAE2ACTIAFPV8DTIAJMAEmwASYABNgAkzAggmwoLfgzuOqMwEmwASYABNgAkyACTABFvR8DTABJsAEmAATYAJMgAkwAQsmwILegjuPq84EmAATYAJMgAkwASbABFjQ8zXABJgAE2ACTIAJMAEmwAQsmAALegvuPK46E2ACTIAJMAEmwASYABNgQc/XABNgAkyACTABJsAEmAATsGACLOgtuPO46kyACTABJsAEmAATYAJMgAU9XwNMgAkwASbABJgAE2ACTMCCCbCgt+DO46ozASbABJgAE2ACTIAJMAEW9HwNMAEmwASYABNgAkyACTABCybAgt6CO4+rzgSYABNgAkyACTABJsAEfoqgDwoKwqFDh3Dr1i08e/YMwcHBTJ4JqIJAnDhxkDJlSmTLlg3FixeHra2tKtplzkb4+vrC29sbjx8/xqtXr8x5Ki6bCfxUAokTJ4arqytKlSoFNze3n3puSzvZ169fcfLkSVy6dEneCwIDAy2tCVxfJmCQQOzYsZEsWTKkT58eZcuWRYIECQymM3lkiBmD+MEO6dSpU4iDQ6IQUXH+YwaqvgaSODuH9OvXL+Tly5dm/FZZbtHbtm0LKVKkcIiNjY2qrwO+1/G9nq7xIkWKhNA1z0GfwPv370NGjRoVIgZC+D7AmkD110C8ePFCmjVrFiIGtPW/CGbYM9sI/dq1a9G2bVt8+PABZStUQdXqdZAzV14kTZacRzFN/ljGBf4qAp8+fYK/31OcO3sKO7duxDGfw3B2dsaaNWtQsWLFX1WtGHXeN2/eoEWLFti6dStckrqggXttlKtYGm5pUsPRKZGoq02Mqi9XhglEj0AIAl6/wQPfhziw9xA2rNmM5/4vULt2bSxfvhwODg7RK1ZFuU6fPo169erC1/cBChXMhSYNf0eJ4gXgmjIp4sa1V1FLuSnWTODLl6/w83uBS1duYfPWfdi0ZS9iiVH7iRMnolu3bmZDYxZBP23aNPTq1QsZM2XF+KlzkCdfQbM1gAtmAjGJgM/hgxjQu7MU+fQj7u7uHpOq99Pr8vr1a5QuXVq+Vu/QpQ36DOyGBAl/0uvHn95aPiET+Ebg3bv3mDx2OubNXIzcuXNLs1NHR8dvCaxsa//+/ahZs4YU7rOn/416tSvBhp/lrewqsM7mXr12B+3/HIZjJ85DvMXH+PHjzQLC5IJ+165d4ktbEwUKFcX8peuR0IFG4DgwAesh8NzfDy3da8L33h35I164cGHrabxOS8lGtnr16vD09MSUWePQsEldnaO8yQSsg8C6VR7o3WUgqlSpgh07diBWrFjW0XCdVt6+fRvCBAnx48XBvl0LkTEDzy/QwcObVkAgKOgTmrUeIEfsFy5ciDZt2pi81SYV9DSphSYHBn/+ii27DyNxEmeTV5gLZAKWQOCB7z3UqVoKGTNmxKlTJ8VIlPUNRa1YsUKa2vTs1wX9/uppCd3GdWQCZiEwfvQUTJswC/SdEPa0ZjlHTC60Vq1a2CMe7A/vX4YC+XLE5Kpy3ZiA2Qh8+BCIUhVa4J7vU+kkxsXFxaTnMqmgnzlzJrp27YopMxahZt2GJq0oF8YELI3AgjnTMXbkX/Dw8EDdutY1Oi3m+yBTpkzi4f4TDp30RBz7OJbWfVxfJmAyAp/E6FzpwpURxy4ubt68aVUP+CdOnEDRokXRo0tzTBrX32RMuSAmYIkEDnufRrmqrTFo0CCMGTPGpE0wqaAvU6YMrl+/Ce9T12ETy/pGJE3aM1yYxRP4KCaEF86dDnXq1Mbq1astvj3GNIDc0dEr9r9HDkSnbm2NycppmYAqCcyevgCjho6TrhoLFSqkyjYaahTZDE+aNAm3r+xGGreUhpJwHBOwKgJFSzfB64CPYpT+tknbbTJBT77myddm/cbNMWbCDJNWkgtjApZKoF2L+rh86Rz8xPoL1hTGjRuHgQMHwuuEJzJlyWBNTee2MgGDBG5ev42yRauCvhv9+1vPSHWBAgXwJfg9zhzbYJALRzIBayMwYsxs0N/du3eRLl06kzXfZIL+3r170ol+/8Ej0KFLL5NVkAtiApZMYOTQ/li2aA4+fvwIe3vrcctGrrlmzpqJu88uw87OzpK7kOvOBExCIPhTMNInzynNUqdPn26SMi2hEFpgp1TxvFi3crIlVJfryATMTmDV2h1o2XYQDh8+jJIlS5rsfCYT9KdOnQJ58xgzcQYaNfnDZBXkgpiAJROYMWUspk4cjUePHskVJC25LcbUvWnTptixcweu3j9tTDZOywRUTSBbmgKoUb0GVq1apep26jaOVs1s26oeZk8fqhvN20zAagl4/ncE1et2xubNm+U6FaYCYTJBr9jM/jNpJhq6tzRV/bgcJmDRBGZOHY8pE0bi4cOHSJUqlUW3xZjKk//93Z67ceXeKWOycVomoGoC2dMWRLXfq1nVnBpy09m+TQPMmva3qvuWG8cEokpgz14fVKvTCZs2bRJz7OpENVuk6VjQR4qIEzCB6BNgQc+CPvpXD+dUGwEW9GrrUW4PEzCeAAt645lxDibwywmwoGdB/8svQq5AjCHAgj7GdAVXhAn8MgIs6H8Zej4xE4g+ARb0LOijf/VwTrURYEGvth7l9jAB4wmwoDeeGedgAr+cAAt6FvS//CLkCsQYAizoY0xXcEWYwC8jwIL+l6HnEzOB6BNgQc+CPvpXD+dUGwEW9GrrUW4PEzCeAAt645nF+Bwvnvvjy9cvcHZOCnLtZepw59YNuKZ2Q9y48X6o6ODgT3j29CmSJU+OOHGsx5f6D0ELzcyC3voE/devX+Fz+BgyZ82E5CmSRXgZBQYGymNx48bVS7PX8wAuX7iC+/ce4P5dX7x9+06UlRH5CuZF05aNxAJ+8fXSR3fnw4ePePLoKTJmTh/dImQ+8q/+9OkzJE+eDHHs4/xQWWrPzIJe7T0ctfYtWuqBW7d90a93GyR2ShSlTE+e+mPtht34vXJJZM0Sve/s9Rt3xWq9rogX78d+x58+ew5b29hwcU4cpbpzIn0CLOj1eVjk3pHDB3D44D5cu3IRV8UfCXoKJObTZ8yMajXrwb1ZKyGcjVseOygoEJvWr8b+vbvwwPee+KLZIWHChDh53AfFS5bFsrXbcOKoNyaPH4FXr17i06cghHwNQUhICOLFjy8EQkI4JHKEa6rU4s8Nbm5pUfn3WvIYlV2pVAE8fvQANjY2SOLsgsRJnGUeyv/lyxd8+fxZPpjYxraVeRwcHJHI0REODonkZ/3GLZA+QyaL7LMfrXRMEPQhn78g4PA12DqJvs6dBqIjYRM71o827bv5rdlt5cyp8zBm+AQ4Ojni3HUfgyLXx/s4OrfuIb6LwdjttRlp07lJnk+fPEOhHKXkd9MQ4KTJXPDX//qhYZN6hg5HGHft6g0sXbASly9exZuAN3BxccbtW3fFCsb+2LR7tfgef8X4kVPE/eEVPgV9Aj2UiK834ieIJx8gEjkmQqrUrvLPLW1q/F6zMuLHjwdaIbxUwcp49PCxvD84uyQR94jESJAwgbzH0P3hs7g/fBXlxxYCIL54GHFI5ABHR4fQz0Ro3Kw+MmSKnkCJsMEx9EBME/QhwV/w+vBV2CVJiAS5xDUYS9wbhJtJUwZ2W6lP8+GjZ0ifrbL8jk8c2w89u7bQTxDBXvPWA7Bm/S4UK5oX3vuWR5BKEx0YGITlq7Zhx24v3Ln7EHHE4n4JE8aHt88ZlC9bFLu3zkWXnqNw8tQlvH//AZ/pd1x8R5V0CcT3PmWKpEL8pxR6IAWKF82HggVyysJnzVuDHn3+0egH8WCQPJkzkiRxkgKfyvgifm+oPNIH9uIBP5FDQjg5OcBJfOcTiHtG3jxZ0bplXXm/+G4jVHyQBb0Fdy4J9xF/98OOrRsjbUUiIayHjZqI2vXdI01LCS5dOIuuHVrg4YP7BtPT6Pyl234iTXPs3rHFYBpDkZWq1sDshatx5/ZNVC5dwFCSKMcVK14aK9bviHJ6NSU0i6AXN8pPfm/w7uxdOBTJJH+MI2JGYv7B5O1CXH3VJklUKBMSV8yt3TfHhjUL+m4d+sBj3VaJ9diFA3BLk1oP8c3rt1GrciMprOnArIVTxPe9hkxzSYzMVyldWy+9oZ2J/45BkxYNDR3Si/ss+n/U0LFYMHup/IHVOxi689f/+uPc6fPi/uRp6LDBuKrVK2Hhylm4ffMuSheubDBNVCOLlyqG9du+L1CiWlZMT2d2QR96b3h75g4ci2aGrRDqEQUS876TNNepkobyOJXLpeya5JMFvT7Gs+euonDJxjJy+F9/YsigTvoJIthLma4M/J+/QvFi+XFo79IIUgFnzl5Bo+a9ce/+Y4NpaHT+qNdq5Cti3KDA6aPrkTd3VjRrNUC8KdhlsOyoRh7wXIxSJQpGNbnq0rGgt9Au9Vi/SozWDcTr16/0WhDb1laOhH/48EGMkj3RO0Y7YyfPRoPGzcPF60YcOvAfOrVpIkfcdePDbl+8+Qy7d27GX/26R5pWyVvkt5JYFfqlnT75H/y3ezseP/TFu3dv5ai8ki4qn7XqNsLkGQujklR1acwh6L+8DcTDmd9uqM5V8yNhvnQG2flvPI6Pt59KQS/G3iDeyyBB1lRwqVvEYHpTRVqzoO/cpie2emgeYM9cO6JndvPc/wVqVmwA3/sPJep0GdJin892YRanMbs55nMS9as1lce69OyAAX/3xvt373Hm1HlM/GcazopPCvRWb+3WZfitRMT9SKYwf7h3gNd+b5knon+durVD9pxZ0K/HEDk6H1E63Xg674YdK2XU5HH/Yvf2/8SgwmO8E+ZBNCpvTKjbsCZmzJ9sTBaLTWtuQf854AMezf72YOZSo6AYeRdv5QwEv/VHEXjXT+/ekFC8wXOublqhxYJeHz6Nkpet3EpGjh3VG317arb1U+nvvXwVgGRupWRk8yY1sWT+aP0EoXu0Amk99x7izdkng8eVyOePjqBclda4eOmGEhXp575dC1GmVGFcvHwTQ4ZPx4WL1/Hi5Wt8+KAxHYy0gNAEdD1cPLUp2mZDUT1PTE7Hgj4m904Eddu6aR16d22rPUo/wq3adUGd+o2RKUs22Nlp7E3JnMXH2wsjh/YTP97vZHoS/Ft2H0a27IZHS86fPYXmjarjo3ggoJAsWQq06dhVmu0EfvyIRnUq4bUwr6Fw7NxtuCRNJr7kgfJ1mF0cOxw7cgitm9WVx92bt0bteu548vih1gyoUtWaSO1m+IeAzklmO21b1Me5MydlGScu3BV2efHF67t38i9APMDQtr19XOTNV1C8breV6aztnzkE/fNNJ/D++iMhzzUC3TZhPLh2rhzOjObtmbt47XUZX4OC9bC7da+OWPHNa+tszYK+wx/dsGPLbsn8mu8ZaVpCO2Qz36BGc60ot49rjy2ea5E7r+ZVNqU5fNAH7nX+oE30HdQDvQZ0ldv0j8xgaPR/84btMq55a3eMmzJSe1x3g153dxImPds3f3vwq167Kpq3ckeefLkwc+pcsXLnfJmlhRgUGDt5hDSfoRF9eu1+RMwBaFa/jeY8Ik+9xrXFA/0TPH/+QsZVrV4x3JsH5fxkm09mOy0atcOZk+dk9IVbx4U5Xjz5cEIPKK9fB8hte3t7OTeA7HGtIZhb0JNIpwd4YVcn/kJg6yDuDZ3C3xvenLyFAO9r4e8NPcW9Ia5p7w0s6PWv7J27D6FWA833evb0oXIVXf0U4fd8HzxBhuxV5IGObRth5rQh4RKdOHkRlaq3w3vx/aNAJjM9u7VAw3pV8PFjIEpX/EMKcDr26M4BaSrz5u172InfZnt7O5Sq2BLHT1ygwzjpvRaPHvuBbOUD3ryFW+oUaFS/qjwW9h/dM94Jsx2vw2Iwwr2nPPxnB3eQORHV5d27D6KMd+I7/wbBwZ+RIb0b0qYxzqw47DktfZ8FvYX14L27t1G7akmtQM+VJz/GTPgXOXLljbAlF8+fkSJbEeJkdjNpuuZHVzfTmzcBqF6hmBTgFJ/SNTVWbtiJNGm/2aHu3rkF/Xt2FCN4ZTB38Vrd7HJ7+5YN6Plna7ndq//f6NKjf7g0kUW0bV4fXgf2yGSHT16V9Ygsj7UdN4egf7H9NN5ffqA1obARN2SnUtmQSLwuV0Kw/xs8W+2NLx+ClCjEFq9akzb4DfapEmvjzLVhzYK+XfMu2LVd873wfXFNjqaTGO8ohP7ObZp4mo9Co9J1GtTQ6wKaEPtH4w4ybtCwvujaq6PecRLLOdMXkoI5U5YM8DrxbTRWN+Fc8UZsxJCx2qjufTrL0X4lgkbvG9VqKezo70iTn5JliiuH5OeWjdvxZ9tecrv/Xz3Ro18XveNR2WnesB0O/Oclk568fEjMz7HuH3ECYW5B77/5BD5ef6y9N8SyE/eGMjngUCijtss+PQuA35oj+PJR/96QrHFxxEnhpE1nqg0W9PokyQ6e7OEprFwyHo0bGBbKurnu3nuEzLl+l1Fkfz5/1v90D+N1wFvkL1ofDx7SwxykAN8rRtQzCvGsBI8te9GmwxCUK1sEm9ZOV6K1nznz18L1m/fE/SoWggI0D+Lag1HYIHv838o2lSkN1TEKRVhNEhb0FtTVNHrdoGYFXLmkeT2eM3c+bNi2Tzsi/72mXL54DnV+Ly1vyDS59dCJy+EmyZIQJ0FOIUXKVFjt4SlGy9KGK5ZG6Ug4GAorly3AsEGaH+zBw8aIL3o3Q8m+G9erSxts27xeptm57ziyZMvx3fTWeNAcgv5r0Gc8nvcfvrz/9qpTjtJ3qgQbMdIZIkZBnizYj+CA91rkscQIjGNxEv0/Pjn5xo0bSJo0KRInjvjBwJoFfcvG7bHP86B4YxUPt55oRrwG9h6K5YtWa/tj4NA+6Na7k3Zf2di2aaccWaf90ROGoVV7fbM7+k6TKHwrRs1oguy5G0eVrNrPq5evoVr5+lrzme59/8SAIZrvujZR6EZE94hlC1dhUJ9hMtWw0YPQQXzXjQ1d2vXSvk3Yd3SHeNuYxdgiVJfe3IL+a2AwHs/fq39v0Bml//qJ7g378PmN5s0uAaZ7g1Op7HqiP6rgT548iYIFC4JEe0SBBb0+mQWLN6JTN40g37ZxJn6vojGl0U+lv3frji+y5dE8/Lf5ox7mzRyul0DXrj11quQ44LkE6dOl0ktDOxF93+mYa/qy8PN/CQcxof3V0/D3FUrzvXDz1n1kz1dTJqlXpyLWrbAOM7rvMYnoGAv6iMjEwPgtG9egT/f2smbxEyTAVs8jSJf+2whJZFUmU5jDB/fKZJ2790WfAZofVoogTzl/uNfSFrFohQdKl6uk3Y/qxpx/J4lXYsNl8pFjp4kJdsb/YNNE32WL5sgyVm3cjSLFSkT19FaTzhyCnuC99rqCNyduISTUXtlGmHM5Fs8KxxJZ4b/hGD7eeaadCEteK+KmS4pkjfRHYaPbCbNmzcLgwYPRo0cP9OzZ06Cwt2ZBTyYzZDqjCO4JY6Zi6viZWtydxb1hyAjDb8RWL1+Pvt0Gy7TT5oxHA/e62ny0QTb0NYQNPoW8+XNj5wEPua37r05Vd5w8dlpGFSySX5r1RPRgr5tPd/vfyXMwdsQkGTVWmPW0EOY9xoa/B4zEornLZLaNO1ehWPHCxhahuvTmFvQE7NW+S3h7+va377/OGzy/dT4IvOf/7Zi4N8TLmBxJ6xeLFuuyZcvixYsXGDp0KOrXr29Q2LOg10c7e/5adOs1Wkbu2T4f5HUmsnDpyi3tJNYuHZtg2qRB2iz7DhxDlZqat3oUuWPTbFSpZPxvcfwkBaXXrRTJXfDw9n5t+VHd0LXzL1u6CPbuXBDVrFaXjgW9BXX5X/27Ye3KJbLG0RHLB/Z5on1LzY+24nZSaX7DWhVw9vQJuUtuLqfPWaocMupz6oRRmDF1nMwzcdo88eq/iVH5KfG/U8Zi2kTNjYk84pBnHA76BMwl6EPESNvjuf/hs94ofVwkKpZFuKEj29hP2orYOSVAyjblYRPHNPMYSNB36aIxwXAU7kkNCXtrFvQ0qZUmt6YR7h3dmzfA+NFTtX3RWnikGjV+qHY/7IauqcyCFbPwe41vD+s0obZ2lca4d+e+zEYPBfRwoBtoAmzTeq1lFNmlk0vM7Dmz6SaJ0rbuQ8i0uRPEBP06Ucqnm2jKuBlyIi/FkUcc8oxj7eFnCHqaM/N4nv4ofWwxzyaR8IgVcETfbt4ucULNvcEuenMYSNB7eXnJbs2VK5dBYc+CXv+qn7doPf7sPlJGkvvIiuV/009gYI9s20uU17yt+2tAB/zv767aVCUrtMCx4+flPtnLr142QXssqhtkEhgnUT6ZPEP61LhxcWdUs2rT0eh/XKf80v0lecMhrzgcDBNgQW+YS4yMrVQqP+7euSXrduT0deHlwtWoetJCTjnSu8jXYzSyv9dbY89GQp4EPYWEDg7Yc+iMnAxrVOGhiceP/hvzZmmExsz5K1Gl2rdR/6iWt2LpfAwf3Fsm/2fSLDR0bxHVrFaTzlyCngAGHLmOAJ/r30bpY4kfZXFjJk82SogdX/gJbloSdi6JlKgf/tQV9EphYYW9NQt6GkFXvNEofOiT3ExOmD46QjM4SkPif9oEzWj+P5P+h3KVSoN80/scOoY5MxZpXV2SX/ij5/bDKbEjZdMGEvOKVxvyXvP3SI2trjZBFDdGDxuvnTQ7f/lMMdm+chRzfktGfu8H9x0uIybN+Ec+3Hw7ap1bP0PQE9nXh8R6A8dvfrs3iDd48t4gRJcS5L2hWSnYOTsoUUZ/6gp6JXNYYc+CXiGj+VyyfDPaddY81G/dMAPVqpaWB0gQ37rzQHqPuXb9Lm7cvIc79x7i5YvX0l0ljYBTmDSuP3p00Yj7YyfOo2R5ze9uIocEuHx2q5wMKxMa8e+jmE/hkFTzBi1Xzsw4d3yjEbm/JVVca9Ik2rvX9nw7wFt6BFjQ6+GIuTvP/f1QLF9GWUHyPONz9ma0KktlUFnkJYb8yNMrc10R3r33IHTvo3k1H50TjBo2AEsWzJJZo2u2Q371e3RuJcuIrh1+dOpuSXkUQX/+/HmkTJlSLNKTQCzIE196LKFX1UpwcXGRffxOeDn6KLwUUSBXhg7iwY2Cv7+//KR/ZLtuK16jfxTeA/wXHUSIzsRXbSKxQSPyCYtnQZJiWYV3gWDhZeC1PEzXEp2Pwps3b6R3E9qmelH9aLRGt27Ozs7yVfr79++Fi7IPIEE/fPhwyhIuKML+4sWL2H9gP67cOxUujdojyI88+ZPXDfUa1cK0ORMMmiToptM1U9GN192mlWLXblmG/IX0J9iTXX2ujEXwWcyhIPv9C7ePy8WfdPNGdXvYoFHSdz2lX7FhIcpV1IiOqOandOS6k1x4UoiuHb7MrKJ/JOgrlK+AuXPnylZF63sv7g90n6BgJzwSOTk5ye2XL19qXYY6xEuA50sO4cs7zb1EJtD5F0t4OrMtlBa22VNo70nkbpTKUEJU6kaC/soV/Wtdya8I+8aNG0tPLrOm/a0csurPVWt3oGVbjckM2cPHFYsvnbtwXQp58hYTWVi6YAyauWvehg/6ewomTFksswwd3Bn0F51Ak2pdUmnMdIoUzg2fAyujUwxyFaiNa2I12uja4UfrpBaYiQW9hXTa9WuXpQcaqu6PLKhEE2Np0SgKitvJWlVKaifa0kJNVH50w5j/DcKieTNk9sUrN6FU2YpGF6Vrz09ecshbDgd9AoqgL1eunBTozZs3R9OmTeHn54dWrVppE69bt06u7rtw4UJs3KgZHSlfvjz69u0r09SuXVuKctqZMmUKsmbNil27duHCxn2om74I7GPbacuiDRrtuRnwFLZVsoPOfeHCBQwcOFCmoYeEtWs1no9GjRoFHx8fGU/1ovo9f/4cLVu2lHH0b82aNUiUKBEWL16M9evXy/NqDxrYIPesGTJkEBOs/KxS0Jcr9jtuXNO8oSM89GB2+qp3uNF0A+jEA3J/bFi9ydAhbRyZ0tDoezfhuSahmMCmhD279qF1E81EW7JXJ7v16Ib/DR4j3uBphMLKjYtQtkIpo4vSdcFJXnLIW461h2xuBeT3PF++fBKFh4eHvD7mzJmDrVu3yrjKlSvLuSm0U716dfldpu0ZM2bI79W2bdswe/ZsigKJ5vHjx8vt9u3b49GjR3J70KBByBvXFa8OXJIj8zIy9J+NTSw8+hyAkUfWyJg//vgDJLqfPn2KNm3aaJNu2LBBPuTPmzcPmzdvlvEVK1ZE796at7I1a9bE9u3btekNbdDkebqftG/TQLzx4d8HYrRh0x64t9Dc1w0x042jlVbJpv25WFBKcUe53UOYr1UuKZMVKtEI585fk9t7dy5E2dLRm6dCbiWdXYvLcooWyYMj+1foViPK2+Qa0+eYRrcEvj4rV4+NcmYrSsiC3kI6m3y0582aUo5ypkqdBl7HL0er5o1qVxSLyRyXeQ8euyx9whfKlVb6lqdXmOeuPRbLqH/7MTf2JJPG/Q+zp0+U2eYtWYfylX43tgiQL/z6NcrJfC3bdMLQkROMLkPtGRRB//DhQ6RKlcr0zf0agkdkS6/j0YZOQjazrm3LI1a8OCY/pyGTG3lOIeTpoWDIkCHSlna3526rFPTF81fA/bu+etwLFM6HVR6LxRuXhHrxYXfaNO0Mz517ZfRvJYvKtyfkYvL2zTvi7Yj+aCu5rVy+fqG01acMi+ctx5D+I2TeP3u0B60AG90wbuRkTJ+kEY1L1swV82PKG12U7gTeNh1bYuQ4FnQ/y+RGdhbdG+bs0fNoQ/HkEStluwrC37z+IIDRHSwyGDK5oXJIyPfp00fOtaHBABb03+jquq1UYslVZJbM6VEgX3bky5sN2bNmQJYs6ZDWzVW6kRw/eREGD50qkx/eJxaUK6p5IEyeprT0LU+a4OUTHyQUb++iE8g/fLzEBWTW/KIO5Ic+OqF6XXH/EotbUfB7cBhJwpgERqdMNeZhQW9BvVq1XGHcuqF5aj558R4SJ3EOV3taeIlMGwwd+/L5M4oKkxvyRx8njr00uaER16xpnGQ5GTJmlvbz4Qo1ImLW9AmYPE7z4z9j/gpUrVbbiNyapNeuXhIeNzQTeho3a4XR4/81ugy1ZzC3oA8Ri3rQBDhdN3TE1D65E1K01jxsmZpxWEFPI/KKkM+SJYs8nTXb0BfOWRqPHz2RHOiHlr7nFPIXzCPMVxZ9d6S+Sd1WOHRA84NILi/JdIYCifp9/x2Ex9otwsf9f9oy6UFh23/rZRpd+/tZC6egdn3Na3l50Mh/0yfOwrhRU2Su+cuEnW+tKkaWAJD7zIolasp8zf5ojPHTRhldhtoy/ExBHxJM9wbxsP9W/0HQPmUSpPijjEnQhhX0ukI+YULNwyvb0OujXrjEAx27DpeRbVvVA/lsz5Mrq3gbElc/oc7eqH/mYPjoWTLmxOE1KJA/h5x8au+oEfZZM6eT9vM6WYzepAmttEhUzhyZcP5EeO9ZUSmwQVPhqnbrPpnU9+Y+uKZMGpVsVpeGBb0FdXnfHh2E/+XVssZh3U5S5M3rV6WveVux6MeIf6aKVVob67Vu47qVGNBL8+o8e8482LZH8wP/W/5M8Pd7JmwmE+PUZf0RQL0CxM7bt2JVtk+fkMTZJewhuU/mNmR2Q2HKzEWoWaeh3DbmHy2eVbGk5oZCXnLIWw4HfQLmFvQvdpzB+ysPtZPflLPHFqs9utQujLjpkylRJvtUBL0hIa+cxJoFfd7MxcT8lxdyIaUBf/dCrz8HagV4VuGLfc3mJWJtCcM/dIqHHOKoLEqlMFU+L1+8ChL+L55r7J3PXDsiJt4nw/LFazCwl2YUnEbDaVT8e4HeIqRJ52Zwki6Z25DZDYWZC6aEWwDre+Uqx+7evoeSBSvJ3QbudeQcAuWYtX7+TEH/fNspfLj6SOuiUmEeW6xQ7FK3COKmNfzboKSLyqci6A0JeSU/C3qFhOaTbN7J9p3C2hWTUF+s6h5ZGDdpIf4aNk0m896/HMWK5JXbqTOWl6u50kg4jYh/L5BZzScxMJDUJbHBZElS/gZaOTZLprS4cm6bwTSRRbZoMxCr1+2UyW5c2okM6VJHlsUqj7Ogt6Bu3+u5A53auMsak+hZL55Y8+QrqG2B7nG62U36d4FWUNPIfmPxBQ8IeC3TT5g2F3UbNJXbrZrUhveh/XI7olF1mti0ZMFMzJgyTr6uX7flP9AqtWHD4vkzMXr4QBkdXUHv5/cUxfNnlmWQy0pyXclBn4A5BX3Qo5fS57zuio+6Zyd3la4dxI9FLBvd6B/eJptab29vaVqjjMiHLdSaBT2JtjcBb5AqtStOXPLCulUe6NN1kFbUp02fRoj6pVpTGV125Jby1PEzcvLsg5fXdQ9pt69duY5alRrhfegEulNXDotVmlPIfJSfQs7c2bHr4Ca5Sq02Y+jGrRt3QAtdHfU+juq1q2Le0vBv1ubPXoLhg0bLHNEV9H7P/JA/q2aiHbmsJNeV1h5+lqAP8n0O/00n9FaD1WVP7ipd24t5Uz94b2jQoAEKFy4sTWuUEXnd89A2C3p9ImQ6QyY0FKJq9z5r3hp07615wNb1M1+1Vkfs3X9UlrVu5WTUE6a6YcOXL18xbeZyjB47F4HCnfHhvcvkCH/YdGRDT6L/RwR95+4jMH/RBlk0ua0k95UcwhNgQR+eSYyOIe8v5AWGQpq06bFg2QZkyKQxRyCTmrK/5caTxw/l8djCY8n02UulK8q+wq80jcJToNH5LbsPaz1jrFgyD8P/6iOPuSRNhrmL14rFZQrJfTLJoUm0/xvSF+fOnJRx9C8iH/Pkg5580VOYs2gNKlapLreN+ffu7Vvky+YqsxT5rSRWbdhlTHarSGsuQR8ibtJPxIqQwa/faznGolViRTxdCxRiCd/SiYSHG1psypSBTEjoR/p7wZoFfZZUeaXYVgQ9cVqzYoNcMErpG2eXJFiwYqZYjE3z/VVYKoKeBgJohF43vHv3HovEuhNThTlMUGCQPPRbiSLYsGOl3A4MDESpgpW15j7NW7lLn/d2wqMJBfKCQ6P4E/+Zps0vHwTEA0HYQAthkS96CotWiYVqqoUXCmHzhN1/+/YdsrlpBhN06xk2nTXt/wxBT/cAaYanM68m/L3BVtwXxMrRxTL/EP6o3AtY0OsjplViabVYCpdOb0Y2YS8fWdD1jLNyyXg0blBVZtEV+smTOWPT2ukgLzUU6F5z5uwVdO/7D8iPvRKWzB+N5k00pnBKHH2S+Q6J/3x5suGUzzrdQ1He7jtwAqbOWC7T79u1EGVKFY5yXmtKyILewnr71csXIFv6F8/9Zc3jCZeAI/6Zoh1tJ/vz5g2qCVeCr7QtI3eCyg9+0mTJsWT1FmTNllN7nEbf61Uvi8sXz8k4W1s74emmFBIIW8WTx32Ev9rn2rS0Ua5CFfG6fKW0w6dyfbwPCrvWC6JOz4Wv6j24cf2KTE92uo5OScSX+bN0e+aWJh1mi2Xqye3m90JQUCByZtCYDuTIlVesiOv9veRWecxcgv71wct4c0qsBilsHjXBBnaJhctJseDUF53FpmILu8yUrcsitlj+/WcGaxb0GVPkBonr1G6pcPziQS12j3Vb0avLAOlWkiJJ6JA7y4FD+8gRdopTBD1tk+36s6d+4sH/qVj59YyYJH9W2rjSMQpkZrNt73r5JkATA2lf3675n8qufAtAdvb3xNLxF89flt9v5SD5sp8uFo2iCa90f/D2OiruLVeEudBL7P/PC9ev3pBJ6f5A/u7p/kN/ZKazSIy2J0v+fXOuoKAgZEieS5aRK08OeB7aopzaaj9/hqB/te8i3p65qzXDs4ENbJMkFIvNBevfGxKIe0ObcogtPs0ZWNDr023YrDc2bdFMfPd/6I3ETpGvEbJz9yHUatBVFjRz2hB0bNtIbpMAL1amCc6euyr37YQZL4loB+GT3vvIaem/Xvfs5PN+vRjJJ+85fuJ7vmXbfmGy44+Hj56BbPuVQH7kNd93zeBNn56t0LNrC+VwhJ+6bx/o4aKm0CscwhNgQR+eSYyP8fbah64dW4BGspXgmspNTI4rgkxZsuGgWBGWPMWEDTSiv3T1VrilTRf2kLS/b9+qIR763g93TIlwdHTC3yPG663+elAI+HYt6itJIv0cN2UO6jdq9t10fs+eoHgBzVsHGuGnkX4O+gTMIeg/i1H5p8uEj+kPgdqT0SIxKVqWkfb0b47ewFfhtYAC/ZjbC1vZ5E1KatP+jA1rFvTpkuWQk1jDCnri7u3lg06te+DVS41JHcUlTuKEs9d8QCPpuoKejkUUqotJqiPFirMk6sMG3UWhwh5T9knEj582UivK9+/xQotG7ZTDkX5OmTUOjZrW+246ehgpkE1jckMj/DTSb+3B3IL+88t3eLqC7g2aNzjEmx7qaRLs+wv3EXD8lhgECL03iAGkuOmSIVnj4mbtFhb0+nh/r90J/+3zkS4dybVjVMIh71MoX7WNTDrhn77o1e3b/JgrV2+jdsOuuHvvUYRF0UPDlAkD9Ebmi5VpilOnL0WYR/dA2jSuuH1lt26UwW3dtw+nxSh/XjHazyE8ARb04ZlYRMyD+/fQs0trg8I9ogaUr1gVsxasgq1YNMRQoAmvQwf2xH+7t4uRwI8yCd00M2XOhsJFi6Nrr4GgEX7doGu3rxtP22TyYxvbVnzGlp/pMmTCHPFqPrIRehrVI3t/MvGZMHWu8KrhHrZoq983h6B/tvwQAoX9vHipKvnaCPMMhwIZkLiCGA0VrurodXvw63da9jRBNkn1AoifOaU2ztwb1izolRF6tzSpcOzCwXCoaeXXfj2GYP8ezbE4YrTs8t1TchEo3QWdwmYk4V9cuLJ0b94Q5St/30sJ+aQnG/j79x5oi3F0ckQBsRhVA/e64Sa5kqtMcplpKJDfe809QvOZIWM6LF49W/swYCgPxdH9oU5Vd5w5eQ5TZ49H/ca1I0pqNfHmFvRPl3oh6IlmsjRBpXtDosKZ4FQ2hzTHC2uKIyfP1yyEuBn1fy9M2SEs6PVpVvi9LbwOn4STowOePzqifzCCPVoxNkuuavLo4nmj0aKpvskM2b536TESW7bvFwsTah7miHv2bBlQqngBDBnUSfqz1y2+UHHhw/7CNd0ouU356Dsv/8T1Ey9eXPTt1VrvISJcptCIbTsOoskf/ZAhfWqc9lkvFj6zjSipVcezoLfg7v8sVun8d8pYbNu8Hr7374ZriYNDIuERww20KJUSSperhJnzV2rd1inxup9ki3/jhljiW6wAShNfyfQmokC2jiTqnz19LF1lko/8VKnd5LadXZyIskUpnt5AJAxd0TRKGawokakFfeDtZyDvFV8CP2kp2gpzGteOlWAjbsIUgh68gL/Hcb0JcTRS79a/FmzEzfpnBGsW9B1bdcf2zbukffym3RFPFD935oIwlTuD/AXyoFDRArJbyE5+qTCTowmltAKooxhZc0rshKzZMyNHrmwGPdJ8rz/JEw65j0zpmlLM4UkXYX66P3ju3IenwrwniXNiaS6UWjyQJEmSWL45+N45IjtGtvSR+d+PrAy1HDenoP948wmeC69XX3XvDYnia+4Nws85hcD7/ni+mSbLfrt/kKlnmn7iYesHJ8hG1Ecs6PXJzF24Dn0GTECndo0wcWw//YPf2SOx/uTJc+Hmso40mTGUlNxOXr56S5jyvpETX2nF1oiC74Mn2LbzoFip1h6pUyVH2jQpkSJFUjgmShjhfSKisnTjaQEsKpN863MwTIAFvWEuFhdLvuXJzIaEPfmgJyGfJ28BxBJPwsMG9cLqFZrZ79QwMs2hRZ8M+aq3uIZbaYVNKujFiOdjsYiU3kRYezskqZQXCXK56REmDxcfbzwRo6Rf5c2ZRkuTNfgN8TKl0Etnrh1rFvQkjg/uPYwcubMhRUrzjXyaq++4XPMRMJugN7DAXCzx5se5aj7Ez66/oJ3/hmP4KAYGdO8NyRuXMIuLWyLJgj789US27yx4w3OxlhgW9FbS07TYEy36pASyp1+4wgPphRkMB8sjYEpB/+7sXbzaf0lrH0807JzF2532FcKB+RoYjAdTt+vFu/WuiVhxfs4rUGsW9HrQeYcJ6BAwl6CnCfIBXlf07g1xkjoipVgtOmz4KkbnH0zboRedpk9N2JjJPIIFvR5q3mECYEFvRRfBiqXzMXJof5BJDYWiv5XCyg07rYiAeppqKkFPrugezditZ0YTO549ktYtCvs0zgaBkZ/6p8u9kCB7auGeLov0gmPDgt4gK45kAj+DgDkEPXm6ejTTM/y9oUEx2KdKYrBZ5Kf+6arDSJgrDRwKZ4RdEgch6DUmewYz/EAkC/ofgMdZVUmABb0quzXiRh094oVuHVpIt5Y00XW1h2fEiflIjCVgKkH/Woy+BRy9rtdOe1exhLvwbBNZoB98xb4+srSmOs4j9KYiyeWoiYA5BP2rvReFC9tbepjiphaerZqX0osztPMz7g0s6A2R5zhrJsCC3gp7P0D4qN+/dxdKl60EZ5ekVkjA8ptsKkGv+6NNE1xppD15s1KIk9wxRkJiQR8ju4Ur9YsJmEPQv/Q8j7dn74S2zAax7G2Ronlp2CWN3L/5z8DBgv5nUOZzWBIBFvSW1FtcVyYQSsBUgv7zq3d4ttIbn99p3JTGTZMUyZuWjLGcWdDH2K7hiv1CAuYQ9MEv3uLZ6iP4EnpviJcxBZI1/O0XtlL/1Czo9XnwHhNgQc/XABOwQAKmEvRK0z/eegpbx/gxZvRNqVfYTxb0YYnwPhMAzCHoFa7kttI2cULYuTgoUTHikwV9jOgGrkQMIsCCPgZ1BleFCUSVgKkFfVTP+6vTsaD/1T3A54+JBMwp6GNie6lOLOhjas9wvX4VgRgv6M+fP498+fJhxNipaNqi7a/ixOdlAjGKwNQJozBj6jj4+fkhaVLrmQfRsmVLbNy4ETcfn49R/cGVYQK/kkAm1zxo2KAhli5d+iur8VPPbS8WGWrauBoWzB7xU8/LJ2MCMZXA9l1eqNOwG7Zv347q1aubrJo2YsEZzfrxP1jks2fPxCpjKdCt9yD06DP4B0vj7ExAHQT+6t8NHutWIjAwUI5UqaNVkbeif//+mDBhAq4/PIeE31mtMPKSOAUTUAcBWjE3m1t+0Hdj3Lhx6mhUFFqRLl1aZM+aBts9ZkUhNSdhAuonsHDJRnTs+j+cPn0aBQpoVgk3RatNJuhpdUQXFxfkLVAEC5ZtMEXduAwmYPEEalUugZCvwbhy5YrFt8WYBixYsADt27fHuq3LUaJ0MWOyclomoEoC3l5H0bh2S9B3o21b63mLXblyJVw4fxYPbu2zqkENVV7E3CiTEOjcbQQWL98Mf39/ODk5maRMKsRkgp4Ka9GiBdavX48jp2/AKbHhBS0oHQcmYA0E7t25hYqlrG9Ejvr2yZMnSJ06NZq1aoyxk/lVuzVc79zG7xMY0OtvrFq6Do8ePZJvs7+fWj1Hp0+fjh49emDvzoUoW7qwehrGLWEC0SAQFPQJGXJURfbsuXDgwIFolBBxFpMK+oMHD6JcuXJo06EbBg8bE/FZ+QgTsAICPf9sjV3bN+HixYviy5vdClqs38RatWrBc48nDp3whFva1PoHeY8JWBEB3/sPUKZwVVStWhVbtmyxopZDzh/KmDEj8uXJgoN7llhV27mxTCAsgakzlqPvwAlYsWIFmjVrFvbwD+2bVNBTTWrUqIHdnp5YtNxDvGov90OV48xMwFIJbPFYiz7d2kmzk3nz5llqM36o3pcuXUL+/PmRr0AerN+2HHHs4/xQeZyZCVgiARqRa1ijOc6fvYhz584hZ86cltiMH6rziBEjMGzYMPwzshf69Wr9Q2VxZiZgqQTOXbiGMpX+QNas2XDy5CmTm6CZXNDT5NjChQvjdUAAps9ZhlJlKlgqe643E4gWgW2b12Ng787IkiULjhw5AgeHmOUXOlqNimamf//9F927d0f5ymUwa+FUwSJhNEvibEzA8gi8ffMOf7btif3/eYG+C127drW8RpigxsHBwahcuTIOHTqEif/0RfcuzU1QKhfBBCyHwMnTl1CvcQ8EBgXj2LHjUh+YuvYmF/RUQRqZq169hrAVfIimLduhS4/+cEmazNR15/KYQIwi8PCBL6ZNHIXNG9cgR44c2LlzJ9KkSROj6vgrKkMjcyNHjkTadG4YNKwvqtWqYvKRiV/RLj4nE4iIADmJ2LnVE2P+NxG+9x5g6NChGD58eETJrSL+xYsXqF27thzkqFGtrGDTAzmyZ7SKtnMjrZdAQMBbTJy2BFOmLxMe3xJi06bNKFnSPKu8m0XQU9eR3+1OnTqJym+Cra0tChUpjpy58wphn1zuW2/3csvVRCA4+BP8xFup82dPir9Tsmnkg50mglnzyHzYPiaf9DQxjiYEJk3mgjLlS0q7ekfHRCKpTdjkvM8ELJBACAIC3uDB/Yfw2u8Nf7/nYmJ4KkydOg3169e3wPaYvspBQUEYNGgQZs6ciU+fPgm7+mwoUTw/XFMmQ9y49qY/IZfIBH4BgS9fvggN/BKXrtzEAa8TILO78uXLYf78BciQIYPZamQ2Qa/U+OjRo1i8eLFwoL9DeL54rETzJxNQFYF06dKhZs2aaNeuHfLkyaOqtpmqMR8/fsSiRYvkglNkikQ/6ByYgNoIxIkTR4zAlUC9evXRpk0bxIsXT21N/OH23L59GzS3iCYI37hxAyZaDueH68UFMAFTEnBxdsbv1aqhefPm0uTMlGUbKsvsgl73pO/fvwfZ2JM9HQfzEfD19UXDhg3hKSYnm9LHqflqbLkl0yqItKBa3LhxLbcRv6DmZJLw/PlzvHr16hec3bpOOWrUKNjY2OCvv/6yrob/gtYmTpxYrscSK1asX3B2yzwlPdg/ffoU9MDPwXwEiHOVKlUwadIkky5mZL4aW27JsWPHRvLkyX/6W/qfKugtt3ssq+atW7fGkiVLMHjwYIwePdqyKs+1ZQJMwGQEyMQpU6ZMsjwaFXV1dTVZ2VwQE2AClkNg9uzZ+PPPP1GpUiXs2bPHcirONY0yARb0UUZlGQnpRztbtmz4/PmzfDq8e/cunMVrHw5MgAlYHwHyMETeVSjQ9rRp06wPAreYCVg5AZq7kDlzZjx48ECS8Pb2RokSJaycivqaz4JeZX2qjM4rzeJReoUEfzIB6yKgjM4HBgbKhpNZGI/SW9c1wK1lAkRAGZ1XaPAovUJCXZ8s6FXUn7qj80qzyNMKj9IrNPiTCVgPAd3ReaXVPEqvkOBPJmAdBMKOziut5lF6hYR6PlnQq6cvEXZ0Xmkaj9IrJPiTCVgHgbCj80qreZReIcGfTMA6CIQdnVdazaP0Cgn1fLKgV0lfGhqdV5rGo/QKCf5kAtZBwNDovNJyHqVXSPAnE1A3gYhG55VW8yi9QkIdnyzo1dGPEY7OK83jUXqFBH8yAXUTiGh0Xmk1j9IrJPiTCaibQESj80qreZReIaGOTxb0KuhH+gEvWrSo9GyjNIf8/ZMfVCXQKP2ZM2d+ul9U5fz8yQSYwM8hMHz4cMyZM0d7MroXUNC9H3Tu3BnDhg3TpuENJsAE1EWAVistVqyY1rMNtY7uBfRA7+joqG3s7t27kS9fPu0+b1guARb0ltt336154cKFcfLkye+m4YNMgAmonwCtyEkLS7Vv3179jeUWMgEmECGBChUqwMPDQ0/QR5iYD1gcARb0FtdlUaswC/qoceJUTEDtBFjQq72HuX1MIGoEWNBHjZOlpmJBb6k9F0m9WdBHAogPMwErIcCC3ko6mpvJBCIhwII+EkAWfpgFvYV3YETVZ0EfERmOZwLWRYAFvXX1N7eWCUREgAV9RGTUEc+CXh39GK4VLOjDIeEIJmCVBFjQW2W3c6OZQDgCLOjDIVFVBAt6VXXnt8awoP/GgreYgDUTYEFvzb3PbWcC3wiwoP/GQo1bLOjV2KuiTSzoVdqx3CwmYCQBFvRGAuPkTEClBFjQq7RjQ5vFgl6l/cuCXqUdy81iAkYSYEFvJDBOzgRUSoAFvUo7NrRZLOhV2r8s6FXasdwsJmAkARb0RgLj5ExApQRY0Ku0Y0ObxYJepf3Lgl6lHcvNYgJGEmBBbyQwTs4EVEqABb1KOza0WSzoVdq/LOhV2rHcLCZgJAEW9EYC4+RMQKUEWNCrtGNDm8WCXqX9y4JepR3LzWICRhJgQW8kME7OBFRKgAW9Sjs2tFks6FXavyzoVdqx3CwmYCQBFvRGAuPkTEClBFjQq7RjQ5vFgl6l/cuCXqUdy81iAkYSYEFvJDBOzgRUSoAFvUo7NrRZLOhV2r8s6FXasdwsJmAkARb0RgLj5ExApQRY0Ku0Y0ObxYJepf3Lgl6lHcvNYgJGEmBBbyQwTs4EVEqABb1KOza0WSzoVdq/LOhV2rHcLCZgJAEW9EYC4+RMQKUEWNCrtGNDm8WCXqX9y4JepR3LzWICRhJgQW8kME7OBFRKgAW9Sjs2tFks6FXavyzoVdqx3CwmYCQBFvRGAuPkTEClBFjQq7RjQ5vFgl6l/Zs+fXps375dpa3jZjEBJhBVAsuWLcPHjx/RsWPHqGbhdEyACaiQQKNGjeDj4wNHR0cVto6bxIJepddA69atERISotLWcbOYABOIKoENGzYgVqxYqFevXlSzcDomwARUSCAoKAiLFi1CvHjxVNg6bhILer4GmAATYAIqJlCsWDHY2Njg6NGjKm4lN40JMAEmYN0EWNBbd/9z65kAE1A5ARb0Ku9gbh4TYAJMQBBgQc+XARNgAkxAxQRY0Ku4c7lpTIAJMIFQAizo+VJgAkyACaiYAAt6FXcuN40JMAEmEEqABT1fCkyACTABFRNgQa/izuWmMQEmwARCCbCg50uBCTABJqBiAizoVdy53DQmwASYQCgBFvR8KTABJsAEVEyABb2KO5ebxgSYABMIJcCCni8FJsAEmICKCbCgV3HnctOYABNgAqEEWNDzpcAEmAATUDEBFvQq7lxuGhNgAkwglAALer4UmAATYAIqJsCCXsWdy01jAkyACYQSYEHPlwITYAJMQMUEWNCruHO5aUyACTCBUAIs6PlSYAJMgAmomAALehV3LjeNCTABJhBKgAU9XwpMgAkwARUTYEGv4s7lpjEBJsAEQgmwoOdLgQkwASagYgIs6FXcudw0JsAEmEAoARb0fCkwASbABFRMgAW9ijuXm8YEmAATCCXAgp4vBSbABJiAigmwoFdx53LTmAATYAKhBFjQ86XABJgAE1AxARb0Ku5cbhoTYAJMIJQAC3q+FJgAE2ACKibAgl7FnctNYwJMgAmEEmBBz5cCE2ACTEDFBFjQq7hzuWlMgAkwgVACLOj5UmACTIAJqJgAC3oVdy43jQkwASYQSoAFPV8KTIAJMAEVE2BBr+LO5aYxASbABEIJsKDnS4EJMAEmoGICLOhcIdE1AAAAEklEQVRV3LncNCbABJhAKIH/AwAA//95SbV/AAAzAklEQVTtnQe0FEXahgtMoChBjCiKrqIoJkBUDMiqoAtizjmga86umAPmjBGzgnkVzFlQMYIY1oAJE2IAVEABUebvp87/zanbTuph7qVneOuce2emu6q66qkOb1V99XWjTBScggiIgAiIQE0S2GCDDVyjRo3ca6+9VpP1U6VEQAREQAScayRBr9NABERABGqXgAR97bataiYCIiACRkCC3kjoUwREQARqkIAEfQ02qqokAiIgAjECEvQxIPopAiIgArVEQIK+llpTdREBERCB3AQk6HNz0VYREAERqAkCEvQ10YyqhAiIgAgUJCBBXxCPdoqACIhAdROQoK/u9lPpRUAERKAUAg0m6GfPnu2+/vpr/zd16lQ3bdo0xzYFERABERCB+iNwxhln+MzPOeec+juIchYBERABEXCNGzd2zZo1c4suuqhr27at/2NbQ4R6F/QzZ850I0eOdKNGjXK///67rxMu1Jo2beor3hCV1DFEQAREYF4l8PPPP3u3lS1atJhXEajeIiACItAgBBionj59ujOP8AsvvLDr3Lmz69atm1tooYXqtQz1KujHjh3rhg0b5oV8mzZt3GqrrebatWvney4N1WOpV3rKXAREQAREQAREQAREQAT+nwCiHkuUcePGuY8//tiNHz/eIez79u3r2rdvX2+c6k3QMyr/3HPPuebNm7sePXp4IV9vtVDGIiACIiACIiACIiACIpAyAgj7F154wf36669uiy228KP19VHEehH0b7/9tnvkkUe87VCfPn1ckyZN6qPsylMEREAEREAEREAEREAEUk1gxowZ7tFHH/XrSLfddlu33nrrVby8FRf03333nbvllltc69at3W677ebmn3/+ihdaGYqACIiACIiACIiACIhAtRCYNWuWu++++9zEiRPdQQcd5JZZZpmKFr3igv7222/39kL777+/t5WvaGmVmQiIgAiIgAiIgAiIgAhUIYEpU6Y4dDLrSvfbb7+K1qCigv6LL75wd955p9twww3dRhttVNGCKjMREAEREAEREAEREAERqGYCrDF9/fXX3b777lvR9aUVFfTYB40ZM8Ydeuih3i1lNQNX2UVABERABERABERABESgkgRwa3nDDTd4O/revXtXLOuKCvrLLrvM4et4l112qVgBlZEIiIAIiIAIiIAIiIAI1AqB+++/3/3yyy/u+OOPr1iVKibo//jjD3f++ee7Ll26uE033bRiBVRGIiACIiACIiACIiACIlArBEaMGOFfuNq/f3+34IILVqRaFRP0kyZNcgMHDnTdu3d3nTp1qkjhlIkIiIAIiIAIiIAIiIAI1BKB0aNHu+HDh7sjjzzSLb744hWpWsUEPe4qBw0a5Hr27OnWXHPNihROmYiACIiACIiACIiACIhALRF4//333TPPPOP69evnll122YpUTYK+IhiViQiIgAiIgAiIgAiIgAgUJyBBX5yRYoiACIiACIiACIiACIhAaglI0Ke2aVQwERABERABERABERABEShOQIK+OCPFEAEREAEREAEREAEREIHUEpCgT23TqGAiIAIiIAIiIAIiIAIiUJyABH1xRoohAiIgAiIgAiIgAiIgAqklIEGf2qZRwURABERABERABERABESgOAEJ+uKMFEMEREAEREAEREAEREAEUktAgj61TaOCiYAIiIAIiIAIiIAIiEBxAhL0xRkphgiIgAg0GIHJkye7n376yU2aNMkfs1mzZm6ppZbyfw1WiAY+EHWt1KvKG7joOpwIiIAIpIKABH0qmkGFEAERmBcJvPXWW+700093K6+8svv555/d6NGj3YQJE3KiaNu2rdtoo43cySef7OPnjFSFGy+66CI3YMAAt88++7hrrrmmCmugIouACIjA3CcgQT/320AlEAERmEcJHHHEEe7OO+9MVPttt93WDR48OFGaNEf+5z//6ejYdOjQwb3++utpLqrKJgIiIAKpJSBBn9qmUcFEQARqncBhhx32N3Herl07t+KKK7rWrVu7qVOnus8++8x99dVXbtasWR4HI/SnnnpqzaDp2LGjr98666zjXnrppZqplyoiAiIgAg1JQIK+IWnrWCIgAiIQEDj77LPdZZdd5rf079/fHXzwwTltyf/880/39ddfuxkzZviR7CCLqv+63HLLuSlTprhNN93UPfbYY1VfH1VABERABOYGAQn6uUFdxxQBERCBiAA24wh5ws033+x22WUX/31e+teiRQs3e/Zs16dPHzdkyJB5qeqqqwiIgAhUjIAEfcVQKiMREAERSEbg6quvdqeddppPdNttt7kdd9wxWQZVHnv69OlZ7z1aFFvljanii4AIzFUCEvRzFb8OLgIiMC8TuPjii915553nEdx9992ud+/eJeP47bff3F577eVHt+kMtGrVytvZY4f+/PPPe084vXr1cm3atCmY50cffeSeeuopt8QSS7hOnTq59u3bu8aNGxdMk8lk3BdffOHt/Js3b14wbrhz4sSJ7uOPP3ZNmzZ1a621lje1Yc0A4ZhjjnHnnHNOGD37neONHTvWffvtt97kaNlll83ui3/hGLj6bNKkSXbXtGnT3DvvvOM9CDETEO7LRtIXERABEahiAhL0Vdx4KroIiEB1E8Bl5VVXXeUr8cgjj7ju3buXXKHHH3/c7b777j7+jTfe6AXydttt53744YdsHvivHzFihMslgPF3v8MOO7i33347G58v+INn4e2hhx5aZzs/Xn31VXfFFVe4N99807vZRPivvfba7qyzznKbb7753+KzATHOTARlRJBbWHTRRX2H5Prrr/eb6NgcddRRttt/smbguOOOc9QVt54Wll9+eW9zf8EFFzhMdix88MEHbpNNNvH1RcDTeTj66KO9O1DMeghLL720e+WVV9ySSy5pyfQpAiIgAlVPQIK+6ptQFRABEahWAohNRtcJCO9VVlnFff/9916U8/njjz/637xoCkHKollG0QmMqpvNPaY6w4cPz76Mykf4/38777yzu+WWW8JNfnEtI9VvvPFGne3hj2HDhtUR6Y8++qg78MADfdowHt8ZcWf/+uuvX2cXI+P77ruve/bZZ+tsz/UDYb/nnntmdyHgqV+hMq6xxhq+k9GoUSOf7t5773X9+vXz3/fYYw/34IMPuj/++CObp33BVp/6K4iACIhArRCQoK+VllQ9REAEqo7A3nvv7RDOpYYNN9zQPf300z46Ah6f9PGAuO/atas3X0FQY4rz5Zdf1omG6EX8Eugg4AazZcuWXngzAo9tO/7xGfEn0Nng+19//eV/Y9LSuXNn9+mnn7rx48f7bSussIJ77733nIlrNoYzEIyI77TTTt4l54cffuieeOIJ32HxiaN/cZOj3Xbbzcdh/6qrruqFOq48v/nmGzdo0CD/yb6RI0c6XF8S7rjjDnfkkUf67+E/XGJuttlm2dmQE044wZ1xxhlhFH0XAREQgaomIEFf1c2nwouACFQzAfPBXmodwoWjuQR96KM+FMSM9i+88ML+MNiiM5KOKQymOAhizGws4POeP9xIWth66619PH7zIig6AwsttJAfrd9+++2z+xDpG2+8sU9GJwLRzwh5ly5d3H333edt7i1P9mNihOkPIZwRwHSGt+JSRvJg9H+RRRbx8Zi1wBzoueee878Zhd9qq63895tuuskdf/zx/jv/SIupDzMfkyZNcmavzwu9zj///Gw8fREBERCBaicgQV/tLajyi4AIVC0B7L3fffddX35GnxnF5o8Fqti/h7+XWWYZt+aaa2brGtrQs5F92LhbOPHEE72Y5TcCGbtzwiGHHOLuuece//2BBx5wPXv29N/z/cPGHuFNII9Ro0Z5Exu/IfoXdizCDsVFF13kBgwY4KMRZ7311rMk2U9MgY499lj/+5lnnnEbbLCB/3744Ye7u+66yy/OZZEvC2h5ydbAgQP9HwuCCQj2J5980ncu+M3IPaPvBMrKm2ex1Scwu4Cg/+WXX7yZ07zmUchD0D8REIGaJSBBX7NNq4qJgAiknQCC9JNPPvECOVzMWkq5MVEJF67eeuut3qTF0uLfHj/3BDoNiFlELYtCZ86c6VZfffWC9umWDzb+2PoTcLF50kkn2S7/yRts6Ywwmo69PKKbgL0/o/L/+Mc//rbw1keI/oV1QLhjGkNgdoBFrYzSDx482F133XVerPMCKgurrbaaH9Wno2MhFPS53IAyOwFnOlKhaZCl16cIiIAIVCsBCfpqbTmVWwREoOoJsKgTm3AEMW4gk4Rrr73WnXLKKT7Jiiuu6MaMGePmm2++bBZ4h+FlVQRs24nz2WefZUfKzz333KxQzybK8QVXkpdeeqnfg+kLtujxgKhm1By3m4h0Qo8ePfxoPt5v8q0TYBSe0XjCiy++mF3w27ZtWz+SzmJbAjb9FqgHMwG77rqrm3/++W2z/wwFPbMV4YxGnYj6IQIiIAI1RkCCvsYaVNURARGoHgIs9sS+HVt2XCwmCZizYNZCwJ99OFrPtlDQY3rSoUMHb56CECY89NBDbosttvDfC/3DPzyj/wTcPWL+EoZw1H///ffPLjxlYS4+7ksV9HjtYUT+999/97MI4TH4zowCdcJUJi7kLW4o6MPFsrZfnyIgAiJQqwQk6Gu1ZVUvERCB1BOwRbHYyjN6niQwSm0+3LGnx4wkDPiGv/zyy/2moUOH+hFzRC4LXAlxEx2/Mce/cCYA85e4Zx0eIt26dfMp6WSYlxnMbx5++GHvPQevNraoNTxE6GYy9MNvI/TExSyJha7bbLNNTjMZOhQ2MxEK+lydj/DY+i4CIiACtURAgr6WWlN1EQERqCoCeIx56623vAcaRuqThHDk/LXXXnOY74ThyiuvzLpmvOGGGxx+2bFBX2655Xw0Froi9ONvhf3zzz/d559/7t8YS0Rs2+0NtnQa6DyEAVeULGglhAtbw7fghrb1lhaXmvvtt182LS4n8ZhD4HgcF6GOm864f3viYLPPy6jocODJpm/fvnUWxb788sv+pVfEVRABERCBWicgQV/rLaz6iYAIpJYAb3o1gcwotontUgqMNxdGpAm5RqPD0e8zzzwz684RrzZ0AAiYr2Ajj0cYxD5lwZ0jbittASz26/iqt7e88rIn3ujKW1zxWW/lD33kkzcvw8JdpbmlxLyHdMxGsOAVu/xwVoK3vpo9Pbb/mNcQsKNnNgJzHGziJ0yY4NPjIce8+uDRB5/34Qh9uMjWZ6R/IiACIlDDBCToa7hxVTUREIF0EwgXnK600kp+wSoCllFyvMfwiR93PLPglQWTFoQzAeF94YUX+u+PPfZYHb/xbETs9urVy+/nRVK2sBX/74hjRsgtNG/e3LuF5G20FjCdMbeTjLwzEp8vNGnSxGEyY24nLR4+4g844AD7WfAz7hsen/vMIBQLlB1Xmrj5lKAvRkv7RUAEapWABH2ttqzqJQIikHoCCHXs6BntLiWEL5bClzw+5Qm5/LxjwsOiWwIvmbLRfH5jS49gD0fI2U6g48DMwSWXXJL14c52zHZ4u2q8rC1atPDuKa2jQdwwPP/88w6xbm+UDfdhJsNDCA8/5G0+5InD4ljWAGBSY37nw7S82Iq312J2g5gnhG+KtYXAYRp9FwEREIFaJSBBX6stq3qJgAhUBQFsxBltx7UkCzzzBd70yptQ+/Tp46NgCoPY5cVJJuzjaVlMyug1+dvCVYvDyD+dAo6LoG7ZsqVfOItXmjZt2li0Op/4zGfUHO81CGpEPKY0+eJbYgT5m2++6cU7b3rFNz128XjewYSGMuDmcoEFFrAk2c+JEyd6f/njxo3zZjzUl9mMLbfcsk6HgwSYBeHtBzeadGDkaz6LUV9EQARqnIAEfY03sKonAiJQHQQY+UaQYgrDi59wzcii0AUXXNC1atXKvz3WvLlUR41UShEQAREQgYYiIEHfUKR1HBEQAREQAREQAREQARGoBwIS9PUAVVmKgAiIgAiIgAiIgAiIQEMRkKBvKNI6jgiIgAiIgAiIgAiIgAjUAwEJ+nqAqixFQAREQAREQAREQAREoKEISNA3FGkdRwREQAREQAREQAREQATqgYAEfT1AVZYiIAIiIAIiIAIiIAIi0FAEJOgbirSOIwIiIAIiIAIiIAIiIAL1QECCvh6gKksREAEREAEREAEREAERaCgCEvQNRVrHEQEREAEREAEREAEREIF6ICBBXw9QlaUIiIAIiIAIiIAIiIAINBSBqhD0W221levYsWNDMdFxREAEREAEREAEREAERKBqCKRa0E+ePNldffXVbrPNNnOdO3euGqgqqAiIgAiIgAiIgAiIgAg0FIFRo0a5ESNGuKOPPtq1bNmyIodtlIlCJXKaNWuWGzBggOvUqZPr3r17JbJUHiIgAiIgAiIgAiIgAiJQUwSGDx/uRo8e7U499VS3wAILVKRuFRP0lOaqq65yTZo0cXvssUdFCqdMREAEREAEREAEREAERKCWCAwZMsTNnDnTj9BXql4VFfRPPfWUe+ONN1y/fv1cs2bNKlVG5SMCIiACIiACIiACIiACVU9g6tSp7qabbnJdu3Z1vXr1qlh9Kirox48f7wu57rrruh49elSskMpIBERABERABERABERABKqdwAsvvODGjBnjDj74YNemTZuKVaeigp5S3Xvvve7TTz91e+21l2vdunXFCqqMREAEREAEREAEREAERKBaCUycONHdddddrn379m7XXXetaDUqLugnTZrkBg0a5Jo2bept6flUEAEREAEREAEREAEREIF5lcD06dMdtvMzZszwpumLL754RVFUXNBTuk8++cTdc889jsJut912rnnz5hUttDITAREQAREQAREQAREQgWog8Ouvv7qhQ4c6Br133313t+qqq1a82PUi6CklTvOHDRvm3fF069bNv2yqcePGFa+AMhQBERABERABERABERCBtBGYPXu218MjR450uHfv27dvvb18td4EPVB/++039/TTT/vKNGrUyBv/t2vXzi222GJukUUWcWxTEAEREAEREAEREAEREIFqJ8CrndC+U6ZMcePGjXM4i2Fbx44dXc+ePb32ra861qugt0JPmDDB8VassWPHumnTptlmfYqACIiACIiACIiACIhAzRHAfTuLX7t06eKWXnrpeq9fgwh6qwW9lMmTJ/ueCz0YpiIUREAEREAEREAEREAERKDaCWBajgUKliitWrVqUEuUBhX01d5QKr8IiIAIiIAIiIAIiIAIpI2ABH3aWkTlEQEREAEREAEREAEREIEEBCToE8BSVBEQAREQAREQAREQARFIGwEJ+rS1iMojAiIgAiIgAiIgAiIgAgkISNAngKWoIiACIiACIiACIiACIpA2AhL0aWsRlUcEREAEREAEREAEREAEEhCQoE8AS1FFQAREQAREQAREQAREIG0EJOjT1iIqjwiIgAiIgAiIgAiIgAgkICBBnwCWooqACIiACIiACIiACIhA2ghI0KetRVQeERABERABERABERABEUhAQII+ASxFFQEREAEREAEREAEREIG0EZCgT1uLqDwiIAIiIAIiIAIiIAIikICABH0CWIoqAiIgAiIgAiIgAiIgAmkjIEGfthZReURABERABERABERABEQgAQEJ+gSwFFUEREAEREAEREAEREAE0kZAgj5tLaLyiIAIiIAIiIAIiIAIiEACAhL0CWApqgiIgAiIgAiIgAiIgAikjYAEfdpaROURAREQAREQAREQAREQgQQEJOgTwFJUERABERABERABERABEUgbAQn6tLWIyiMCIiACIiACIiACIiACCQhI0CeApagiIAIiIAIiIAIiIAIikDYCEvRpa5F5vDx//vmnu/DCC93888/v/vOf/5RM47fffnN9+vRxN910k1t55ZVLTkfEmTNnus8//zxRGiIvsMACbpVVVkmcrtwE3333na/fzTff7PbYYw930UUXZbP673//64488kjXo0cPN3jw4Oz2Yl/++usvt+WWW7ovvvjCDRkyxHXr1q1Ykrm6/8MPP3Q33HCDr+PAgQPdnnvuWbA8P/30k+MvDMsuu6xr0aJFuKngd84NzpEwrLDCCm6RRRYJN5X8PWkdwozLbecwj4b6/u6777rrr7/e3XPPPf5vm222KevQ48ePd7/++mvetG3btnXNmjXLu78ad6Txupw+fbobN25cHZxJ74FTpkxx3377bZ08Fl54YbfiiivW2TanP2bPnu2efPJJf/4988wz7ueffy7rep0xY4a7//77fT6TJ092Y8eOndOiKb0I1B+BjIIIpIRAJAAy66yzTiYSlZnoBpy4VJEgzbRq1SoTifpEad94441MdIUl/mvdunWi48xJ5DPOOCMz33zzZct4wgkn1Mlup5128vsaNWqUiR6adfYV+vHBBx/kzbNQurmxz+pobXXXXXcVLUbU6cmsu+662TqSdtdddy2aziJEAqYO96ijmenbt2/mo48+siiJPsupQ3gAS5+0ncM8GuL71ltvXYf5ww8/XPZhb7vttkzXrl3r5Ec7rrTSSpntttsuE3W4ys47rQnTeF1+9tlnmahTlmnZsmW2LTgPow5qyRgPPPDAbFrasF27dpmLL7645PSlRPz6668zUYe7znGmTZtWStI6cV566aU6dY0Giurs1w8RSBsBl7YCqTzzJoEvv/wyg0DmgfH777+XDeHZZ5/NLLjggpnDDz+85Dyef/55f/PfYIMNMgiP119/PTNmzJjMzjvvnH0oPPLII37b8OHDM5deeqm/0Tdp0qTkY8xpxEmTJmV+/PHHTDQq7MsUF/SvvPKK7widffbZOQ81a9asTDS6m3PfYYcdltl8880TPZhzZlTPG6OR9kzY+SpF0FuRdtlll2xb0jEqVQQeddRR2XSNGzfOIGrmJJRSh0JtVaydi5WtUN7F0ibZP3HixMwLL7yQZTcngt6Oy3VnnblNNtkkE82a2K6a/EzrdYmAt3bgc//99y+J/4QJEzILLbRQNi3popmIktImiUSe3C9POeWU7LHKEfTR6Hzml19+yfzrX//y+UjQJ2kFxZ0bBCTo5wZ1HbMOAQQ8o6ht2rTJ/PHHH3X2lfPjtNNO8zfgUkfqhw4dmommfDPcwMNw4oknZh8In376abjLi34eZpGJUJ3t9f1j9dVX92WKC/pix0X8brbZZsWipX4/bWRiIomgj8xzsulIj1gqFqIp9mwHijRLLbVUsSQl7S9Wh/psq/rMO155RL21VSUEfdhBOP300+OH0+8GJLD44otn25YBlMiMpujR+/fvn03DeRGZYxVNMycR7rvvvuzxyhH0duzI9NPnI0FvRPSZVgIS9GltmXmoXAcccIC/YSLEKxEiW89MZFfrR4MwmSgWEDmMxMZDIUFP3DXWWCMzderUeLJ6/b322mt7VkkEfWR/nIls/WtC0Ee2sdmHdBJBbw/3yNbap2/atKmf8SjUWAMGDPBxMbNBgKwQTeNXIhSqQ322VX3mnYsLpl+VFPTh7Mz555+f65Da1kAEGFhAyFv7Hn/88QWPzH0SU53I5j6bBlOq+gx0Iq18cyLoMXckHwn6+mwt5V0JAhL0laCoPMomgL0jJhCYM5QivksdET/22GP9TZjOQrFAB4C/eCgm6OMPCcwZLBSaSi61DpYX8RGBhPXWW8/XK5+gj5shUCbMmHggFRqh5xiFymxlKfUzPtNSat6lsLGHdDmC/tRTT/UsyKPQKC+j6EsvvXQGW3Czwa+UoIdhrjqU2lakj7cz2wqFJHlzrpXTXqQJ03F9WD0rMUIfCvoLLrigUHWL7oufn4USlHJOkr7Y9c9+u46JH37nd65Q6LosJz87Rql1svjxTwT9IYcckrGR+kUXXbTguqcrr7zSnwvh9Vdfgt7aFjNJO//i9+p4fcK2i+8766yzfD4S9HEy+p02AhL0aWuReaw8Zue41VZb5a35yJEjMz179swsscQSGRZhMdq8++67Z0aPHp03zdNPP+1vwoyu0mkoJxQT9OSJWQYPKx5w2PVi577PPvtksK/v1atX9iGftA487LEZJk/y4oHJYszIQ4uvVyjoGQmNPL/4BcWh6Pzkk0+yYpQHGw/fbbfd1v+NGDHCIxk1alTmoIMO8qYluR6wkfegzLXXXuuP3bx5c58H9coVF7vVyy+/PNO+fXtvz88BMHvaaKON/MjcxhtvnHnttdf8ccN/SdnYQ7ocQc+5sNhii3mGLKDO96Cn3BznxRdfzDIM2bJomwWZxpNPO8/gHm6PPBKF1fXf43Uopa3ytfPfMo9tKCVvOLD+gmuLkVdsnWk3tuUSnrBfbbXVfGd8ySWXzGyxxRZ+xmrYsGHZo+cT9Izmhnz4ztqXYmFOBT38Ik9QvpwMInA99O7dO/Pxxx//7dClnpOlXP9ca5wDMKWekUepDItDWTNEp/GYY475G+NC12U5+VFBRsm5b3B9MoCy6qqr+pnJRx99NMPaDP7ee++9v7HItYH73XHHHZc588wz/XXC+Zxv1gSxzLXDgALnh537ue4hHCvJPcfKhl0/jDkOzwjE9w477JA9Vq7rPPKC489b7gM8Jzp06ODvuWGnlPwl6I2yPtNOQII+7S1Uw+VjVJyHGjf4fOY23Kh5ECJoH3vssQyLUhH3pEHgf/PNNzkJkTc3duIhSMsJxQT9vffem8F0wx5Q66+/fiZyAZn9zXY8JSStA6PDeGIhPWXAfv/BBx/MIKjtWCbon3vuOc/GtvNAs8DCXh6ylIv98OI3f3SG4p5I4g9YOieMTsMRTxRvvfVW5rrrrsvW+eCDD86OFMOCjoeVAzFoC0ppO9vOWgWElYWkbEhneZUj6Dk27CyPK664woqS/UTAIlY7d+7st+UboR8XmXPtt99+2bzwTEJg9JzzdK211vL7MDWIBzu+1aFYWxVq53je8d/F8iY+nVDKtNdee2Xeeecd30k18yQ63WEw8yXOzciNX+buu+/OzhyVIujxZsWxML9AECIibVQ1PE78+5wIeq4hRB5t+sQTT2SoA6KUcnANw8hCqedkKdc/HSRraz4535ZZZhl/rZgpF9uvvvpqO3zB6xIvYEnzI2PMrRDypGUAgvvj448/XscEhn2lrhMxQc89wu6BpOXeFQ+R21J/XO7fxQR9knuOHYe1FZEbWt++ODh4//33/YBPyCku6Jmd47lyzjnn+Gs1vCfstttulrX/lKCvg0M/UkxAgj7FjVPrRUMg2k033wIpE5377rtvFgfeEixdXIRmI0VfGHkhHl4KygnFBD0jSTwYGXm28jDTgDigvHjJ4QGXtA4nn3yyzy/ysV6n2DyA7Tgm6MmfRcWRD36/LxT0lpipcdIxQhYGPDgg7C3POEsb4cKGNAwPPPBANs15553nd1EGWFjngTzxGsToMCNedATsOKG3naRsOJjlY2I4LFu+7yZCEfQs4DNbXtZaxKfbbaqeNIR8gp59CHcrjwl6thMQC+xDbMSDpYnXIV9bldLO8WPEf+fLOxTKeJuycOihh/ryx88pZo3o5IXeqKJ3JPiOZTFBzywOZmOMTDMKnSSE5UxqcsMgAG3OvcMCdTWvUZyrFko9J0u5/n/44Qc/EGHtzScDDFwrHL9Tp06ecceOHe3w3rNKvuuSaxZhnCQ/Mj7iiCN8Glx9hgFPM+RFZ5+OXKlenEzQkxcLzK08N954Y5i9/057s96IjnIxQZ/knkPmdAAYMGDGJZxpwaSINrVyhYKe2Re2M1sTBjyjWfynnnoqu0uCPotCX1JOQII+5Q1Uy8WLXtiRvYGGQiCss93g4w9wM5tgtClfYJSVGzTec8oJxQS95WlCCeGWy9tDkjow42AjXvGHKw8p66SYoLcymOlSXHyx38oXF/TsYzTZHmKhoMeto20PRR5peDCvueaafj8PU7yZWDCBAPtwtI40VvZwVDwJGzuGlSsuhm1/rs9Q0LOfDpflc+edd9ZJgmBF+JidcSFB//bbb2fziQt6hBvHKGWE3gpQqK2IU6idLY98n/nyZoSccnJNhbb5mE+xPd4hwXc42xldD80TYIr5hoW4yQ0mSQhB2MbPbUtT6LNcQW/ecTj/v/rqqzp/NotCfRjFJiQ9J41rvuufY5I/f3fccUedKl511VV+O7NvYch3XRKnnPyYneD4zKqFIRTYZjIW7s/3PRT0tCUmPOTPjER4TphLYLu3hMezbXaMcu451lFhZike7PylXKGg33TTTX1ZoxdO1TkXKA9x+WMNlgUJeiOhz7QTkKBPewvVcPl46Y/dQBmtzxWwVWa0xIQGo3o8lGy6GjvzfMFu3MRFUCYNpQp6e6iEo3zhsZLUAXMYmMRFlOWXb1Ests6kSyroyddMk8IH7C233OLzYwQzFztb5MYxGTG0YKO6vBwsHhABxMcNnIUkbCwNefA3J4KeaXmrN50TqyPvICDva665xg5XcIS+oQV9oXbOFjjPFxOeuTp21BvzGQKjwMyoWHthehOG8OVAXGNvvvmm301bWieIDaGgx2PQ8ssv7+22Gc0vJ5Qr6O0+g+hkDUr4h/mL/baXhSU9J4td/99//70/pziv4msFrKPJvrADDB87P8Prku3l5GemjayXCUM4S8rMVKkhFPSkCd/ZwQyeBdbbwNfu34UEfdJ7Dh0HG/zINbBjM22wNUHPdR69mda3h7W7fYbnQshJgt5aU59pJyBBn/YWquHyhVOchV70w02YBx/T04wIk87sewsJ+h133DH7IGWqP2koVdAzdctDI5+g57il1gEzG/JCZOYK+QT9ueee69OVI+iZruaYoXDYe++98+ZHucJp/7ANbPo9l6A3l5uYFIWhVDaWhrLyNyeCnrzM+w95Yc5E4E2sLJbEnMJCmkboc7UzZiSMrnNNxP9Cf/uFBD11ZXaJdQ8Ini5duviF0LCJC3o6MebdxNoC4RafoQgFvcVjDUU51yLlK1fQI844Pp2KUkOSc7LY9Y9ZiNU/LuhD14qY4YQh13XJ/nLysxercQ2GwZwHUL5865HC+PY9Lujp1FkdOXcIdJrZRofKQiFBn/Sew7oIOyZrjOIhl6DnHCcN9vO0cSlBgr4USoqTBgIS9GlohXm0DOFCpHweaxjZsQWieLbBqwSBURVuzKGYjGNEnBGHB2PcTjoeN9fvSgn6JHUwu898ZkLFBD2CKR6KCTkTDrfffns2KWYn9uDLbgy+mJkGcfCwY8EEPesK4iGXoE/CxvLjmPzNqaAP7d8ZaTbTAUxJwpBGQR+2M6YSxiT+yWi6hULnASzMi5F1bgYNGuTzjQt68sNTC15+wuPR2Q69GIWCHpMIi8s6k9Asw8pX7LNcQW8mNKW4sKUMSc/JJIKexc1hKEXQh9claUNBX2p+mJeY33gW8xLoQOA5i3bBXCpJiAt60nbv3j3bxpg5kScdTWZ8LBQS9EnvOczc2jmV6yWCuQR9eN/CdKmUIEFfCiXFSQMBCfo0tMI8WgbEuN2QcSGWK5hHm1CYEM8E/SWXXJIrmd/GKDH55xq1zpso2FEpQZ+kDvaAxTwgHCW2Ypmgj7/IxUZuQ6FnaQoJOeLkEvRmCw8/xFs8hA/G//3vf9ndSQV9EjZ2EDtn5lTQkx+jiZYfbJnCRzCFYU4Ffdw+mrztmPE6FGurXO2MmQtiFzEd/wtnvvLljZhnxJJFo6Ftez5BH8Z5+eWX6yyEDhddhoIe4XrSSSdl6x2aXYWsC31PKuhZ3Ip5ig0cYMaWb3YALzMm8JKek9Ug6OFqs2pc78xO4W4Uc0TsxcMFzoXawPblEvThon1mGDmf4mt9Cgn6pPccnA/YdRSf9aOcoaC3FwDyaWniHXerGwuZ8eplQYLeSOgz7QQk6NPeQjVcvnBRbHyxGNVmCthuvjZqaDhM0IfTubbPPm3xHiNH5QQTApSB6d18odADPWkdzMMNxwwXj9qxTdAfffTRtsl/5hJ6FsGEHK4kc4Vcgh6vQ8bePNmEaW10jIWu4dR1EkGflI0d38oVF8O2P9en2SrbwkeLE3rsId9///vftiv7aYIejzjxQGfHyvPqq6/W2Y0dPvtyjXBbmngdirVVoXauc/AcP/LlbTbxZiphSU3Q08kJAwueEcoW6FCEI/AmjOOCnng9evTI8splJmF55voMBX0x8xnOT/Mcc/PNN2ePyfqb8HzlOJSXhct4QCrnnCx0/ZN/OSPqpMt1XZabH22x4YYb+ndj4M0GYY23F5vxJN8kAUEfLhwlLVxtsTznN4I+7iRg6NCh2ba49dZb6xwy6T2HAQ9bZ4DXpHinJBT0rIuwwOwn5WN9UOgZx/azJiLscErQGxl9pp2ABH3aW6iGy4d3FPOOkMt0hputCR9Gyy0wZWzp8CfMYjZeABQPjDqSnoWa5QQTp+QR+qmO54UIJA4eHuIhaR0Y+bYHOa7kQrtkBAezDRwr7iuZBxDbSRMPNtPA9DcPXUZtzUyGaXfS8Rf662e7PfhYzBgf2TRxiGvGMJg4zLWeANd1HIcHJiEpG9LwELfyWh3YXiwgHkg3fvz4OlERmeYBhHMqHH22iLyAh7R0XuIB8wwTFeE5zKi3mTiwH0FloVAdCrUV6Qu1s+Wf7zNf3piyUT+uF2tnRinNhAIu+Ik317Kc53FXppyn5MG7CMzrEXmwjb8hQ4b4YiFul1tuOb8NQYW4LDWYxxTy49rMFxD+dPitjJh8MBptZcFUCJtv1h5wXlAfFnUSyjknC13/5Bl2EuhohCEc1DBu7M93XbKvnPxsoIBF1Yh4zvs5CXRu4x5zyA/zIOPMuw3igXcW2P7Q9z7xyrnn2NoA8uS+EnbWzIMQ+2hXC3hMszIwe8Y5wEJtZrc4r7j/ch+2YNcNnYZ4wFSUd1EkuRfF89BvEagUAQn6SpFUPmURYNSYm2s++9bwRSrY3mJGw4I8826AgOVGy2hTGEJPEOaFI9xf7DuuGsPRJkYEc9n98gCxOvAgME8hYf5J68CbI+2Bg5kArgoxLTJhyT7EF77nH3roIX8oFiWyHfEYF634hrb84MfDGBtXgnl1YX+/fv38NvuHGZR5hEDcmVs7RrU5ftxPPl46zISFl8zYNDf5IRTpUHAc7NUtJGXDKLjVhU5FKYHRObOjZtQ5fOiT3nzks+YiHnh7pnlU4riYmMQDLytiHyOSvPV0++2398LWBDH7OEfMbKxQHQq1Fcct1M7xcsV/58s7HDWl3egs0nmhI2eseSmRvc8BAcy5Htp2G8PwBXHhgsvw5VRm+kHeeBbhHCwWOJcQkFYeBPpll13mxRhuRxFvzGghrqy9WLxrgTiWNv7J/ST0T5/knCzl+ucatWOGphyUDV62jw6LhULXZTn5hTMjdjzOV9Y90MHivOUleKUEBk/o5DED8tNPP9VJQsfPBgJYFBsGOlacW3Z8zAvDji5xk95zuCfZfYV8eWMx54IthLZjMbPJdUngPsUMg+2Lf/bv39/Hs388d4hDneP3VvOkxn133LhxlkSfIjBXCEjQzxXsOqgRsActI2q5Ara3Jiq5qXJzZYTKRC/CA0ESDwMHDvQ3YV50lDTwtlcbJQ9v9oiP0DSIh0/c2wdCl8VgYUhaB0QCI99hGfhOp8LEBq4HMSNhZBSBFZaTTkBokoAY6tq1q4+DacGFF17oi8eUOQ/0MC0PuvAhTWfIRrCJx8OTtmLWI3Szx6gobRHmRWcLkyjMRBgJC/dhDsWsRxI22GDHy0snJxx9C7nznRmc8PyhDHRoOK4FpuopK3WwwDlmJlthufkOo/ClSAiX8DzgOyZi5ocegcO0PWKgWB3ytRUdxWLtbGXP95kvb0QY55PVk/OHjg/lNXaIeVvTQTnsrcCcG/YGUjpNFoeOI9eC5cn5ywwNwjkUdexHgGPWxGxHrsA5hPi0vEr5ZCYrHjAzCduJfPBDHz9/Sj0nS7n+zWuVlRkODBTwNlrOI5vdYT+s6VQXui7LyQ8OdEzD+4mVJ/7J4tl8gZfExYUw7cJahTAw+BDfxv0MQRw/HrM08dmWUu85dkzaz2b/LH86G5SD39yXMJ8M15PQuTCnCZYGPpgX2sAN8cNBFOJxH+PZY8Hs/rkvcn0piMDcJNCIg0cnqoIIzBUC0c3TRQ84F92UXTT97iJPKH8rR2Rq4iJB4yKB5SJ/ytn9kZh1kbhwkWlDdpt9IZ9o2tQNHjzYRQ9B2zzXPsupA2mih5svc9QxcdFDw0Wjni4aUXPRAyxxXSJ7bxeJSxcJrcRpI3Hnoull3wbRwzJx+kIJymFTKL+5sS8yYXAjRoxwkShz0Yi9i4SOi9ZduEgUuGjU0EWiNVGx5qStih0oV948BiJzIxd10lyHDh1cJG58NtHshqN9IoGczZZ4kZB3kTj31y37OSfYlvZAO3HfoF0iceqizoiLhObfil0L52RYqWhmwEUzGC4S9n5zZHbjos6X/6ONub9GJmMuGql30UBBmHSufU9yz+H8pQ5RR8mfv7RrZEbjoo63ixY5u6gDmrMe0eCFj8M9MRrFd1FnNme8fBs5nyJTHf8cimaK80XTdhFoEAIS9A2CWQcpRCDyzewiUwIXTcG6aDq5UNSS9iGCoxFp17t3bxctjHLRKFhJ6RRJBERABGqNQGTK46JZRxfZebtoBiBv9SKTMIfQj2Yo8sbRDhEQgfQSkKBPb9vMUyVjBClauOUFeGQbXnbdI/MB3zGI7BldZELhoinSsvNSQhEQARGodgLMGDG7hmCPPP7krA6zFtGaDxethXDRAuGccbRRBEQg3QQk6NPdPvNU6SJba3f55Ze7yIuNnyZNWvlogZWLFj65yOuNi1644iL3ekmzUHwREAERqCkCkVcfF60f8HXCnArBHq0jcdF6FBd5HfImI9FCdxfZsnuznJqqvCojAvMQAQn6eaixq6GqkXcHFy00cpEHCxe9/KTkIjMyH71p0NvyklYj8yWjU0QREIEaJhC5D3WR5xYXuQ510cLjv9U0WvjpogXcfq3H33ZqgwiIQNUQkKCvmqaadwrKSDsLWiNXfyVXmsV8dAaYNlYQAREQARGoS4DReMwQoxdp+cWwOBRgYTCfSRdt181Zv0RABNJAQII+Da2gMoiACIiACIiACIiACIhAmQQk6MsEp2QiIAIiIAIiIAIiIAIikAYCEvRpaAWVQQREQAREQAREQAREQATKJCBBXyY4JRMBERABERABERABERCBNBCQoE9DK6gMIiACIiACIiACIiACIlAmAQn6MsEpmQiIgAiIgAiIgAiIgAikgYAEfRpaQWUQAREQAREQAREQAREQgTIJSNCXCU7JREAEREAEREAEREAERCANBCTo09AKKoMIiIAIiIAIiIAIiIAIlElAgr5McEomAiIgAiIgAiIgAiIgAmkgIEGfhlZQGURABERABERABERABESgTAIS9GWCUzIREAEREAEREAEREAERSAMBCfo0tILKIAIiIAIiIAIiIAIiIAJlEvg/U0ooTUXfGUgAAAAASUVORK5CYII=;imageBorder=default;" parent="1" vertex="1">
          <mxGeometry x="41" y="130" width="286.36" height="100" as="geometry" />
        </mxCell>
        <mxCell id="_6upnzTkpWK8pY87iuGv-3" value="" style="shape=image;verticalLabelPosition=bottom;labelBackgroundColor=default;verticalAlign=top;aspect=fixed;imageAspect=0;image=data:image/png,iVBORw0KGgoAAAANSUhEUgAAArAAAAGuCAYAAABocDXAAAAMTWlDQ1BJQ0MgUHJvZmlsZQAASImVVwdYU8kWnltSIQQIREBK6E0QkRJASggt9I4gKiEJEEqMCUHFji6u4FoRESwrugqi2AERG+qqK4tidy2LBYWVdXFd7MqbEECXfeV7831z57//nPnnnDNzywBA7+RLpbmoJgB5knxZbLA/a3JyCovUDagAB0zgCkz5ArmUEx0dDmAZbv9eXt8EiLK95qDU+mf/fy1aQpFcAAASDXG6UC7Ig/gwAHiLQCrLB4Aohbz5rHypEpdBrCODDkJco8SZKtyixOkqfGXQJj6WC/ETAMjqfL4sEwCNPsizCgSZUIcOowVOEqFYArEfxD55eTOEEC+C2AbawDnpSn12+lc6mX/TTB/R5PMzR7AqlsFCDhDLpbn8Of9nOv53yctVDM9hDat6liwkVhkzzNuTnBlhSqwO8VtJemQUxNoAoLhYOGivxMwsRUiCyh61Eci5MGdwnQE6SZ4bxxviY4X8gDCIDSHOkORGhg/ZFGWIg5Q2MH9ohTifFw+xHsQ1Inlg3JDNKdmM2OF5b2bIuJwhvpsvG/RBqf9ZkZPAUelj2lki3pA+5liYFZ8EMRXigAJxYiTEGhBHynPiwoZsUguzuJHDNjJFrDIWC4hlIkmwv0ofK8+QBcUO2e/Okw/Hjp3KEvMih/DV/Kz4EFWusCcC/qD/MBasTyThJAzriOSTw4djEYoCAlWx42SRJCFOxeN60nz/WNVY3E6aGz1kj/uLcoOVvBnE8fKCuOGxBflwc6r08WJpfnS8yk+8MpsfGq3yB98PwgEXBAAWUMCaDmaAbCBu723shXeqniDABzKQCUTAYYgZHpE02COB1zhQCH6HSATkI+P8B3tFoADyn0axSk48wqmuDiBjqE+pkgOeQpwHwkAuvFcMKklGPEgETyAj/odHfFgFMIZcWJX9/54fZr8wHMiEDzGK4RlZ9GFLYiAxgBhCDCLa4ga4D+6Fh8OrH6zOOBv3GI7jiz3hKaGD8Ihwg9BJuDNdXCQb5WUE6IT6QUP5Sf86P7gV1HTF/XFvqA6VcSZuABxwFzgPB/eFM7tCljvktzIrrFHaf4vgqxUasqM4UVDKGIofxWb0SA07DdcRFWWuv86Pytf0kXxzR3pGz8/9KvtC2IaNtsS+xQ5h57HT2EWsBWsELOwk1oS1YceVeGTHPRncccOzxQ76kwN1Ru+ZLyurzKTcqc6px+mjqi9fNDtf+TByZ0jnyMSZWfksDvxiiFg8icBxHMvZydkFAOX3R/V6exUz+F1BmG1fuCW/AuB9cmBg4NgXLvQkAAfc4Svh6BfOhg0/LWoAXDgqUMgKVByuvBDgm4MOnz59YAzMgQ2Mxxm4AS/gBwJBKIgC8SAZTIPeZ8F9LgOzwDywGBSDUrAarAeVYCvYDmrAXnAQNIIWcBr8CC6BK+AGuAt3Txd4DvrAa/ABQRASQkMYiD5iglgi9ogzwkZ8kEAkHIlFkpE0JBORIApkHrIEKUXWIpXINqQWOYAcRU4jF5EO5A7yEOlB/kTeoxiqjuqgRqgVOh5loxw0DI1Hp6KZ6Ey0EF2KrkQr0Gp0D9qAnkYvoTfQTvQ52o8BTA1jYqaYA8bGuFgUloJlYDJsAVaClWPVWD3WDNf5GtaJ9WLvcCLOwFm4A9zBIXgCLsBn4gvwFXglXoM34Gfxa/hDvA//TKARDAn2BE8CjzCZkEmYRSgmlBN2Eo4QzsFnqYvwmkgkMonWRHf4LCYTs4lziSuIm4n7iKeIHcTHxH4SiaRPsid5k6JIfFI+qZi0kbSHdJJ0ldRFektWI5uQnclB5BSyhFxELifvJp8gXyU/I3+gaFIsKZ6UKIqQMoeyirKD0ky5TOmifKBqUa2p3tR4ajZ1MbWCWk89R71HfaWmpmam5qEWoyZWW6RWobZf7YLaQ7V36trqdupc9VR1hfpK9V3qp9TvqL+i0WhWND9aCi2ftpJWSztDe0B7q8HQcNTgaQg1FmpUaTRoXNV4QafQLekc+jR6Ib2cfoh+md6rSdG00uRq8jUXaFZpHtW8pdmvxdCaoBWllae1Qmu31kWtbm2StpV2oLZQe6n2du0z2o8ZGMOcwWUIGEsYOxjnGF06RB1rHZ5Otk6pzl6ddp0+XW1dF91E3dm6VbrHdTuZGNOKyWPmMlcxDzJvMt+PMRrDGSMas3xM/ZirY97ojdXz0xPplejt07uh916fpR+on6O/Rr9R/74BbmBnEGMwy2CLwTmD3rE6Y73GCsaWjD049hdD1NDOMNZwruF2wzbDfiNjo2AjqdFGozNGvcZMYz/jbOMy4xPGPSYMEx8TsUmZyUmT31i6LA4rl1XBOsvqMzU0DTFVmG4zbTf9YGZtlmBWZLbP7L451ZxtnmFeZt5q3mdhYhFhMc+izuIXS4ol2zLLcoPlecs3VtZWSVbLrBqtuq31rHnWhdZ11vdsaDa+NjNtqm2u2xJt2bY5tpttr9ihdq52WXZVdpftUXs3e7H9ZvuOcYRxHuMk46rH3XJQd+A4FDjUOTx0ZDqGOxY5Njq+GG8xPmX8mvHnx392cnXKddrhdHeC9oTQCUUTmif86WznLHCucr4+kTYxaOLCiU0TX7rYu4hctrjcdmW4Rrguc211/eTm7iZzq3frcbdwT3Pf5H6LrcOOZq9gX/AgePh7LPRo8Xjn6eaZ73nQ8w8vB68cr91e3ZOsJ4km7Zj02NvMm++9zbvTh+WT5vO9T6evqS/ft9r3kZ+5n9Bvp98zji0nm7OH88LfyV/mf8T/DdeTO597KgALCA4oCWgP1A5MCKwMfBBkFpQZVBfUF+waPDf4VAghJCxkTcgtnhFPwKvl9YW6h84PPRumHhYXVhn2KNwuXBbeHIFGhEasi7gXaRkpiWyMAlG8qHVR96Oto2dGH4shxkTHVMU8jZ0QOy/2fBwjbnrc7rjX8f7xq+LvJtgkKBJaE+mJqYm1iW+SApLWJnVOHj95/uRLyQbJ4uSmFFJKYsrOlP4pgVPWT+lKdU0tTr051Xrq7KkXpxlMy512fDp9On/6oTRCWlLa7rSP/Ch+Nb8/nZe+Kb1PwBVsEDwX+gnLhD0ib9Fa0bMM74y1Gd2Z3pnrMnuyfLPKs3rFXHGl+GV2SPbW7Dc5UTm7cgZyk3L35ZHz0vKOSrQlOZKzM4xnzJ7RIbWXFks7Z3rOXD+zTxYm2ylH5FPlTfk68Ee/TWGj+EbxsMCnoKrg7azEWYdma82WzG6bYzdn+ZxnhUGFP8zF5wrmts4znbd43sP5nPnbFiAL0he0LjRfuHRh16LgRTWLqYtzFv9c5FS0tuivJUlLmpcaLV209PE3wd/UFWsUy4pvLfNatvVb/Fvxt+3LJy7fuPxzibDkp1Kn0vLSjysEK376bsJ3Fd8NrMxY2b7KbdWW1cTVktU31/iuqVmrtbZw7eN1EesaylhlJWV/rZ++/mK5S/nWDdQNig2dFeEVTRstNq7e+LEyq/JGlX/Vvk2Gm5ZverNZuPnqFr8t9VuNtpZuff+9+Pvb24K3NVRbVZdvJ24v2P50R+KO8z+wf6jdabCzdOenXZJdnTWxNWdr3WtrdxvuXlWH1inqevak7rmyN2BvU71D/bZ9zH2l+8F+xf7fDqQduHkw7GDrIfah+sOWhzcdYRwpaUAa5jT0NWY1djYlN3UcDT3a2uzVfOSY47FdLaYtVcd1j686QT2x9MTAycKT/aekp3pPZ55+3Dq99e6ZyWeun405234u7NyFH4N+PHOec/7kBe8LLRc9Lx79if1T4yW3Sw1trm1Hfnb9+Ui7W3vDZffLTVc8rjR3TOo4cdX36ulrAdd+vM67fulG5I2Omwk3b99KvdV5W3i7+07unZe/FPzy4e6ie4R7Jfc175c/MHxQ/avtr/s63TqPPwx42PYo7tHdx4LHz5/In3zsWvqU9rT8mcmz2m7n7paeoJ4rv035reu59PmH3uLftX7f9MLmxeE//P5o65vc1/VS9nLgzxWv9F/t+svlr9b+6P4Hr/Nef3hT8lb/bc079rvz75PeP/sw6yPpY8Un20/Nn8M+3xvIGxiQ8mX8wV8BDCiPNhkA/LkLAFoyAAx4bqROUZ0PBwuiOtMOIvCfsOoMOVjcAKiH//QxvfDv5hYA+3cAYAX16akARNMAiPcA6MSJI3X4LDd47lQWIjwbfB/5KT0vHfybojqTfuX36BYoVV3A6PZfEvWDKm8YvE0AAACKZVhJZk1NACoAAAAIAAQBGgAFAAAAAQAAAD4BGwAFAAAAAQAAAEYBKAADAAAAAQACAACHaQAEAAAAAQAAAE4AAAAAAAAAkAAAAAEAAACQAAAAAQADkoYABwAAABIAAAB4oAIABAAAAAEAAAKwoAMABAAAAAEAAAGuAAAAAEFTQ0lJAAAAU2NyZWVuc2hvdIuW+RwAAAAJcEhZcwAAFiUAABYlAUlSJPAAAAHWaVRYdFhNTDpjb20uYWRvYmUueG1wAAAAAAA8eDp4bXBtZXRhIHhtbG5zOng9ImFkb2JlOm5zOm1ldGEvIiB4OnhtcHRrPSJYTVAgQ29yZSA2LjAuMCI+CiAgIDxyZGY6UkRGIHhtbG5zOnJkZj0iaHR0cDovL3d3dy53My5vcmcvMTk5OS8wMi8yMi1yZGYtc3ludGF4LW5zIyI+CiAgICAgIDxyZGY6RGVzY3JpcHRpb24gcmRmOmFib3V0PSIiCiAgICAgICAgICAgIHhtbG5zOmV4aWY9Imh0dHA6Ly9ucy5hZG9iZS5jb20vZXhpZi8xLjAvIj4KICAgICAgICAgPGV4aWY6UGl4ZWxZRGltZW5zaW9uPjQzMDwvZXhpZjpQaXhlbFlEaW1lbnNpb24+CiAgICAgICAgIDxleGlmOlBpeGVsWERpbWVuc2lvbj42ODg8L2V4aWY6UGl4ZWxYRGltZW5zaW9uPgogICAgICAgICA8ZXhpZjpVc2VyQ29tbWVudD5TY3JlZW5zaG90PC9leGlmOlVzZXJDb21tZW50PgogICAgICA8L3JkZjpEZXNjcmlwdGlvbj4KICAgPC9yZGY6UkRGPgo8L3g6eG1wbWV0YT4Kk161CwAAABxpRE9UAAAAAgAAAAAAAADXAAAAKAAAANcAAADXAABZAMvOlZsAAEAASURBVHgB7J0FvFTFF8cPIN3d3R2CtCDdId2g0lLSSok0SEgj0g2CdEh3g3R3d4eE//ub999ld9/uvu238Rs/6947Pd953Ht25sw5Yf7TgjCQAAmQAAmQAAmQAAmQgI8QCEMB1kdmit0kARIgARIgARIgARJQBCjA8g+BBEiABEiABEiABEjApwhQgPWp6WJnSYAESIAESIAESIAEKMDyb4AESIAESIAESIAESMCnCFCA9anpYmdJgARIgARIgARIgAQowPJvgARIgARIgARIgARIwKcIUID1qeliZ0mABEiABEiABEiABCjA8m+ABEiABDxI4M27l/Li7WP5+N9HiRs1sYQLG96DrbMpEiABEvAPAhRg/WMeOQoSIAEvJ/Dw5S3558Y2efbmgYQJE1b1Nk6UxFI03dde3nN2jwRIgAS8jwAFWO+bE/aIBEjAzwg8eXVPtl1YLEGOD4OcH4aRMBIrSgIplr62n42WwyEBEiAB9xOgAOt+xmyBBEgggAm8//ivbDozV6A68J/2ny5gFfbLdDUldpSEuih+kwAJkAAJ2EiAAqyNoJiNBEiABBwhcPDqern19KKm8/pBXxzCa/YkRSRNvJz6OF6QAAmQAAnYToACrO2smJMESIAE7CJw88kFOXh1ndHKa9gw4SRB9BRSIHUlu+piZhIgARIggU8EKMB+YsErEiABEnAZgbfvX8nfp2cLVAg+hTAS8bPIUipTQwkfLuKnaF6RAAmQAAnYRYACrF24mJkESIAEbCOw5/JKuf/8upHqgGgHt4qkrS7xoiW1rRLmIgESIAESMEuAAqxZLIwkARIgAccJBKkOrNdUBz7qK4HqQJp4OSSbpvvKQAIkQAIk4BwBCrDO8WNpEiABEjAi8O7DW9lwepa8+/BGHx9GwkqUiDGkZMb6AkGWgQRIgARIwDkCFGCd48fSJEACJGBE4OiNLXLt0Wkj1QHYfC2WobbEipzAKC9vSIAESIAEHCNAAdYxbixFAiRAAsEIwGHB1vOLtPhP9l6x4po2fi7JmrhQsPyMIAESIAEScIwABVjHuLEUCZAACQQjsOXcAs1V7EPN45ZO9zWMRA4fTUpnbkTVgWC0GEECJEACjhOgAOs4O5YkARIgAT2B64/PyOHrmwyEVySFkcJpq0n8aMn0+XhBAiRAAiTgPAEKsM4zZA0kQAIBTuDDx/fawa0Z8vb9az0JqA4kjplG8qUsp4/jBQmQAAmQgGsIUIB1DUfWQgIkEMAEzt09KGfu7jc6uBU2zGdSJnNjiRQ+agCT4dBJgARIwD0EKMC6hytrJQESCBAC/2rmstafmiEfPr7Tjxirr5kT5Zf0CT7Xx/GCBEiABEjAdQQowLqOJWsiARIIQAInbu2SSw/+MVh9DaOtukbRVl+b8OBWAP49cMgkQAKeIUAB1jOc2QoJkIAfEnj7/pVaff343wf96MKECSt5U5SRpLHS6+N4QQIkQAIk4FoCFGBdy5O1kQAJBBCB4ze3y+WHJ/Srr3BYED1SXCmRsV4AUeBQSYAESMDzBCjAep45WyQBEvADAmZXXzUBtlCaqhI/enI/GCGHQAIkQALeS4ACrPfODXtGAiTgxQRMdV/DSFiJHTWhfJmuphf3ml0jARIgAf8gQAHWP+aRoyABErCTAKwH3Ht2TV7++0SiRIgpyWNn0GoIY1Mt7z68lXWnpmmWB94b5A8jRdN9LXGjJjGI4yUJkAAJkIA7CFCAdQdV1kkCJODVBG49vSAHr274fx8htP4nSWKmlc9TltFE2JCF2HP3NLuvdz7ZfUWZ2FETcfXVq2ednSMBEvAnAhRg/Wk2ORYSIAGbCGw6O0eev3lslBe2W2E54PMUpY3iTW9gcWDtyWnyTlvB/RToMvYTC16RAAmQgPsJUIB1P2O2QAIk4GUEzt49oDxn/fffR6OewQRWuni5JGuSwkbxhjfXHp2Woze26C0PQO0gZuS48lUGWh4w5MRrEiABEnAnAQqw7qTLukmABLyUwH9y6NpGufnkvIEgGtRVqAPkSl5SUsbJbLbvG8/MkRdvn2hp/6l0CL35UpZTKghmCzCSBEiABEjA5QQowLocKSskARLwBQL/aQLowavr5fbTS8GFWE0oLZaulsSKksBoKA9f3pIdF5ZqcUHCKxIjh48mZbI01cTekHVnjSrjDQmQAAmQgMMEKMA6jI4FSYAEfJ0AVAj2Xlkt959fNxJiIYxGCh9VSmZqIJ+FjaAf5v4ra+T2s8uiUz2A3my2JEUkTbwc+jy8IAESIAEScD8BCrDuZ8wWSIAEvJgADmXtvLhMnry6ZyTEBh3qSqcd6iqjeg/HBeu0w1tYudWFcGE/k/JZv9OE3PC6KH6TAAmQAAl4gAAFWA9AZhMkQALeTQB2XbeeWyiv3j3Xr66ix1iJzZeqvNJvPXfvkGY6a59eyIWAmypuVsmRtJh3D469IwESIAE/JEAB1g8nlUMiARKwn8DLf5/JlrPz5f3Hd1rhT6us4cNFlFKZGmkC7gJ5/e6FUcUlMzaQ6JHiGMXxhgRIgARIwP0EKMC6nzFbIAES8BEC955fk92XVmi9/STAYqU1wmeR5M27VwbxYSRW5PhSPEMdHxkZu0kCJEAC/kWAAqx/zSdHQwIk4CSBk7d3y8X7R/WqArrqYC7L8PBWzmRfWTS1pSvDbxIgARIgAfcQoADrHq6slQRIwEcJfNQsE2w5N1/ZetUJrKZDwapshWzNeXjLFAzvSYAESMBDBCjAegg0myEBEvAdAk9fP1A6r4YWB3S9x0ps0pjpJG/KsroofpMACZAACXiYAAVYDwNncyRAAr5B4OQtTZXggXlVggKpK0nC6Cl9YyDsJQmQAAn4IQEKsH44qRwSCZCA8wQ+fHwvf5+ZZXJ4S5Rjg4qa+gBWYhlIgARIgARChwAF2NDhzlZJgAR8gMD9F9dl7+XV8kGZ1hKB44KsiQvT85YPzB27SAIk4N8EKMD69/xydCRAAk4SwEEu2H/Fimukz6Jq32GcrJHFSYAESIAEnCVAAdZZgixPAiRAAiRAAiRAAiTgUQIUYD2Km42RAAmQAAmQAAmQAAk4S4ACrLMEWZ4ESIAESIAESIAESMCjBCjAehQ3GyMBEiABEiABEiABEnCWAAVYZwmyPAmQAAmQAAmQAAmQgEcJUID1KG42RgIkQAIkQAIkQAIk4CwBCrDOEmR5EiABEiABEiABEiABjxKgAOtR3GyMBEiABEiABEiABEjAWQIUYJ0lyPIkQAIkQAIkQAIkQAIeJUAB1qO42RgJkAAJkAAJkAAJkICzBCjAOkuQ5UmABEiABEiABEiABDxKgAKsR3GzMRIgARIgARIgARIgAWcJUIB1liDLkwAJkAAJkAAJkAAJeJQABViP4mZjJEACvkLg33//lXv37sndu3flzp076vvBgwfy7Nkzef78uf6D+xcvXgjyf/jwQX3ev3+vv8Z4I0aMaPYTM2ZMiR07drBPvHjxJGnSpJI4cWIJHz68ryBjP0mABEjAYwQowHoMNRsiARLwJgKvX7+Wy5cvy6VLl9RHd43vW7duyaNHj+S///4L1S6HDRtWEiZMqIRZCLTJkiWTtGnTSoYMGSR9+vSSOnVqCrihOkNsnARIILQIUIANLfJslwRIwCMEsDJ65swZOXHihNHnypUroS6gOgsAq7OpUqVSAm3mzJklV65c6pMxY0b57LPPnK2e5UmABEjAawlQgPXaqWHHSIAE7CWALfyTJ0/Kvn37ZP/+/eobwuu7d+/srcqn80eOHFmyZcumhNncuXNLgQIFJEeOHBIuXDifHhc7TwIkQAI6AhRgdST4TQIk4HMEoHu6Y8cO2bZtmxJWDx48qPRRfW4gHuhw9OjRlSBbqFAhKVy4sOTPn19ixIjhgZbZBAmQAAm4ngAFWNczZY0kQAJuIvDmzRvZvXu3bNmyRTZv3iwHDhwIuNVVV6HFauznn38upUuXljJlykjBggWpT+squKyHBEjA7QQowLodMRsgARJwhgB0VVetWiUrV66U7du3C4RYBtcTwAptsWLFlDBbrlw5dUjM9a2wRhIgARJwDQEKsK7hyFpIgARcRODjx49KHUAntB4/ftxFNTtWDQ5DxY8fX1kDgEWAWLFiCYQ9fLAFr7uOFCmS0jHFyqbhB62+ffs22AdWEJ48eSKPHz82+sD6Acx24fBZaIasWbNK9erVpVq1apInTx4JEyZMaHaHbZMACZCAEQEKsEY4eEMCJBAaBGCuas+ePbJgwQJZvHixEuA81Y84ceIoc1Rp0qQRfGCaCp9EiRKpD2yywpyVJwOE+Pv378vNmzflxo0b6hvXMPl17tw5OX/+vLJH66k+pUiRQgmyX3/9tRQtWtTjPDw1TrZDAiTgOwQowPrOXLGnJOB3BI4cOaKE1oULF8rVq1fdOj6souJkvuEHpqfgSMAXA1ZpdcIsLC8cPXpUfbCi686QPHlyqV+/vjRs2FCxdGdbrJsESIAELBGgAGuJDONJgATcQgCerWbOnCnTp09X9lnd0QhWVfPly6dO2uO0PbbAsaIaCAE/BHTCLKwy4NAb1BLcEWB3FoJsvXr1JEmSJO5ognWSAAmQgFkCFGDNYmEkCZCAKwnAPuuGDRtk6tSp6jCWq+2ywivVV199JUWKFFFCK+6psxk0g1DPgC3cXbt2qQ8EWqgguNLLGHR+K1SoIK1atRIcAPO0yoUr/1ZZFwmQgG8QoADrG/PEXpKATxKAS9YpU6bItGnT5Pr16y4bA3QyIbCWKFFCfWNbm8F2Ardv35aNGzeqHxX4hjqCqwI8gzVv3ly+/fZbdfDNVfWyHhIgARIwJEAB1pAGr0mABFxCAFvXo0ePVgeyXHGaHpYAYIC/UqVKUrlyZcmUKZNL+slKRK3EwtIDVsjXrVunnEK8f//eaTQRIkRQB786dOig5s7pClkBCZAACRgQoABrAIOXJEACjhOAmsBff/2lBNedO3c6XtH/S8JEVfny5ZXAim/otTK4nwD0ZWHCDHO5fv16efXqldON4sdHly5dpGrVqlQvcJomKyABEgABCrD8OyABEnCKABwL/PHHHzJixAiB0wFnQpQoUdQqa926dZXwCtuqDKFHAMIrVmaXLFmiBNqXL1861RnoJv/www/SpEkTiRw5slN1sTAJkEBgE6AAG9jzz9GTgMMEINxMnjxZCa7QdXU0YKu5bNmyAqG1SpUqEi1aNEerYjk3Enjx4oUSYufMmaP0Z7Hi7miASbPOnTtL27ZtOd+OQmQ5EghwAhRgA/wPgMMnAXsJPH/+XCZOnCi//vqr3Lt3z97i+vywwYqDPo0bN1aervQJvPB6AjgEBqcTM2bMkGPHjjncXwiyXbt2lTZt2kjUqFEdrocFSYAEAo8ABdjAm3OOmAQcIgBVgbFjx8rQoUPl4cOHDtUBFYHatWsrwRUmrxh8nwDMcmElftGiRYK/EUcCXPR269ZNmeHC3wgDCZAACYREgAJsSISYTgIBTgBbxbNnz5Y+ffo4bAorXbp00r59e7XaGjNmzAAn6p/Dx+EvrMjCbNrZs2cdGiScTfTr10/9wIHlCXsCnDfAsQIDCZBAYBCgABsY88xRkoBDBHAavWfPnnLixAmHysNWa8eOHdXBLBq3dwihzxWCgwRYL8Chvk2bNjnU/6xZs8qwYcOUcwRbKoBeLlQRLl68KFzBtYUY85CA7xOgAOv7c8gRkIDLCRw+fFg6deok27dvt7tuHMqqX7++Elxz5sxpd3kW8B8CR44cUYIs1AscsS1bqlQpGT58uNWVVQituXPnFuhmDxkyRLp37+4/ADkSEiABiwQowFpEwwQSCDwC2Abu1auX2ga295Q5TF7hUBYECHrGCry/HWsjvnbtmrIPDPUCe01xYeW+adOmakU2bty4Rs3AJTF0qffv36/iYSv40qVLQjUVI0y8IQG/JEAB1i+nlYMiAfsIfPz4Udly/fHHH+XBgwd2FcaWbcuWLdUWbuLEie0qy8yBRQBWK6AaACsW9jpIwEGvcePGSc2aNfXQoN6CVVfDgB9gv/zyi2EUr0mABPyQAAVYP5xUDokE7CGwb98+adeunRw4cMCeYkrX8Pvvv1f2PBMkSGBXWWYObAJ37txR1ixgveD169d2wYAAC0H25MmTUrp0acGPL8MAO8JQK+DfpCEVXpOA/xGgAOt/c8oRkYBNBLCVixVXCAOmQoC1CnA6vFmzZuq0eJIkSaxlZRoJWCUAe7KDBg1SZrigDuCqgIODo0aNclV1rIcESMALCVCA9cJJYZdIwN0ENm7cKC1atJDLly/b1VS1atWUwAEnBAwk4CoC586dkx49esiyZctcUiX0sVEndbFdgpOVkIBXEqAA65XTwk6RgHsIPHnyRLp06SLTpk0TmDuyNRQqVEidBsc3Awm4iwCsXuDv0151FnP9ad68uTqMaC6NcSRAAr5PgAKs788hR0ACNhE4ffq0wCzRrVu3bMqPTDAsD89bjRo1kjBhwthcjhlJwFEC+GE1f/58dSjQnr9V0/ag6nLq1ClJnz69aRLvSYAE/IAABVg/mEQOgQRsIfDvv/9K3rx55fjx4yFmx8sfB7T6aV6RaJIoRFzM4AYC2C344YcfZPr06Q7XXq9ePZk3b57D5VmQBEjAewlQgPXeuWHPSMDlBLA1W7BgQbFm47V48eIyduxYyZYtm8vbZ4UkYC8BePWCmbarV6/aW1RgQxbOFHLkyGF3WRYgARLwbgIUYL17ftg7EnA5AbjchJtP0xA7dmwZOXKkMhpvmsZ7EghNAnPnzpWGDRs61IXKlSvLihUrHCrLQiRAAt5LgAKs984Ne0YCbiEAu5tw8Xr+/Hl9/dWrV5fx48cLHRHokfDCSwjcvHlTuZK118GGYff37NkjBQoUMIziNQmQgI8ToADr4xPI7pOAIwRw2huqAvHjx1d2YGvVquVINSxDAm4lAPvEcFawefNmp9opUaKEbNq0yak6WJgESMC7CFCA9a75YG9IwGMEZs2aJRUrVhRT//Ie6wAbIoEQCMBNLNzFuiLA9nHJkiVdURXrIAES8AICFGC9YBLYBRIgAd8mAC9S8Gym+8DiA8yOmX5g3SF69OgSI0YMgbF9BssE9u/fL0WKFBFXeejKnz+/QJWA5uAsM2cKCfgSAQqwvjRb7CsJkIDHCLx580Z5Krtw4YJAD/POnTty9+5d/Qf3jx8/VkIrBFZ7Q/jw4fXCLEyVweYuXPNCD1n3nTRpUkmXLl3ArZK/fftW8uTJo+y42svVWv6//vpLqlatai0L00iABHyEAAVYH5kodpMESMA9BB4+fChHjx5Vn7Nnz8rFixcFQuuNGzcEOpjeEKDmkSFDBv0nY8aM6iBe2rRp/XZF8f3792ou4IwAHzjiwDfm6NWrVw5NS/bs2dU8w7wWAwmQgG8ToADr2/PH3pMACdhBACfZd+/eLQcPHtQLrdevX7ejBu/KGitWLLVS+fnnn+u/sWLrz9vk+FFx5coVvUCrE24h4D579izECZozZ440aNAgxHzMQAIk4N0EKMB69/ywdyRAAk4QuHbtmuzYsUN9du7cqVbw4KrUnwNUEYoVK6Y+sDSRKVMmvxZodXOJecWquW6l1vAbq+y6AAEfQi9UOBhIgAR8lwAFWN+dO/acBEjAhABs3G7dulVWr14ta9eulUuXLpnkcM0tVjix+gkzZFGjRjX6RIsWTSJGjCgQqEw/0JV9/vy5+mC1UHf96NEjcUSP1pbRJEyYUJlMK1eunLI6gT4HWoDusm6lFt/169eXQoUKBRoGjpcE/IoABVi/mk4OhgQCjwBWWVetWiVr1qxR9kIhxDobcKgKK3XQMcV36tSp1SErrG5CIEyQIIESUp1tR1cegi5WCW/duqU+t2/fVt/YKj937pz64NCYsyFcuHCC0/jwTlWlShXJkiWLs1WyPAmQAAmECgEKsKGCnY2SAAk4QwDC3OLFi2XBggXKNBIEQEdC5MiRBQd7cuXKpT7wUJY+fXq1supIfe4sgxVbnTB77NgxOXz4sBw6dEiweutogIBep04dtSKZNWtWR6thORIgARLwOAEKsB5HzgZJgAQcIQCTVUuWLFFC67Zt2+TDhw92VYNtf+iDFi1aVNkXxcEnnObHqqQvh8uXLytBFsIs9HxhP9URdQQI8TjcVK9ePYH5LgYSIAES8GYCoS7AYuXk77//lmXLlsm+ffvUthmMgTOQgD8TiBEzhiRNklQJUzVq1KA+npXJxiGs33//XQmv9qgHQGDNkSOHwI2oTmgNBP1PmJiCwX7oAuNjr0ALE1NfffWVtGjRQqpXr87DTiZ/m7CCAP1qvLPwowFqH46a9TKpmrck4LUEoPOPH7Y4IArX43nz5g31voaqAAuBtX379uoBi1WQrNkzS5JkiSVK1CihDoYdIAF3Enj+7LncuHZTzpw6pw76lClTRn777Te1IujOdn2lbuiDzp49WwmuOHRja8ABqlKlSkmFChWkfPnykixZMluL+m0+LAhgkWDlypXqcBsONNka4FThu+++k+bNm0vy5MltLea3+bDy36FDe/nnn2MSXvOqlitXZkmWJIFEiRLZb8fMgZGAdhxVnj55Lpev3JRTZy4qINChHz16tDofEFqEQk2AnTlzprRs2VIiRooo33dsIfUa15Y4cWOHFge2SwKhQuD2rTsybcpsmTZpljoUBJ1OnBYP1ADTRyNHjhTY6oQnLFsCVlWxio3Pl19+KREiRLClWEDmweohVmQhzGIFEbxtCXCBW6lSJfn++++lZMmSthTxuzzjx4+Xjh07SqyY0aVnt+bSuEEViR0rht+NkwMiAWsErly9JWPGz5bJUxdpLrFjyp9//qmeu9bKuCstVATYFStWqK2pzNkyyfR5EyVpsiTuGh/rJQGfIHD65FlpVq+VPLj/QLZt2y758uXziX67qpNQExg+fLhaIbTF+xW2s6pVqyZ169ZVAhUELAb7CRw5ckTmzp2r9IrhLteWAN3hnj17qmd4oHi0wg+qRo0aScH8OWXJ/NGSMEFcW1AxDwn4LYEDh05Ijbod5cWL17JbU1kKjUOgHhdgsX0Fl4hx4sWW1ZuWSKzYsfx2gjkwErCHwLUr16ViyRoSPVoMOXPmjESKFMme4j6XF/rvWAUcNmyY0n8PaQBQMypbtqza0oaKAGytMriGAH40bNmyRQmzOCgH+7QhBRyA6969uzr45c+r3jgkB3Nj6dMmlx2bZku0aFRxC+lvg+mBQeDU6YtSpEQjbREyucAyiqcXEjwuwGILasKECbJ8w0L5PF/uwJhljpIEbCSwfOlqafNNRyXUde3a1cZSvpcNW9h9+vRR7lxD6j30WL/55hv59ttvJUWKFCFlZ7qTBGCuC/rHEydOlJMnT4ZYG3RjIchCT9YfBVmsvM6fP18O7Vks2bKkC5EHM5BAIBH4fdpiad3+F5k8ebI6+OnJsXtUgIVpF+ir5c2fW2YvnurJcbItEvAJAliVLFGwooT5L6xahfWJTtvRyY0bN0rv3r1l7969IZYqXbq0tGvXTh3I8nVTVyEO1kszbN++XS04YKU8JNNcsCn7yy+/KLuy/qJaAGE+QYL4Uq1ySZk7Y6iXzhK7RQKhR+D9+w+SIXsFSZwkufZc3+fRjnhUgN20aZM6ITxy/GCp06CmRwfKxkjAVwiMGDxGRg0dJxcuXFCeoHyl39b6CYsjPXr0UGadrOWDf3oY1u/cubNyLGAtL9M8RwCewXDieNKkSQKhzlrInTu3DB48WKl7WMvnC2lLly5VhwMXzx0p1auW8oUus48k4HECP3QbJmMnzhWoiHrSVKFHBdgpU6YoywPrty2XbDnpwtDjf2Vs0CcIrF21Qb5r2FbWr18vMK/lywGCDwRXbElb85YVPXp0tQXdoUMHqgl48YTDmQRUwMaMGSP379+32lPYkh01apTAu5mvBhws7Natm5w7vkbSpKZJNl+dR/bbvQRmzlku37YK2lmDq2pPBY8KsAMGDFDbh4dO75REiRN6aoxshwR8isCBfYelWtk6Suhr2LChT/Vd19m3b9+qFbuBAwdaPRAUNWpUZQu6S5cuEidOHF1xfns5ARjunzp1qrIccePGDYu9xaGONm3aSP/+/SVmzJgW83lrAvTQR4wYIU/u7OXhLW+dJPYr1AmsXb9DKtdoK7AwVblyZY/1x6MC7M8//yz9+vWTI2d3S4KE8T02SDZEAr5E4PDBo1K5VC2ZMWOGNGnSxJe6rvqKA1o//PCDUoGw1HlYWGjVqpUyx5QgQQJL2Rjv5QTgGW3s2LEyZMgQweqspZAoUSJ1MBE/yOAhzVcC/o6xivz8/gGJHJlWL3xl3thPzxLYsHG3VKjWSlmVgXlDTwUKsJ4izXZIwEYCvirAQv8JnvUWLVpkcaRYkYM1gV69etFLlkVKvpcA4XXo0KFKmLXmVhWOJuAQIFu2bD4xSAqwPjFN7GQoE6AAG8oTwOZJwFsI+KIACx3XTp06CVzAWgpw8YqDQKFh8NpSnxjvWgJwhtC3b1+ZPn26WHJIAVNbyAPdUk/bjbR3tBRg7SXG/IFIgAJsIM46x0wCZgj4kgB77do1pQqwdu1aMyMJikqTJo38+uuvynOWxUxM8CsCcFfbtm1bOXjwoMVxwdsc1GTgJMBbAwVYb50Z9subCFCA9abZYF9IIBQJ+IoAC+EDKgOWvDbhgNZPP/2k9GHpNSsU/6BCqWmswMLyDP4GHj16ZLYX0IXG2QiYTfNGW78UYM1OGyNJwIgABVgjHLwhgcAl4O0C7NOnT6V169bKO5GlWYITAnhmSZ06taUsjA8QAg8ePFCm1KZNm2bRlFrBggVl3rx5kipVKq+iQgHWq6aDnfFSAhRgvXRi3NGtO7fvyoVzF6VQ0QJizWPN40dPJHacWEZdQNn1qzfKlcvX5Kr2uX7thsSJG0cyZUkvlatV0Lyc5THK7+jNq1ev5fbNO5I2vfMCyL2795WuW5y4sR3tTkCV82YBds+ePdKgQQOBf3hzIXbs2EpdoGnTpj512tzcWBjnWgJwZIMDfFevXjVbMf52/vjjD6levbrZ9NCIpABrmfrlKzdl7IS5UqpEAalQ7kvLGU1Sli7fKK9fv5F6tStYff+ZFNPfvtTeTTdv3pUM6VPp4xy9uHP3gfZuCifx+G5yFKEqRwHWKXy+Uxj2MXNnLCxPnzyVn37uJm06NA/Webhm69Cqi/y1ZJVmHLix9B/SW5+ne8feMmfGAv296UX5SmVk0K99NTNltpsmOnP6nMycOldOHj8tz54+k3jx4srFC5cFgueydfMl7xd5pOcPfeXIoX8Egu2H9+/lw4ePEj5CeIkaNYr2iSoJEsWXpMmSaJ/ESojOmTu76tqM3+dIr2791coLtgvjJ4irCeWxJZz20Pio1fH+/3XByH3EiBEkWvRomr3IGBIjZnSJotWdNXtmqduwZkAJQ94owH748EF5V8J2L+bMXIDggRPmiRMnNpfMOBJQXrxg8xc2ZM05toCJLailDBs2THDYK7QDBVjLM9Dy+37yx4ylEjNGNHlwc5dNz+iz5y5L9rzV1QG/tcsnSemShSw3oKWcOHVBJk1ZIEePn5UnT55Lgvhx5Nz5KwLBc9vfM6Vg/pzStuMAOXDwhLx8+Urea88pvJsihA+v7PZGjRpZEmvvphTJE0vy5ImkUP5c8nmerKrNCVq9HToPVn+HMJGWUHs3xdEWjCDQoo4P2nsY9eneTTG0d1OsWNEllvZuiholsuTMkVGaNa5u07itDtIPEinA+sEk2jKEK5euSuE8QS4Ja9X7WkZPDO5fu3snTUidHiSkYgV0+4EN+qqb1WslG9Zu0t+bu8iUJaMsWztPEwJjmEvWx0FQHtBniEydONPsywQZIWSXKFNMShasqC9ny8XfO1dKlmyZpM23nWT5n6tsKWIxz59r5kmBQvkspvtbgrcJsDCRVL9+fVm3bp1Z1DBQD+9MyMNAArYQgJe55s2by/Xr181mxwGvhQsXhroKCgVYs9OjIqvVbier1mxTAty75/9YzmiQMvH3hdKu00AVs37lFCn5VQGD1E+XeDd1/+lX+U1b4TX3Qwc5B//SScqXLSq5vvj6U0Ebrg7tWSw5s2eUBk27y8Illg+f2lCVbFk/XYoW/tyWrH6dhwKsX0/vp8FdOHdJin1RVkU0aFJHho0Z8ClRu5r42++aUDlMHzf8t4FSv3Ft/X2tyo1k94696v78rWNq1RKqBEsXr5BJv/2hbc28VmlFihWShctn6suZXrz79500qdtCtm3eaZpkdN+q3XfSo09nKV+8mpw+edYozdrN4lVzpFCR/HLm1FkZ3P9XOXX8jEAlQtc/a2UN06BisWXvWkmXIY1htF9fe5MAe+LECbWle+HCBbPMCxQooHQXqetqFg8jrRCALnXLli2VoGouW6xYsWTu3LlSoUIFc8keiaMAaxlz6YrfyZZt+yVKlEjy7N5+yxkNUjp2GSLjJs1TMedOaO55UyUzSA26/Fd7N1Wt1U7+3rQ7WJphROcOTWVAv/byRdG6cvzEOcMkq9eb1v4hxYrmk+Mnz0uvfr/JMW1196H2bnr16o3VcqaJeDcdP7hMMmZwXs3OtG5fu6cA62sz5mB/z545LyUKBD2Qm7dpKv0G/aSvac2K9dKiSTv9L87K1SvIpOlj9Om4qFaurhzYe0j96r3x2Pgf7dHDx6ROlcby4sVLVcaSxzP8om3VrIOs+uvTr8+KVctJw6Z1JUeubDJ+9GSZMOZ3VUejb+rJkJH91fXz5y8kfPjP1NZeVc3V6eEDR1X8um1/CXRzoXLw/NlzSZI0sVT52vyKLX5Zv3r5Unbv3CffNmijyjdt3lD6DfxRe4C8UttAz7Q6nj55Ju/fvZOUqVNIsuRJVb5A+Z+3CLB//vmnQJf1xYsXwdDj4d2zZ0/lWc/bbXkG6zwjvIrApEmTlA3hN2+CCxCwTAB1AgiSoREowFqmnv/LenLo8Em1RX/9gvVdQV0t37XuIzNm/6Vub17aorbtdWn4xrupXuOusmTZp13HGtVKS/Nvakqe3Flk+MhpMnzUdFWk5be1ZfyYXur62fOXEl5zkhIxYngpWqqx7Nt/TMUf2LlQbt66p1QOnmrvleTJEkntGuVUmun/8G56oakhbNtxQGrU7aiS27SoKyOGdBXo3b548UqePnuhqTI8k3fv3kua1MklZQqqSwEUBVjTvyY/vT998oyUKhzkK7hjt7bS9cegfyiH9h+R2prwqXuIZ8+ZVZauna/9uo1sRKJ88epy7OgJiaDpi16+e9IoDTdDB4yS30ZMUPETp402K0hOHveH9O81RF+2fefW0r33pxcEVmfRl4sXLsmEP0YJVnNNw5f5ysjF85eV6ZtrD8+YJod4f+TQMalUsobKBx3XX8cNDrFMoGQIbQEW5o969+6tdF7Nbd8lTZpU5syZI8WLFw+UKeE43Uzg6NGjUqdOHTl3zvhHua7Zb775RiZOnOhxvVgKsLoZCP6dJVdlOXfhqmRMn0pOHlkRPIOZmGYtfpLZ81aqlMtnNiiB0jDbyN9mSrcff9VH9ezaXH7p205/j9VZrPxCD3bujGFSonh+fZruImvuKnJWSw8XLqy8fRq0yKJLs+Ub+rQFi9dXWaHj+vuEn20pFtB5KMAGyPT/c+S4VPjqazXaXv27Sev2zeXc2QtSvVw9efL4iYrHiuPKjYu1g1jxg1Epnr+cnD97UbM8EFuOXwy+bTNlwnT5+cdBqhz0a6FnaxggQFcoUUP+ffuvim7fpY1079XJMIv+GsKLJb/lOdMXkAf3H2qK8lHl7A37HxKXtENiRfOWUW1VrFJWpswap2830C9CU4DFDyj4q8fqq7lQuHBhWbJkicC3PQMJuJIA7AlDpWD+/Plmqy1atKj6u4wf3/i5iL9ZOMqAvVlXBwqwlommSF9Sbt2+L3k/zyZ7twWpBVjOHZTS+NueMm/hanVz5ezfkixpQn2RY5oaQMFi9eXt/99NP3ZrLv37fBJe9Rm1C2vvpiSpi8u9+48kuvZuenxnj2Exm67Pa0J5Zk04R/i6WilZNGekTeUCORMF2ACZ/QP7Dkm1snXVaLE1jwNSVcvUkdu37qg4nOZftma+pEqT0iyRvFmKqrwpUiaTPf9sCZanYc1vZcvG7Sp+2/71wXRHdSoIyPD5F7ll+fqFFoXUYJUbRKRKkEWwUgshG6oK9oYnj59K1tR5VTGYE1u8cra9Vfht/tASYGFsvmrVqrJzp3m96FatWsmYMWM8vgrmtxPNgZklAHfDsFQAyxemAXZi16xZI5kzZ1ZJUDuqVq2abN68WW7duiUJEthufcW0bnP3FGDNUQmKS5yqmNx/8FgKF8ytLAJYzvkppXbDH2TpXxtVxN1r2yWugZnIL0s1kd17j6i0App1gR0bZzn0booS53PBSm2ihPHkxsXNnxq38eqR9m5KkLyoyl38yy9k45qpNpYM3GwUYANk7nEACwexELr91FEWzFki167eUPdx48WRP1fPk/QZ06p7c//LkDSn0hPNnDWjbNxlfLrfcPUVFghOXTlo9ADAga36XzdT1cJUCHRXM2fNZK4Zq3HYYk4eJ6PKkzJVctl91P6HBH5Bp4yXWb2kYK0AVgsYggiEhgAL25zly5eX06dPB5sGeNEaO3asOjUeLJERJOAGArB4UbduXcFBL9MAIXXDhg2SLl06qVy5smzZEvRDHo4zWrRoYZrdqXsKsJbxJUtbQumWFiyQSwmblnN+SqlQTbOiszFowePNkyPKZBVScWCrfNVWKiPeTfs13dUc2TJ8KmjjFd5NEWLkUrnTpE4m546vsbHkp2x4N0WKlVuZ0oK1AlgtYLBOgAKsdT5+k4rVUaySmoaYsWLKEu3kPoQ5SwErEiniBqXDVBYOeOEf+4ljp2T+7MVGFgV+HtxLvmvdxKgqCK86qwOwLtD7l+5G6bbeYMsubaLsKjv6sWm3sSBtaz050uWXhw8eqUNfB04GrRrbWtaf83lagIX+YcWKFdUKlinXhAkTyrJlywSekhhIwJME8GOqSpUqYs4CBg4O4oAX7GrrQtmyZS2aetPlsfebAqxlYmkyl5Vr128ru6r7tn9S+8CBKpzsP3n6gqbTfEXOaLZf7959KFjZvHX7nmZH+oOyHfvw1qedOwivOqsDsC4wdOCnMxmWexA85fXrtxI9fj6VkC1rejm6z7wqVPCSxjG61WUc+oKuLoN1AhRgrfPxm1TYcIUtV8MQXTOQvEAzeZUrTw7D6GDXhtvuwRINInCqf+DwvgYxoqwDZEv7hXay/71EjhxZjl3cF+yAmFEBKzdwdpA5ZZDtu9x5c8qqjUus5LacBHNiMCvmqB6t5Zp9O8WTAizUBSC8Pnv2LBi0DBkyyNq1ayVNmjTB0hhBAp4gALWWWrVqKRWBkNoLrxmvv3fvnmZsPlZIWW1OpwBrGVWmHJXkwqVrkjRJAmmhWQT4RzOVePSfMwIPXVjFtBbSaif4zx4P0oXFyf5EKb9UJ/thkuv2lW3KUYC18pbSnjx9LvGSFlbJX+TLLru3zLWU1Wp8tjxVleDtqB6t1cr9MJECrB9OqrkhwXRVy6btjZLadmwhP/brahRn7gaqBgVzfmUuySgOprB6D+ih7LDqEgwFZzgFgHMARwNMZWVKkUcVz5Mvl6z827EtFkN93KsPzui3kxztl7+U85QAu3XrVrUFa85MFlZcV6xYoXlli+cvWDkOHyXwTjOn17hxY1mwYEGII5g1a5Y0ahSkohViZhsyUIC1DAketU6fuWg5g0EKXLXGjRNTWQdAdL682WXP1iDhcuXqrVK9TtA7EU4B4BzA0QBhOG6SQqp4/i9yyK7NcxyqylAf11DVwaHKAqAQBdgAmGQM8c+Fy6V9yy5Go8VW2G+TR0i1mpWM4k1v4Oq1TNEqKhqWCmBv9eN/H+XOrbty4/pNo+ywHtBNsy4AE1kI06fMVi5dcQ33tfCw5WiADbxU8YMOUcDcF3RpHQmGB85OXj4osWLHdKQavyvjCQEWfumxPYtDMKYB8TgJHiVKFNMk3pNAqBCA+lSNGjVk+fLlVtvHgS6ovLgqUIC1TFJnRsswRxztGZ4rZybJkyuzYAs/o+ZJMkOGVEplAPmixcunmYp8K6VKFJR1KyarouMnz1cuXXHTtVMz5WFLJTjwP7ybIscOWlzJrfUBdmAdCRWrt5b1f+9SRe9d3yEYF4NlAhRgLbPxqxQc2ur8fc9gY4IQ++u4QcHMXhlmPLjvsMCBAALMb8EMly4ob1yLVsjCuUvk+rVPwuzcP6dJ8ZJFZdjA0TJm+HiVHbZdq9awLizr6rX0nTJeJqXLlDFzBtm8J2gryFJeS/HfNWwra1cF6RcdPrNLEiZKYClrQMW7W4DFARi86M15RYMZo/Hjxyv9woCCzsF6NYEHDx5IyZIl5dixY1b7CfWo+/fvS9SoUa3mszWRAqxlUikzlFJOAmBJYNK4vpI7Z2ZJlTKJ5QJaSvjoOZV6QcXyxWT54rEqb99fxsnAoVPUNWy71qlZzmodISXiABb0bLNmSSf/7F8aUnaz6TXrd5K/VmxSadfOb5IkieObzcfIIAIUYAPkL2HWH/OkZ+cg/dS+A3vKssUrlWMCDB+rpv2H9JJvWjY2S8PQgkGHrm2VFQPTjLDv2r/3ELXiijS4oYU72tnTF0iPTr1V9l+G9rbYhq4+CMQpNAsDluzAZkqeW+CZK0261LLjYJAQqitr6/f3zX9Q40d+WDKARQMGEXcKsNBp/frrr/UOMwx5d+rUSdnTtDTnhnl5TQKeIgC91lKlSsnx48dtanLx4sVSs2ZNm/KGlIkCrGVCOCyFQ1NZMqeVYwdsW/WOGjevsvNaumQhWbt8kqp8yrTF0qb9L+p69Ige8n2r+pYb1VIuXr6uXNBaek7FSVxQcJAsQ7qUcuroSqt1WUps9E0Pmb9ojUq25PLWUtlAjKcAGyCzPnXiTOnbc4Aa7cjxQ6RcxVJSp2oTOf7PST0BeOeCly7TsH3LLqlXvamKtpQHZkS6tPtRW4kNOn1Zr1EtGTF2kBiu3mbNnlnWbl1mdpUNh6p6/NBH9miuXuFedsrMoF/Jpn2BDix0YZ0RYLt37C1zZgTptcGMljULDKbt+/O9uwTY7du3S7ly5cyuvHbt2lW57PRnrhyb7xG4ffu2El5PnTplc+dhfsuSMwSbK/l/Rgqw5olBDQDqAAj26K0mSllMHjx8LIYHrPbsOypFSwYt2uTKkUn27VigvGiZtnxWs2bQpsOAIFevmnvZhXN+Nc2i7qEDC11YZwTY1u37y+/Tgg4nw4wWzGkxWCZAAdYyG79KMXTjCgG2ToMa8vTJU+W6FeawdAHxcHQAl7G6YCjAwoYsVmENA9yz9u7eX44c/EcfvVgzzVWoSH614lb08zJy6+ZtldawaV0ZMKyPhI8QXt1DGMUq7YjBY+St9nBCSJwkkRw8tUNdm/4P5ryglwZheMOOFabJNt3DYxhs1yLo+mlTQT/P5A4BFqay4PrVnF3Nnj17yqBBg/ycKofniwTOnz8vU6dOlUWLFsmVK1dsGkKMGDGUNQLYL3Y2UIA1TxAeuOCJC6HW12Vl/qzh5jOaxOosFxi6n1WruLkry/Ubd1Tu5t/UlDEjemoOU4LeTRBGp/yxWH4eOEHpzyITPHjBk5e5EDFmLmXDFcLwwd2LzGUJMa5Lj+EyetxslW/T2j+kWNEgYT3EggGagQJsgEz8hDG/y8C+w9RoR00YKrXrf62uIcQ2qdtSDuw9pCeBg1pdf+ogNepUU1v5hgJs2QqlpFyl0nLv7n05f+6i7NBWZ+/euacviwtTNYO1q/6W7xq20eeBNy9YEbiimULBCrCh5xs4Qvht8nApXa6Eyg+3setW/63au33zjsyb9enBgMNkKIvV3zBhwyj93BZtghwm6BszczGo33AZPzpI92n6/ElSpnzQA9FM1oCKcrUACzuacMN5507QC8IQZp8+feTnn382jOI1CXgdAZhl2rt3r7JEABUBrMxaCytXrpRKlZzT80f9FGDNUz5+8rzkzl9DJbZr3UBGDbfNpnj+L+vJocMnJWGCuHLz0hZ95X+t3CQ1631yaZ46VVLJny+HZqbruhw5ekoJpLrMsWJGlxm/D5JKFYqpKLiNXb5ys+ZU4b7cuHlX/pjxSe8Vdlzxbvrw4aOEDRtWOndsKh2/b6SryuL3j31Gy7CR01T6soW/SeWKxS3mZYIo5xRwUoEDlDhf4akQRnsw/OepxvCi7Nevn3I9ChekgRjGjpwkQ/oHbX0YCrBgAaPcndr0kOV/GjsGwGEtHNoyFGCtsYNHr74Df9QE36rBskF4hhBtLUBoHTbmF81N7KdDVRVL1JCjh60foNDVCcF73/GtuluL39069JK5M4NOiWIVF6u5DK7VgcWLvkiRInLp0qVgaLnyGgwJI3yAAASSbdu2KWF26dKl8vDhw2C9btasmUybFiSABEu0I4ICrHlYe/f/I0VKBAmCP/f+Xn7q3sJ8RpPYkuW/VSoA5uyr9uw9SoaPCtqRMymmv4XQOvG3PpJYc7muCwWK1ZeDh07obq1+p0yRRC6eWmc1DxJbtftZpk7/U+U7pK3i5tRWcxksE+AKrGU2fpViuAI7euJQs1YH4FVrQJ9h8uTxEzV23UoqVlvz5yguOKhlGvDrEgIgLA7Ay5Y1k1SwCduv50C5euW6vhp4AsujOSWoWbe6WXNeMN8FM16mAe2G07yBfRbuM2XHNVLkSMpMV4u235hmDXaPfrRq1kFSpUoh6zUBNnz4z4LlCcQIV67AQnjdtSvIHIwhS7jchOtNBhLwZQKwEQurGrARCxNbz58/V8OJGzeu2nGAxy5nAgVY8/S27zwoJcoFPeNHDusu7ds0MJ/RJLZZi59k9ryVghXW8yfWmqSKwCZs5x7D5NLlG/q02LFiKJ3ZRvWrSN1a5fXxuou8hWrL0WNndLf6b7yb4KlSfTQrP5G1d1MXzUxXp3ZB+rb6jGYu0I96TboK3NEe2r2Y7yYzjAyjKMAa0vDja2zVVylTWwmhCzXvW0WKFTI72hcvXso6zcTUq5evta2V6nqvWQf2HdJWaFdrZmKiKCEVgidWs/PlzyO4tifAjevpk2c0XdfE2mGsVBYtDqDOmzduyYY1myRipIhKNxarrAm1X8HRY0S3Wi6k/rx69Voianq+MCPGEETAlQLswYMHpUKFCsq0kI4vTmjjhU/mOiL89gcCMAu3Zs0a9be9evVqgRoBTG85EyjAmqf36tUb+aJoXU2n/rlsXjdN0msn/m0Jt+/cVwJsGc0KAezFWgr3HzyW4yfOKV1X1G3J4gDKw53tyjVbJZKm8wzd2JQpEksi7d0UM0Y0q+Usta2Lf6m9m1BnuHBhdVH8tkCAAqwFMP4Yff3aDbl88aomvBZUejn+OEaOyXECrhRg0YuzZ89KmTJl5Nq1a+qFjpe7Kw64OD5CliQB9xLASizswTrrBpkCrPV5wrkHrHQyBDYBCrCBPf8cPQnoCbhagEXFN27ckB49esjEiRMlevTo+rZ4QQIkYJkABVjLbJhCAjoCFGB1JPhNAgFOwB0CbIAj5fBJwCECFGAdwsZCAUaAAmyATTiHSwKWCFCAtUSG8STgWQIUYD3Lm635JgEKsL45b+w1CbicAAVYlyNlhSTgEAEKsA5hY6EAI0ABNsAmnMMlAUsEKMBaIsN4EvAsAQqwnuXN1nyTAAVY35w39poEXE6AAqzLkbJCEnCIAAVYh7CxUIARCAgBdsSIEdK1a1fZfWSTpEydIsCmmMMlAdsI7Ny2R+pUbaz8v9eqVcu2QsxFAiTgcgK9e/eWAQMGyJ2r2yVe3Fgur58VkoA/EPhrheYKuH4n5VSkdOnSHhuSR13Jzp07Vxo2bChLVs2RgkXye2yQbIgEfInA4vlLpWPr7rJz504pXLiwL3WdfSUBvyIwYcIEadu2rRzU3InmojtRv5pbDsZ1BMZOnCudug6V48ePS7Zs2VxXcQg1eVSAPX/+vGTIkEF0rlFD6BuTSSAgCbRv2UVW/bVOGWKnzdaA/BPgoL2EADzZ5cuXT4YO/EE6d2jqJb1iN0jAuwhUq91eduw6Ivfu3ZMIESJ4rHMeFWAxquzZs8njp49lx8G/lQtRj42UDZGADxB48OChFM5VUooVKy6rVq3ygR6ziyTgvwT+++8/SZUqpUSNEl6O7vuT7pf9d6o5MgcJXL12W7Lkriw1atQU7LJ7MnhcgJ03b540aNBAuvzYQTp1+96TY2VbJOD1BDp/31MWzFlC9QGvnyl2MFAIwHtdmzZtZNSw7tKuTYNAGTbHSQI2EajTsLMs03Rgjxw5Ijly5LCpjKsyeVyAxS/akiVLyrZt22TyzLFSoXIZV42F9ZCATxOYOnGm9O05QJo0aSIzZszw6bGw8yTgLwTevXundNGPHj0qK5aMk9IlC/rL0DgOEnCKwIDBk6TfwAnSvn17GTNmjFN1OVLY4wIsOvngwQMpWKigXLp4Sa3Etm7/nUf1JhwBxTIk4C4CL168lKG/jJRpk2dJwYIFZfPmzRIpUiR3Ncd6SYAE7CRw8+ZN7d9mAblz544M/qWTfN+qnnz22Wd21sLsJOAfBB4/eSbdfvxVps9aJqVKlZI1a9ZI+PDhPT64UBFgMUoIsTARtHXrVkmeMpnUrv+1fFm8sCRJlliiRInicRBskAQ8SeD58+dy/epN2bJpuyya+6c8uP9QateuLdOnT+ffvycngm2RgI0Ebt26JdWrV5f9+/dL+nQppXGDqlKi+BeSNElC7d8sf3DaiJHZfJTA06fP5dLlm7J2ww6ZNWe5PHr8VJo1ayZQsYkYMWKojCrUBFiM9uPHj0rpd9CgQXLmzJlQAcBGRWLFiiUxYsQQbJW9f/9efRteY54Y3Ecgb9680q9fP6lYsaL7GmHNJEACThPA8xE/MocMGSKXLl1yuj5WYJlAuHDh1KoeVrqxuoeP7vr+/fvy6tUry4WZ4jYCYcKEUTuF/fv3V+qgbmvIhopDVYA17N/p06dl3759gl+5L1++NEzitZsJ4A/Slu0w6C/jAc7gPAH8YEiaNKkUKVJEO+WcyvkKWQMJkIBHCRw7dkxgZuv27dsUplxEHu8hvI+sBb6HrNFxXxoWuvDO+vLLLyVZsmTua8iOmr1GgLWjz8zqBgKnTp1Snp+sVV2jRg3NDFp2a1mYRgIkQAIkQAIOEfj7779l165dFstCwG3evLkkTJjQYh4mBA4BCrCBM9chjnTZsmXyzz//mM2XOHFiadGiRYi/js0WZiQJkAAJkAAJhEDgzZs36jT769evzeYsU6aMFCpUyGwaIwOPAAXYwJtziyPGwwMK2U+fPg2Wp3jx4oIPQ+gSgIpNkiRJQrcTbJ0EAoTAixcvJFq0aAEyWu8Y5h9//CHXr18P1hmoWsHEYEgqBsEKMsJvCVCA9dupdWxgV65ckZkzZwr0jExDpkyZlMmMePHimSbx3s0E/v33X/npp5+UGZ/Zs2e7uTVWTwKBTeDy5cvSq1cvdS4D6lWedI8ZqOSvXr0qUCG4ceNGMAQ45Q5nEjFjxgyWxojAJUABNnDn3uLIN2zYILt371bp+LXbqFEjwSG7Q4cOqbg8efKo1ViuTFhE6NKE8+fPS7169RR/OjlwKVpWRgJGBGDeccCAAWonCj8aEUaPHi0dOnQwyscb1xGARYGNGzfK2bNnlTmmwoULq1XvFStW6BuB+bKcOXPq73lBAiBAAZZ/B8EIwNLAlClT5N69e5IrVy6pVq2ayvPw4UPZtGmT6FYkoIuED1cngiF0WQRWw7///nvBVibCt99+K1OnTnVZ/ayIBEjgE4GRI0dK10XmAAAYwElEQVRK586dP0VoV9hxunDhAlf/jKg4fwNb2LADDxekWCj5/PPPpVixYhI1alS1A4h3ECw8ZMmSRdnIdr5F1uBvBCjA+tuMumg88DgzQ3Nnim0bmHwyDNBPwlbPtWvX1C9l6MZiVTZs2LCG2XjtBIFnz55J69atZd68eUa1tGzZUiZNmmQUxxsSIAHXEMA5gIwZM6pnm2GNP/74owwcONAwitcOEsDKNiwNYJcP9sazZs2q7InGiRPHqEaocSxdulQ9B+ncyAgNb/5PgAIs/xQsEsB2mjV9VzifwNaPLh9cykFPlsE5Anv37pUGDRqYNZSO1dixY8c61wBLkwAJWCQwa9YsdVjIMAMEKDguoPkmQyr2XcMhDtTQsOoKW+8pU6aU0qVLW7Upqnu32NcScwcKAQqwgTLTbhonHkqHDx9WDyVsc6dIkUI9lJInT+6mFv23WrAcOnSo9O3bV61MmBtpx44dZdSoUeaSGEcCJOACAvh3mDt3boGjAsPQpUsXGT58uGEUr20kALUzqJ9BDS1+/PjqMDBWuhlIwBkCFGCdoceyegLYFsKWED64zpw5s3pIxY0bV5+HF5YJ3Lx5Uxo3biybN2+2nElL4UvUKh4mkoBLCKxevVoqVapkVBd0M7GtDQGMwTYCUDODuhnUzqJHj64O/+LHAdXNbOPHXNYJUIC1zoepdhLAKiy2iLAqiwDFfOjI4uHPYJ4ATtvicBa2y0IKPXr0kMGDB4eUjekkQAJOEvjiiy/kwIEDRrXw358RDos3eJZBvQxqZjjkC8sCBQsW5IFfi8SY4AgBCrCOUGOZEAngAYYtI5jf4gPMPC4cGOnatauMHz/erN1dc6V69+4t/fv3N5fEOBIgARcSWLlypVSpUsWoRqwiwla26YEjo0wBfMMFjACe/FAYOgXYUIAeSE0abiHBbuxXX32l9Mu4hSQCARYWBbCiCpNltoSff/5Z+vTpY0tW5iEBEnCCAJy5YAcJZp4MA+zEwqkIwycCpipkMH1VsmRJoQrZJ0a8cj0BCrCuZ8oazRDASiy2lKDED8sGOH1KJf4gUFi1GDNmjIwYMUKePHliht6nKJjygUkfBhIgAfcTgBmnGjVqGDWUOHFitQpL+9ciPMRr9KfBGw8ToADrYeCB3BwedvaaUQkkXjjsUKZMGatDhpWCbt26Wc3DRBIgAdcQwDMLB1LPnTtnVCEcjODQZSAHmlEM5Nn3jrFTgPWOeQioXugMWe/Zs0dZLOB2U9D0169fX+bPn2/1bwGegjp16mQ1DxNJgARcR2DChAnStm1bowrhodBUtcAogx/f0JGNH0+ujw2NAqyPTZg/dRdb51u2bDHrStCfxmnLWOAyEYa94ZnGMBQtWlQg6MO9L8Jvv/0m7dq1M8zCaxIgATcSgNF92Ld+9OiRUSt4dsHCircEOFrAcyJDhgxu6RLUv6AGpjuYS1fibsHMSu0gQAHWDljM6h4ChiZXIkaMqDe5Ej58ePc06IW14nBWv379jHpWrVo1WbZsmZw/f145N1i4cKGMGzdOuVY0ysgbEiABtxKA3rmp+bq6deuGuGPizk59+PBB2d1etWqV4ANnAQ0bNpTZs2e7tFkI8DCNCPUvBLgNh+COQ7kMJBCaBCjAhiZ9tm1E4OrVq8ro9Y0bN5TRa1gswFadOywWoC2seHpDwKor+oJVWMOA1Q6c5NWF48ePy+vXrwX2KRlIgAQ8RwDPpNSpU+t3QtAyfmwj3pq7bXf08OjRo/Lrr7/K2rVr1aFYwzZw6v/u3bsSLlw4w2iHrqHqhd2fXbt26Z3T4Hnk6fE61HkWCggCFGADYpp9a5DudjsIbzrFihVTBzMiRYoU6nAWLVokderUMeoHDo6cPHlSwoQJYxTPGxIggdAhULVqVYHTEcMAQfKHH34wjHL79fbt29Xzy1JDO3bskCJFilhKDjEeB9eg3wsVCah5wS04rMZAjYKBBLyJAAVYb5oN9kVPANtj2LLatm2bYAsLK5Q4oZ80aVJ9Hkcunj17plQUTpw4Ic4+6B1p31yZcuXKyfr1642SoCpgenDEKANvSIAEPErAnHtZ/NDED25PBui5JkyYMJhOrq4P3bt3lyFDhuhu7fo+e/as2gWDWhdWc0uVKqWsMNhVCTOTgIcIUID1EGg24xiBt2/fqi0s3UEmncUCRzzhQCiGZ501a9aozkCnDa4hQzNgCzJVqlSCvukC3O5CnQBefxhIgAS8gwD+jUKNAKfwDQO22HGgyZMBuq5z58412ySekdi9sSfgOQQzflCtwvMHOq5w4uAO9S17+sW8JGCNAAVYa3SY5jUEnj9/rg4SYGsL2+p58+ZV22hRokSxuY8wPzV69Gh9/kqVKgncRYZmGDRoUDCvPk2aNJEZM2aEZrfYNgmQgBkCOGiJA5eGATsl2DHxZFiwYIHUq1fPYpPwgIit/5ACLAvA5TdWkeGYoWDBgmqHik4aQiLHdG8gQAHWG2aBfbCZwP3795UpF2x14RAFdL0KFCggIVksmDJlirRs2dKoHaziYqsstPRM4aoyU6ZMwYyke5t5HiNovCGBACYAU1Xp0qUT/NvVhQQJEsjNmzfls88+00W5/Rse++LHj290qMywUfwAxg9hSwFqWVDPgpoWxpI7d27l5puWBSwRY7w3EqAA642zwj6FSABbXRs2bFAvjhgxYqiHLywWmBNGIRCWLVs2mI1VNAJd2KxZs4bYnjsy7Nu3TwnfhnVji/LixYtmx2GYj9ckQAKhQwCrlHv37jVqHBYBoMvuyVC4cGFlRstcm40aNZJZs2YFS4LFE51lAahn4Qc09FxpWSAYKkb4AAEKsD4wSeyiZQLQ9cIWGIyMYyUED2NDQ96woYoVWlMj5LoaJ02aFGxlVpfm7u8uXboocziG7WCLsm/fvoZRvCYBEvAiAmPHjpX27dsb9ciSwGiUycU3ffr0kV9++cVsrTjsCr1WXYBlAZjfwo95qGMlS5ZMWRbwFlOCun7ymwTsIUAB1h5azOuVBHC44uDBg2pL7NWrV+pQFCwWRI4cWel0Qd3AUgiNFw/6gm07rLZiJdkwwL94xowZDaPccg0bj4YHx9zSCCslAQ8QgPqQJ7fvYWcVAqDOOx6GGDNmTLl3757SI/XAkFUTUAHAYStLAXqtsJKA5x9sSkP9CpYFYMsVB70YSMDXCVCA9fUZZP/1BLAltnPnTrW9h5cLHtjz5s2Tx48f6/OYXkCIhF6bpwO2ILEVaRhy5Mgh//zzj2GUS64hLMP2LYRjfD99+lQZJndJ5ayEBLyAAH6sxooVS9KnT6+2xZMkSeLWXuEHMk7tGwaYwkO8pwKed9Djx492cwEHVqFepbMsANvXsCzgCicH5tpjHAl4mgAFWE8TZ3tuJwBbrwMHDhQ4KcDW2YEDB5TNV0sPemy1OWtf1t5Bde7cWUaOHGlUDNuBvXr1Mopz9gb6tHjR3rlzR+nVJkqUSL3oYSqHLzJn6bK8NxDAj1UY3MeBTJyqR8BBK6gT4e/dHWHChAnB7DSHhjUC6PbjLIBhgFBbokQJpduP1WmdZQEcemUgAX8iQAHWn2aTY1EEfvvtN+nQoYNeJxarMm/evFH2ZHFwCgcZDMPChQuldu3ahlFuv0afLly4YNQOtvoM9XeNEu28geC+bt062b9/v1KlgPtZbBvaY3bMziaZnQRCnQBO5x87dkx5ksK/AQh4+fPnd3m/YAsW+qOG1ghgtgqrneYOkrq8A/+v0NAMH/5tf/nll8rEIPqAH6/Q8ac9aXfRZ72hTYACbGjPANt3KQEIbbDvaqjfCUcBcIWIbUWszuIgA7bqdS+fdu3aCYReT4Vz584F03PNli2bHD9+3CVdwNjnz5+vBGTdKWOuvrgELSvxEQL4dw7PWbdu3VIrkBBkXR1gixpmqAwD7vPkyWMY5dbrrVu3KrUFHFSFVQL8O8fzRafzCoco7lqFduvAWDkJ2ECAAqwNkJjFNwjg0AI84kDH0zRgRQLmsrC1Fjt2bMFBDDzksQqKF47pi8i0vCvvoZsGpwqGwRn3j4b14HrVqlXqUJvupWaaznsSCAQC+CEHr3sQ6CpWrCj58uVz6bD79+8fzGIIVJd+/PFHl7ZjqTL8AMeO0uLFi9UqK2zR6rxp6cosXbpUqlevrrvlNwn4FQEKsH41nYE7GOi/YaswpANZ0PvEygm22rDlhkNNmzdvVp5oPLXVhtVgCM+GASeK0SdnA4T4RYsWKXWB8uXLO1sdy5OATxOAfiz+PeAHa+vWrZXxf1cNCD968SwxDF999ZV6nhjGueNat8oKywdwSgA7tObcx8JU3/Dhw93RBdZJAqFOgAJsqE8BO+AsAZiEglC4fft2m6vCAS9suUHohQke2JBt0KCBOuBkcyUOZMRhE5iyQZ91ASvCeBE5awoIK07jx49XOr7ffPON0/Xp+sdvEvBlAtCLhWcqHOyy5n7V3jFCxxbPDd3BMZTHFj5sTrtL1xwqETi0deXKFdUGLAvMnTtXYJvWXPCUQG2ubcaRgLsJUIB1N2HW73YCENamT5/uUDuGXrywOovDTlgJhVkedwSY2jH12FOnTh2Bb3NnA7yKLVmyROnEZc+e3dnqWJ4E/IYAdlmOHDmiLAfABaurAg5/YgvfMLjDnBZMAcJhC1ZZ8UMX6kFwow2BGQJsw4YNDbugv8aPYwjYnjxYpm+cFyTgZgIUYN0MmNW7lwC2x7p16+Z0I1WqVFGWCOC5C6uzRYsW1a/OOl25QQXQjxs8eLBBjMiUKVOkefPmRnGO3EB4ha1XmPNxdjXXkfZZhgS8lQBsQsO1Koz449+2q8LkyZOlVatWRtXheTR06FCjOEdvYPoPO0swBYgV39y5cyvnBfjhrQtQG7LmDhtqUjjIykAC/kaAAqy/zWgAjQeHlapWraoe7M4OG3ZRsdUI8zg4CIGtOnjXwaEvOBhw1QoGDpnBF7lhgD4bzGo5G4YMGaLs2VarVs3ZqlieBPyOwO+//64M/zdt2tRlY4OpKqgmGAaoJsGhijMBpv5wQAv1wAQgzOvBri1UFkwDVIegv//69WvTJHXPg1xmsTDSDwhQgPWDSQzUIeAhj4MUO3bsUJ9du3Yp/TNHecBmKk4q43QvtuOxZQehFmZo8PIwfVHZ2w70X2Fk3NAOranPcnvr1OWHVx6s7EIFwpUrTLr6+U0Cvk7gzz//VP+eO3bs6NKhwDwfzFXpAnZwYAklQoQIuiibv/HsgYk/qDzAFBieD9DvD2kFFSoFEHjNhd69ewssJjCQgL8RoADrbzMawOPBFhu20yDQtmnTxm4So0aNEsOXG1Y2INRiCw+rG2nSpFEvk8SJE9tdNwpgZdfU1WT9+vWVDptDFRoUghWGcePGCQ5teNIOpUEXeEkCXk0AuqmnT58WCHSuDDVr1hQIx4YBuywQKu0JUF+CdRJYTIDuKtQdYB/algA1BqgzmAvYkVm2bJm5JMaRgE8ToADr09PHzlsiYO2BbqlMjRo11CEo03Rs4UEoxgoHhFockIJqAXyv2xNgI9LUVSw85bRs2dKeaszmxQoQXmBYrYHKAwMJkIAxAeyoHD16VNludZVKEFr49ddfBeaqDAPcRJvaejZMN7zGv11YFoCuqs6bFnaC7HH1PHHiRIs/2l3pJMWw37wmgdAmQAE2tGeA7buFAMzLWDKrBQEUqxsQSrFdB1uRCFAVMNwKNO0YtgV1Xrx0FguwXW+rxQKshCxfvtyoWpyMzpUrl1GcIzcUYB2hxjKBRMBdAuzu3buVST5DlrBOABfV1gLUk9AnqCvh0CVM+sGyAFQQ7A3mdnd0dUAohvqSK4V2Xd38JoHQJEABNjTps223EYCpHGyrmwt4seAFg/D8+XN1qEqnR4uTyilSpDBXTB93584dvRcvCK8QYqF7GtLJf1NdObxYIBSHVE7fsJULCrBW4DCJBDQC7hJgsUMDqwCGuu04dHX27Fmz3KGOhB/XUE+C2hN+wEL1x9CygNmCViKxegsVJ0sBXrrw/GEgAX8iQAHWn2aTY1EE4BQgYcKEFmkcP37cZt0yi5VoCfD6hZUPCI8hWSyAdQNTwdgVp5V1/aMAqyPBbxIwT8BdAixay5kzpxw7dkzfcNiwYdUhLFg30QXs9EANCT+WIfTC8ggOh1p7VunKhvQN1Sb8mDYUog3LuMrTn2GdvCaB0CZAATa0Z4Dtu5zA1q1b1YqGuYqx2ontNBgAd0XAqWEIxDg1rLNYAD3UtGnTGlW/YsUKZfLLMBIHxnBwzBWBAqwrKLIOfybgTgG2cePGMnv2bCN8uoNcOssCUD/CjgtWQvGMSJ06tVF+Z2+w6ouDYObCtGnTpFmzZuaSGEcCPkuAAqzPTh07bonAhAkTlDF/c+kZM2ZUxv7NpTkTh9UVbAlidQVbhBBg8ZKCXi3CoEGD5KeffjJqYubMmYIXnysCBVhXUGQd/kzAnQLsiBEjpGvXrkb4cEATuvawLAC1Ixz61FkWcIc+avny5WXdunVGfdDd4NkzYMAA3S2/ScAvCFCA9Ytp5CAMCbRr106ZlDKM011Xr15dYNjbXQHCK4yP6ywWwCIALBbArNe8efOMmoUNW1eZvKIAa4SWNyQQjIA7BVhzh6igHgA1IWztwz019OTtsSwQbAAhRFh77tWtW1fmz58fQg1MJgHfIkAB1rfmi721gQBWObClby54aiUCW4XoA/Ti8NKaPn260pnV9Qk6clBlsNWCga6cpW8KsJbIMJ4Eggi4U4DFvz/TQ1JwfILdIBzydMSygL3zNnr0aIumu/Lmzavc0dpbJ/OTgDcToADrzbPDvjlEAI4GsGVnLsydO1fgPMBTAf3Att53332nbMjq2sXLzZK+mi6PPd8UYO2hxbyBSMCdAuyrV68kXrx4Ru5cU6ZMKVeuXPEY6pUrV0qVKlXMtgfHCI8ePTKbxkgS8FUCFGB9debYb7ME8JCOGzeu2TREHj58WHLnzm0x3R0J5kzcwGwOXqiu0oWjAOuOmWOd/kTAHQKsoe47VkANfzhj5+Xly5cuOzAa0lzAy1iWLFksZnv48KFyZW0xAxNIwMcIUID1sQljd60TgGMAS3qlrt62t96TT6mw+QjHCoYBRstxKhgHvazZbzQsY+06kATYf//9V7nbxAsZ/uJhqih69OjKX7wj/uetcfWmNIzX2o8zb+qrN/bFlQIsLAtAPQhqQlAXwq4PLI2sWbPGaOhwbZ05c2ajOHfdwDQX/i3Atqy54CqnKebqZhwJhAYBCrChQZ1tuo0AXlI4PGEuwLkBbMR6OuDwVoMGDYyabdu2rSRLlkzZg4Q6AQRZZ+xB+rMA261bNzl58qTATBBewvBcBCHWNECfGD9eqlatKnAl7E9h6NChAlfEsFoxbtw4fxqax8biKgH24sWLyv6zzrIADmnCux/cRMPaiGFYvXq1VKhQwTDKrdfWHLhg/OgrAwn4CwEKsP4ykxyHIrBo0SKpU6eOWRruMqFltjGDSAgfPXr0MIgRWbBggdJXg9ktmN+CIXIYQ8cLxhGPPP4qwMKDkCMrWLDBmTVrViPmvnyDg4kHDhxQW8R79+715aGEWt+dFWAhsMLaAARY/Fgy9cA3ceJEZW3EcICetr+KZ9y5c+cMu6C/Xrx4sdSsWVN/zwsS8HUCFGB9fQbZfyMCsL3YunVrozjdTcGCBQV+yz0dzJm3gaktmNhBgAMEbEXCIQL05goUKGC3T3R/FWBv3LgRTK8PLnghnGLFGoLE1atX5cKFC/pDKtGiRRPoA8I7mr8ErPBhnHA7CpUUBvsJOCrAmloUgfpPkSJFglkQWbJkidSqVcuoY0OGDJHu3bsbxbnzBs84Sz9wJk+eLC1atHBn86ybBDxKgAKsR3GzMXcTwDYrtvLMhUqVKglO6no6VKtWTZYvX27ULIQRU9eyEEKxwgMXtRDSYDsyX758NtmO9FcB9u3bt4JtUQSc6oYVCQiv5uxp4oeAjitOXftTgLoJ9H3xN7Fq1Sp/GprHxmKvAAudUuyQmNp0tvTDyJyue+fOnQVODjwVoK6wdu1as80NHjw42E6Q2YyMJAEfIUAB1kcmit20jQBeGCNHjjSbGfqD8H7l6QAbjHBaoAsQvvByhFtbcwGriRBk7969KxDEsH0Moc2axQJ/FWDBB/Y1YTMXh92OHj1qDpnfx8GLEw7nVK5cWQnxfj9gNwzQVgEW6jxQ64FAas6rnqWunTlzJpi6S6NGjWTWrFmWirg8vmHDhhb/PuApbNiwYS5vkxWSQGgRoAAbWuTZrlsI4GT/jBkzzNbdsWNHGTVqlNk0d0Ziq9vw8FjSpEkFW+PWgr3+0/1ZgIU7XtjZxCGugwcPWsPml2kQonQH/HiIy/EpDkmAxb85qPFAnQer+fi7w+FKuIW2JcBKBGzBGoayZctadO9qmM9V1+3bt5exY8eare7bb7+VqVOnmk1jJAn4IoH/AQAA///KBPr6AABAAElEQVTsXQW8FcUXPsADpLu7u0TpDsGgu5SwQEVFERUVTEpEBRUFEZFQQRBBugUpRQXp7gbp5v73G/5zmd23e9+NvXvrnN/vvbs7Mzvxze7st2fOnEnk0oRYGIEoQaBp06Y0a9Ys09a8++679MYbb5jGBSvw2rVrlCJFClIfsypVqtDq1au9KvLmzZu0Zs0aWrlyJV29epWKFClCDRs2pKxZs+quP3r0KH355ZcirmzZsrq4SD/JkCED3bp1i8qUKUOrVq3yqTmXLl2izp070+3bt+mbb76hjBkz0o0bN2jFihW0ePFiKlSoEDVu3Jhy5crlMd+tW7fSvHnzKEuWLFSxYkUqVqwYJU6c2OM16PM9e/ZQ5syZKV26dB7TqpGnTp2ibdu2ifsGfXn+/HkqUKCASPLCCy/QO++8oyZ3H6O87du306FDh6hkyZKUM2dOd5zxAGWkTp2a7rnnHnfUxYsX6e+//ybcS02aNNHFuRNF8AH6G+0bMGAAJUqUSNcS9NPChQtF29FX9erVI2BvTKe7yHAC/JMlS0Z4ZqXce++99Oeff8rToP8OHDiQ3n77bdNyWrRoQdOnTzeN40BGIBIRSKQ9dExgI7HnuM6mCNSoUcOS5Hz22WfUq1cv0+uCFYgXI0iSKq1bt6apU6eqQQkeX758mX777Tdat26dIGPly5enunXrUtq0acW10Upgr1y5QtmyZRNtrFq1Ks2fPz9BrNQEv/76K3Xo0EEEgeCDlDRv3pyOHz/uTob8ly9fbkr4zpw5Qy1btqQNGza40+MgU6ZM1K9fP3r66ad14Tj5/fffacSIEaKvzp49K4huuXLlCOQCfWYmGIY//fRT8RECAiolTZo0goB/8cUXIui9996j3r17y2jxiw+bPn36ENqK8qTkyZOHatWqRYMGDaL06dPLYNq8eTPVrFlTtBeEDmT5+eefF0QLRB+SPXt28dFk/FByZxKBB2YEFvcBiOuuXbsEYQculStXpri4OL9aiI8GPItScufOTQcPHpSnQf/FPYS+NJPatWvTsmXLzKI4jBGISASYwEZkt3GlrRCA5gnaMjP5/vvvqV27dmZRQQsDQahQoYIuf5AeSUh0EV6cgKAsWbKE/v33X/GShTYXpB1EKxo1sMeOHaOiRYsKZBo1akTow5MnTxLCT5w4IX7lMTBA2ldeecWtHYXWtG3btuL6Vq1aiRf46dOn4yHdpk0b+vrrr3XhIIbQRK5du1YXrp7MnDlTR0qh/e/Ro4fQlqvpcAxNPOIrVaqki4Lm87HHHhNEShdhcoL7plOnTu4Y3A9on6c6lipVSpBqqU0Ehk8++aTIo2PHjjRt2jS6fv26O095MGnSJNF+eR7pvyqBvXDhgniO/vnnH0qSJInoE5BX9FEggg+VjRs3urNInjy56b3gTmDzwcSJE6lLly6muWIGQ62baSIOZAQiCAEmsBHUWVzVhBGA5kjVrqlXLFiwQEyxq2HBPoapQLVq1XTFvPjii/TRRx/pwnw9OXLkiCA8e/fupZQpUxI0stD8wbwgmkwItmzZQiDpUjBtL7WEMsz4+8svv1CdOnVEMDROMCsxCsgsNG2YjgeBhGnBvn37dMlA8kD2IDAb6N+/P8GcARo7aFihHZ4wYYLQ6CINtLjQ7sLcAYIp+vvuu4927txJhw8fFmH58uUTJEKSSQS++eab9Mknn4h4aDyhoc+fPz+h7XPmzBFEXURq/yZPnkyPPPKIPKX27duLNAgAeUedYbIArd9XX33l1v7B9AIEBvLtt9/Sc889J47Vf7iHoKWTdXn55ZfprbfeUpNE9LEksNWrVxeEX5qlwFxA1VAH0kg8f4sWLdJlgY8Mu/LXZWxygvvl4YcfNokhYSajavdNE3EgIxBBCDCBjaDO4qomjACIiDqNql4BO1K8vJwUaEvr16+vK/L111+n999/Xxfm7wnIEQgVtJGQaCOwU6ZMoaeeespreGDTCVML2KhCzAgspv5BRiEqAYQmFx8DENiSQlOKqX1MC4MAwmxAyv79+wl/mKKX8uCDD7rNV9DnIL9SAwf7Q2m/C5IBrTkEpBkkFxrQ+++/n3744QdBQGWeiAcZh3YZomp8YQqAjyPUEXlAu5sqVSqRDvcDNP2STEHL+sADD4i4MWPG0EsvvSSO8Q/XQnsP+2pop6W97bPPPksffPCBO12kH+A5kRrIggULimclR44ctjYL9xP6UBX0IT5cnBDcY/LeMpYH297//vvPGMznjEDEIsAENmK7jituhgA0HefOnTOLEhpK2FE6KbBLVDVmKNvuxWQgMND+gaxFG4EF2QMpgIAMwl4Vf9BUyj8srJLHhQsX1i1wU21gkUfp0qXFfYBjSN++fQV5wzEIIexGISDNIM8Q2CvDfMGTwEZWan2Rxx9//KGbjlaJtEqghwwZ4v6YQRos+jEKTBugtYdgFkFqpJ955hn67rvvhLkEFqVB846p8ZEjR4o/LGCDgKDOnTtX4IdzaGahXYWgrlgkCFtbCLSSILAgOlj0Bk11tIjUwMIEA2Q9GIIFgzC9UGX37t0EwuyEoC+txjjYy1uNjU7UjctgBOxGgAms3YhyfiFFAIM0XuJmgsEd08ZOCjRfsK9U5cMPP9RpwNQ4f4+jdRHXTz/9RN26dROwYLofq/B9EUy5qwutxo0bJ6boZR7Qho8aNUqcwh4S5A0kDqYo8CBRokQJj/alMh+QPbl4Bp4uYIerCjwfYGofHxuwdwXJhDzxxBNCYwfibVwoJq9X2wCiiql+CLS/sLGGFha2j59//rkgp/BaIKV48eJCa6tqGlUCa0ZSoX2GGQ5sQlVTB5lnpP5KAmvmhcCuNj366KPio0LND7Mk6F8nxBOBxUeKem84UR8ugxEIJgJMYIOJLuftOAKwO5SaJ2PhWOhiXEBjTGP3OTRkeKmpEgxvCNFKYKHN6tmzp4Bv+PDhgvCpWCZ0DKxfe+01kQx2pX/99ZdYtCOvw+r9sWPHilNMLyMNVqRLTSi05ZKYymvMfkGu8WECwVQ+bEmNAhKJexMaeZBSCOwvoa2FdwKYB5gJ7iFoWyFLly4V9rg4zps3r9CUyoVHsMmVgnZA04tFi8YV9SqBhd00tNKxIE4Q2K5duwobYxVPfBDIhYhqeDCOMcZJDb0xfyawRkT4PNIRYAIb6T3I9dchABtAuJwyk/Xr14vpVLO4YIWBLBhtOKEFlFpFu8qNVgKrajahtYT20heBrTGm6SFDhw7VaWMRphJYaK/gxQLT7dJbBfxmNmjQAEk9CjTD6FcIbK2NC+lUrS76Xi6UwowAvGZ4S2DhVQEaV9zj0BIbBRpjtAlT/0biKtOqBFZd3CXjo/XXCQKLvh0/frwOQvQvNOFOCNzsWc0y4ePeanbKibpxGYyA3QgwgbUbUc4vpAhAGwX3R2YCh+JSs2YWH4wwEBXjtDdsK6Vdp11lRiuBVRdxYeU/XFT5ItBCSpdlsIfFtLgq8M0qPUL8/PPPQiMKUocFWRCjyYF6rXqsanoxnW/0fLBp0yb3AkKQaukFAIR8xowZwrsBvA7IRVhq3qrbK9XDgtTAIi3sXLEw66GHHjKd9geBhrsoiEpgzci2SBSF/5wgsLg/5YeMhBC21fgwckLwkW41y4R7Cx43WBiBaEGACWy09CS3QyCAhT5mPi0RieljaT/oFFyDBw92T2HLMkGUmjVrJk9t+Y1WAgvSgRX8EDMn/gmBp2pG4dIMPlFV+fjjj92uokaPHk3wiwo7QTigh2BhFvrLuOsWdlvC4hzp7QC2qXKxHkgyyLIqcI2FBVgQdSEWtMJoF0S1jRUB2j8QDkxLy2vhAkvigfJQLogpNngwIy6wuUX+INjwNID7TiWw8NgA36WxIE4QWNg0S5MUiSk+Xpwy04A5CrxZmAk8bFiZV5ml5zBGINwRYAIb7j3E9fMJgaRJk+q2clQvxiId49SuGh+MY9hGYtGIKlhZLzV8anggx9FKYGGXKt0CYYU3Fir5IlhtD8IGMdM2qtpN9JN0LwWvA3K7X0zHox+xYh/kFuQU7qXgRksu2IL9KXzFSj+b2FwAO2ZhNgCaY0lojbuJYVMGEA7pJgvmCrgOXhWwQAt2tbDJlYJdtaQ9LIgSzAUgmHmAthnmBSBLuB9wPTwYwM4VAo8L8DmrElh1UZhIFMX/nCCwMBeS95uE0slxB7NM0MabCe4RK/Mqs/QcxgiEOwJMYMO9h7h+PiEAbZSVo3uQIenM3adMA0g8bNiweCvSsbIe25PaKdFKYEEY4fIIBBEfJ9CIgtxBoAXFH1b4w7YPflyxgEXalyINiCa04JDZs2fr/LYiDOSucePGOBSbAMiFWPDdCTKoTrnCjybKUe8vmAJIn77QkkLTaiXwUQsTAOMiG3iq6N69u9VlunCjb1YsEISGOCFB3aGdgwsyJrADTM0sEsLQm3gsOIQmXxUnZ348EVjcf+pCP7WOfMwIRCICTGAjsde4zpYIYKoX06Zmgu1XjVPIZunsDMPULUiHKlhVDm2inRKtBBYYvfrqqz5pXrHqW7qNUm1ozfysgvTKFeKwS1a1Z7CFBUFVNaCyz+BeqkOHDoQPFOlDFXEgL9i9ymiHDf/EcHBv5aMT2kHcJ3LHLlkOfjHtj2noPXv2iLylD1fEQaMGG17cZ2bTwzCpwe5gMCMAeYWoO3HJhWsiIsr/OaGBhXbcOEvgpO09XLFhJsBMmMCaocJhkYwAE9hI7r0wrvvN2zfo0NkddPLiQbp0/RwlS3IPlctdh1IlSxfUWmPlNRasmAmmVJ2298MqeqN2DbaIci96s3r6ExbNBBbO1z/99FOxuhtT7p6kSZMmOkfy0DiB3IFkGr1ByHxgNgDtJLS1xp3aYE8NEgztPQgktpKF6yt4DciVK5fMQve7Y8cOoRXF6nMQSJBWmAZYpZcXg4BiFTnIKnbSgu9Q2LViARD6F3VA2dBEG+XUqVPCXy22FgZGaK/cbUol2LgOZg7wjQuSD8IeTb5ejbio504QWDzX2OlMFSdnfqDttVqoinvR+GGl1jNUx8cv7Kdj5/bSuaunNOXDbSqStSLlTFcoVNXhciMIASawEdRZkVLVC9fO0spd0+nGrWt023WHTCZKlJiKZb2fimevFNRmgGBYbZcIez/jKvSgVkbL/Mcff3S7ZJJlQWMmd1aSYYH+RjOBVbHBlD62O8UfzAdA5vDRggUq0DDCVRALI2CGgBMEFlp52FWrgg8fuT2vGh6MY5jEGD/CZDn4kAmnjQzwbli9dxadunhYVBHkFZImeUaqX7yTOOZ/jIAnBJjAekKH43xG4Nbtm7Rk+2S6fOOC+JqWGSSiRFSzSGvKmDK+70qZxo5fOHDH4hozgYN5uVLcLD4YYbC7hFZQFUzn9u/fXw0K+DhWCGzAQHEGMYuAEwQW44tcsCeBhkYcu7A5IVgg+vDDD5sWhUWIBw4cMI0LReDGwyto3+l/3UoO1CFxoiRUOMu9VDJHlVBUicuMMASYwEZYh4V7df86uJgOnt2uG5SgfS2erRIVy2bu3sXONsFEAFN2ZgL/nNgH3UlZsmQJ1a9fX1ckti+VC390EQGcMIENADy+NCYQcILAYpHh8uXLdXhi2h7T904Idq6zsq/HAlarsdGJuqllHDu/j9bsna0F3V2vkEgjr+lSZKLahdtoZi2J1eR8zAiYIsAE1hQWDvQHgaPn9tC6fXO0IenuoIQv6oypclD1Qs01HWwif7L16RqYCMBdkpnAFrJXr15mUUELM9ubHL5J4VrJTmECayeanFc0IuAEgYX9KexQpcDExcovtUxj56/ZolGZP8ZGmFGFWq7dvEKLtn2nmZhd16oi3xWJKC5xUmE6kCIpmwGFuo8ipXwmsJHSU2FeT6tBKWmS5NRAs2dKHpfSkRaYTeHJguFDEyvanRQsyDH6noWzc3W1ux31YQJrB4qcRzQj4ASBxe5oBw8edMMIu2x4unBKMLMD38RmAlMmuHELtaze84u2uPeQbpaONOVGlQIPU/a0BUJdPS4/ghBgAhtBnRXOVV2z91c6oa0mlYu27tQ1EVUr2JSypsnrWNVhIjB58mTT8kBeQWKdFOzWhNXkqqCOMGewU5jA2okm5xWNCDhBYOGq6tq1a274nJ62x2YV0pexuxL/P+jSpQtNmDDBGOzo+cGz22iDZmYmF2yhcMzS5c1YgsrnrutoXbiwyEeACWzk92HIW3D4v530x/4F2mTQnVWkqBAGpfyZSlHZXLUdrZ+ZI3FZAcQZfTTKuGD9YrW8cQEHdnmaN2+erUUygbUVTs4sChEINoGF9xN4QVEF7tMWLlyoBgX12GwrW1kgdnhTN/mQ4U79Xr15mRZunUC3NBeLUhJRYkqRLA3VL9aRkiSOk8H8ywh4hQATWK9g4kRWCFy/dVUMSnCZJQW2rncGpU6OD0rQsg4ZMkRWRfcbDM2nrgCTE2yqAK2MagcHkwJsL2mnMIG1E03OKxoRCDaBhf/fYsWK6aDr2LGjzi+xLjIIJ9gJDjv9mQk22Hj77bfNohwJW6vN0sHnqzpLh3dF7aJtKX2KO7vrOVIRLiRqEGACGzVdGZqGbDi4SGxYoA5KsGeqXaQNZUh5Z+cfJ2sGEwGs8jcT2MfClZbTki9fPp37mixZsghH9XbWgwmsnWhyXtGIQLAJLBZI1a6tn3GCv2f4fXZKoPFFO80kGP6nzcoxCzt2fi+BwBoX+GLTghLZK5tdwmGMQIIIMIFNECJOYIXAmUtHacUufO3LlaR3TAcKZSlPpXJUs7osqOEwEcB2jmaCHZHg6NtpqVKlitglSZaLnY9gJ2e2o5JM4+svE1hfEeP0sYZAsAks7Esfe+wxHazDhw+nPn366MKCeXLfffcRtq41k3HjxlG3bt3MooIaBt/gC7dNoKs3Lmvl3HlXwHQgVfJ0VE8zHUjMLrOCin80Z84ENpp7N4htw5c0Niy4ePWs8lWdiFJq9kwNincWNrBBLN4y6+nTp1OrVq1M43PmzGm617xpYhsDW7RoIbYWVbPEZgtYsWyXMIG1C0nOJ1oRCDaBfeedd2jAgAE6+DCd37JlS11YME+w49e+fftMi8DYiLHIadl6bA3tPLFBZzqAWbo6bDrgdFdEXXlMYKOuS51pEHZQ+efwct1qUgxKNQq1oMypczlTCZNSoH2AFsJMEidOTJcvX3bMqbisAxZPjBw5Up6K36VLlxKcntslTGDtQpLziVYEgk1god0cP368Dr4NGzZQhQoVdGHBOrl9+zalSJFCZ2+vlrVq1SqqVs3ZmbHL189r2tfvdO8JLPAtkKkMlclVU60eHzMCPiPABNZnyPgCOKBesHW85oj67sItDEq50hehinkbhhQgs1X/aoWw0KJIkSJqUNCPsfIXmxeo8vXXX1P37t3VoICOT5w4ITws1KtXz7EXZkAV5osZAYcRWLBgAW3evJmwmCkYUrduXVq2bJku6zNnzsTzTKBLYOMJPmIxy2Ql2EYW28k6KWu1jW2Oa7tu3V0jkUjzCZ6CGpZ4VGxc4GRduKzoQ4AJbPT1adBbtPnI77T71N/KoESat4Gk9ECJx8TgFPQKJFBAmjRp6OLFi6ap4NIGCx2clNmzZxOciKti93ayV65cEd4XKleuTDVq1FCL4mNGgBHQEJgxYwadOnUqaDapIIeHDh1yY50+fXo6e/as+zzYB+vWrSM8/2YSFxdH2NI2SZIkZtFBCTNbI4EtYu/P14hypisclDI509hCgAlsbPV3wK29cuOipn39Nt6UUOmc1alg5nIB529HBqVLlxaaFrO8xo4dSz169DCLClrYli1bqFSpUrr827VrR99//70uLNAT7MJTsGBBgrcFFkaAEdAj8M0331DKlCnp8ccf10fYcHbu3DkCYVUFZBJbSTslsLeFGy0zAbmGBtZJWbbzRzp3+aS2RuKOf3CQ14wps1PNwuZrFJysG5cVHQgwgY2OfnSsFdhF5dDZ7Yr2NRGlSpZWLNzCABUO4mk72TfffJOw2MJJgXY0derUBBs1KbCLg32cnTJp0iSxjSU2bIC9LwsjwAjcQQCbDMBsp2bNmlS/fn3bYVm9enU8+1LYxGLlv1MyYsQIS+0ybF9hA+uUHNPMBu64zbo75mGNRL1iHSjtPZmcqgaXE+UIMIGN8g62s3mXrp0TBvnSFQryhiPqKgUeoWxp89tZVEB5wY2W1Y5bodpOsVChQrRnzx53u7C5wYULFwhTe3YJFrDBz22zZs3ibV9rVxmcDyMQiQiAYMKFHnaqypXL/kWmIMdGze6wYcPo5ZdfdgyuXr160RdffGFaXocOHSy32Da9IMDAxdsm0YVrMJ+44zYLayTyZChOFfLUCzBnvpwRuIsAE9i7WPBRAgj8sX8+HTm32619hcY1gzYlVCvMpoSGDh1K/fr1M21NrVq1aPny5aZxwQxs3rw5zZw5U1fE1q1bqXjx4rqwQE6w2xcWjIEcwx8l/M2yMAKxjgBmQGA6lC1btqCZD8HXKzSgqsyZM4cefPBBNSiox542MXByF64j53bReu1d4XLd1b6CwD5QsivdE5cyqBhw5rGFABPY2Opvv1t78dp/tGjbRO36O1/UdzIK3Y5bnhry448/EmxMzQS7Yln5STRLb1fYG2+8QbBRVQX1bNOmjRoU8PH69evp119/JWza4LTLnIArzxkwAjYjgK2cf/nlF9q1a5fw+mGn72W1qmYeCOz29ayWZ3Zs3PFPTfPdd99R586d1aCgHeM9gfeFfFeAvBbJeq+241aVoJXJGccmAkxgY7PffW71nwcW0uH/duq0r9nS5BPmAz5nFuQL1q5dS9j9ykywChceCqCldFJ++OEHat++va7IYGhF8MKePHky7dy5U2h/SpYsqSuTTxiBWEIA27vio6569erUsGFwXPzBtj1Dhgx0/vx5N7SZM2emkydPus+DfWBmZ6+WiTGxUqVKalBQjo+e20Pr9s/VaV/jEiejRiW7UdIkyYJSJmcauwgwgY3dvve65ZevX6CF8Dxg0L6Gq0E+XhxZs2a1bB9eaFabHVheFGCEmScCTC9imtFugbscLB4BDtDEgsyzOYHdKHN+4YzAzZs3af78+bRt2zYqVqyY+HgM1jMAUyDjh2Ljxo1p7ty5jkG0ceNGKlfO2guMU/5ol2yfQuevntbafdf2tXj2SlQ0q/nmMo4BxAVFJQJMYKOyW/WNgjH9tmNr6eSFg3Tj9nXKri24ui/vA8J3qz6l+Rl23Np/erNO+5o9bQGqnP8h8wvCIBQLNY4cOWJakzFjxsRbcGGa0MbAW7duCS0NFm5JgZYGGxAE48UKEjtt2jQxdZolSxbhG7ZAgQJBKUu2h38ZgVAjAOIKQokFW5hpgdYRZDKYXjkmTJggbM7Vtjvt7QSzLp06dVKr4D7G849xJiG5efsG7Tjxh+ZlZgfBXWLKpGmocoGHvfYacPLiQfp990ydogPa18aluvOmBQmBz/F+IcAE1i/YIuci7JY1b8s3gnxKo3rYJKVPmZWqF2yukVjPq+Cv37pK8zaPc5PXOy0Pf3coDz/8sKV2E14KRo0a5XgnYpcsbCGrCqb6CxcurAbZdgxzAjg3x6I1bKELH5j58+cXRDpVqlSOOjW3rVGcESNgQODGjRt06dIlsUkB7NtxnjFjRmEyUKJECUNq+0+fe+65eOMJFmw2bdrU/sIscsSiVSxeNRPY5y5ZssQsShf2+56ZdOriYfdYj0W6eD/UKtzaKxK7cvd0On3xiJvA4j1TLFsl7Y+1rzqg+cQ2BJjA2gZleGZ07eZlmqsRUDmlI2uJwSVT6pxUrUBTTStn7TN0+/H1hD+5FSDSZkmdh6oVdG5wlnX25bd///70wQcfmF7itE9EWYlXX31V7JYlz/EL360dO3ZUg2w/vnbtGv3zzz+0fft2sYAN2mAWRiDaEEiWLJn4GARpxcYhwdS6qthh6h5T+KpgW9fs2bOrQUE9hjnSvHnzTMt4/vnn6eOPPzaNUwOX7fiBzl3BxgN3F+omosTCdrV20baav+90anLdMcwGYD6gvmdAfhuX7MG2rzqk+MROBJjA2olmmOa16+TftPnoKp1hPaoKEps7fVG6N28D05rf1tygzNv8NUELe1cSCbdZGVPluBsUhkdTp06ltm3bmtYMmwpg5xynXnCyEtjKsmXLlvJU/D777LM0cuRIXVgwT7DgBNoqmDIwkQ0m0iQW08EW2+mti4PbqvDLPWnSpITtozHDEAxzHE8tPn36tLC3VzcpKVKkCO3YscPTZbbHeTKZgo/a7t27J1gmyOvyndP+r6xQSKymtEiRNDXVKdqekiVJbpqPcZEv3i2FspSnUjmqmabnQEbADgSYwNqBYgTkse34OqFJlWYEssrQqJbOWYMKmWwDe1DbcWvDwUUK8U0kTA/qFDEnhjLPcPjF1HzRokUtqwJtpKd4ywsDiIBWJmfOnLocsO3tpk2bdGF8Eh0IDBkyRGzta7ertOhAJzpa8fPPP1OLFi10jcGGBrCzd0rsXLR6+tIRWrX7Z43EwofrXRILQpoxVXaqXqiF2LxGbdv1m1do7pZxyntC2+BGe680KqH5fU2aSk3Kx4yArQgwgbUVzvDObPPR32nXyb90Aw1qjGmimkVaiX2q1RYs3fG9NqV0Sgu6M5BhUKqU70HKka6gmiwsj6ERwd7k6qIptaJwa2WloVXT2X2MjQtAnqVAY3Ts2DGPXhNkWv6NLAQGDRokPpJatWoVWRXn2nqNgNkGBk76XEVF4e3goYfMF9TCbSDGwBQpUnjdplMXD9EqzR7WqOwAiTXz57rjxJ9ikbA0M0usvSdypS9CFbWFwiyMQDARYAIbTHTDMO+/Dy2lA2e2um1aUUVsB5tc+1JuUKwTxf3fV99/2nQSbKIkeUU6fE3Dnx/SR4Jg3/OVK1eaVvW1116ztJE1vcCmwJ49e9Lo0aN1uYWKTOsqwSe2I/Dee+8RNOzYhY0lOhEoW7ZsvBmUAwcOUJ48eRxr8MCBA+ntt982Lc/fGZ5j5/fR2r2zdfawdwpIRDULt6RMqe7MJMFedt7mb+jazUtK+YmormZukC5FZiWMDxkB+xFgAms/pmGdIwacdXvn0PEL+3UkFl/XudIXdn81/3VwCR08u82dBvElc1SlwlkqhHX71MqZrQ6W8cHywSrzt/o12yXs6aefttzD3CofDg9/BN555x0qX768o6vRwx+V6KnhoUOH4hFVeBSB+ZKT4mkBV48ePcQ2uv7UB4qOvw4uNpBYTdmhbQfbsHhnoew4rhHdNft+VbS1ibTtxbNS7QgwM/MHE74mvBBgAhte/eFIbW7dvkkrdk3VHE6fUQaeO5rYSppv1yxp8tCcf8dq5PWmuz4wH3iwVA/NiN/ZHazcFfDjAIsXYI9mJlhcg6l7pxd9wB8jVifDxZWUAgUK0J49e+Qp/0YJAtCM3X///QSXbizRhwDsXJ988kldw/DR/Omnn+rCgnmCcQT+pLFRgZl89dVX9MQTT5hFeRW25ehq2nlyg+49cUfZAROBhrR67yw6cf6ARnJhM6u9QzRFR0VtUTAWB7MwAsFGgAlssBEO0/yv3rhEi7dPJviJvWsmkEhzeZJc+O3DwCVtmkBec6UrTPflaxSmrTGv1p9//ulxxy25S4/51cELhVYObq1U2bx5c7zdfNR4Po4sBODh4d1336XKlSuLLX0jq/ZcW28QgEcReBZRBTvrQSPqlMCeHnb1VoJxBmYO/ouLVu+ZRSc1u1j5PriTVyK6N099bZHvYu307sc4TNAeKvW48HDjf5l8JSPgHQJMYL3DKSpTwVh/pbbiVB2A8HV9Z6CCnascmBJRjcItKHOqXBGFAxyaY49yuI0yk1DsyIV6mPmohRPyvn37mlWTwyIQAdx777//PsHn8AMP8GKWCOxCj1W+fv260Hyqi0SxUAputXxZMOWxEC8iPc0ywV3gf//9F/CGJVByLN4+ia7euKzV6O47AcdQbsjFXnh3FMhchsrkrOlFzTkJIxA4AkxgA8cwonOAZ4Ldmp9Y/de1vknwAYjFW5EoDRs2pEWLFplW/dFHH6Vvv/3WNC6Ygdjmsnr16roiateuTcuWLdOF8UnkIoCtfAcPHiy28GU/sJHbj1Y1//XXX+mRRx7RRcMTAMKdlC5dutDEiRNNi8TOf4sXQ0MauJy5dFQzO/tJy0gSWPM86xXr6NWuXeZXcygj4BsCTGB9wyvqUsPf3xLt6/rStfPa0HTHjkltZOJEcZpJQUWxJaAaHinHWEgzYMAA0+qGyvYU08uwgz11Ci7K7khcXJywyc2UKZMM4t8IRgBb90KrXqtWLQKRYIkuBLp160bjx4/XNQreRZ566ildWLBP4O0Ai8nMBDbYVmOfWfqEwv49sor2nPrHUtmR5p6MVF/zZMPCCDiFABNYp5AO43LOXj6u7cAyVauh+dd1wxKPetxGMIybRkuXLvVIIPbu3Uv58+d3vAnQ/sJfpCqhMmlQ68DH9iCAqeXhw4cT9qGHdp0lehCAeUi2bNno7Nmz7kbB3+qRI0cc9ee8a9cuwq5fVoIZHTvvPSz+XbRtIl25cVErUv+ugKKjlOalBrtvsTACTiHABNYppMO8nI2Hl9O+05vjfV2nS5FF+PQL8+pbVg+aMNjBwmbNTAJdpWuWpzdhZjv4wNxhwYIF3lzOacIcAWxVPGLECKpfvz7BHzFL9CAwb968eAu18KGyZMkSRxs5duxYSw8DsMMFwU6e3HzrV38revLiQW2nrpna5XoCCx82jTUzM955y19k+Tp/EGAC6w9qUXjNzVvXacHWb+nG7evCKB+bFcBAv3TO6lTQZJvZSIIAWogVK1aYVrl169Y0dSq0z84KbCShxTl//ry7YJgRQIuTJUsWdxgfRCYCcGsEd0pYwIWFXCzRg0DXrl3j2c5/9tln1KtXL0cbiZ0ErcauYBLq9fvn0dFze9zKDizeypAym7bBAe845+gNwIURE1i+CdwIXND8wu47/a82RXSJksXdI7aWzZOhuOO+Ut0VsukAOyK9+eabprlBO4u9xDEF6LSYLcAIhR2d0+2OhfJg3zxq1Chq3LgxValSJRaaHBNtvHjxIuXIkYPwKwVjx8GDB0W4DAv2782bN8WHLrwMmAls/63GPLP0voTdvH1DLPw9f/W0cJcF29d8GUuIDQ58yYfTMgKBIsAENlAE+fqwR2DdunXCH6dVRdesWeMx3uq6QMNnzZoVb5emGjVq0G+//RZo1nx9iBHAhhWff/652MQAmxmwRAcC8FoCDawq0LLPnz9fDQr6McYILBC0klCNaVb14XBGIBgIMIENBqqcZ1ghgFX/2HnLareat956y3Iv8WA25Nq1a0Jroy4Gwc5g2GChaFHeySaY2Ac776NHj9KXX35JTZo0oYoVKwa7OM7fIQTgUQILQ1WZNGkSdezYUQ0K+vHrr79OgwYNMi0HO3MdP36cEidObBrPgYxAtCDABDZaepLb4REBT/Zi5cqVo7///tvj9cGKfOaZZ4SmTs3/tddeow8++EAN4uMIQ+Dw4cMErxLNmjWjChUqRFjtubpmCOzbt48KFSpEt2/fdTeYLl06wseKk5sXoG64p6zGrE6dOln6hjVrF4cxApGKABPYSO05rrdPCJhN/akZhMqd1h9//EHGKeZcuXLR/v37Q2KXq2LCx/4jcODAARo3bhxhu9HAtvL0vw58pb0I4MMSm1Oo8vjjj4sPFTUs2McYG+DD2uUyegK4UzI2NgCJZWEEoh0BJrDR3sPcPoEAFtVg8wCYE5jJJ598Qr179zaLCnoYCM6mTZt05cA+1rjTjy4Bn4Q1AtDWwdE9vFyULl06rOvKlUsYAZj7YNMALPhUZdWqVY57mYB7tj59+qjVcB/DbADmAzAjYGEEoh0BJrDR3sPcPjcCntxp2bntortALw/MXkiNGjUi+JtkiUwEdu/eLTaqaNeuHZUoUSIyG8G1diOATUew+Ygq5cuXp7/++ksNcuQYfoVXrlxpWhYvAjWFhQOjFAEmsFHasdys+AhgZ6SXX345foQWAh+ssFvEYi+nBdphaHfgG1YKL+aSSETm786dOwmLezp06EDFihWLzEZwrd0IwBXa2rVr3ec4CMUmKMeOHSOYGKl2uGqlPvroI3rxxRfVID5mBKIWASawUdu13DAjAgltvRgKZ+Syjt27d6dvvvlGnopfmDTAtIEl8hDYvn07TZkyhTp37kyFCxeOvAZwjd0IwCVV1apV3ec4gP/oQ4cOUcqUKXXhwT754osvLDdMwEcvbPnz5csX7Gpw/oxAWCDABDYsuoEr4RQCmPb7559/TIvD1JzVjl2mF9gYuGHDhnjultKmTSscpOOXJbIQ2LJlC/34449i2rlgwYKRVXmurQ6BFi1aELZ+VgVaTmg7nRZPZlD33XcfrV+/3ukqcXmMQMgQYAIbMui54FAgAN+J8KFoJlgAgRW+uXPnNosOehjs17AoRJWhQ4dS37591SA+jgAE/v33X5o2bRp169aNNWIR0F9WVYRP5lKlSumm7GFuBA270x8mCXkfgOs9eEpgYQRiBQEmsLHS09xOgcCePXvElK6VC5oPP/yQXnrppZCg9cMPP1D79u11ZWPbSkwLJk+eXBfOJ+GNALT8M2bMoB49egj75vCuLdfOCgH0H9yhqYJnFOYhTounj2+YD+zYsYPNVZzuFC4vpAgwgQ0p/Fx4KBAwW5Ah61GmTBnauHGjPHX0Fy6+sAMXSLYq2NHpySefVIP4OMwRwOr0mTNn0hNPPCEW3YR5dbl6JgjAxhUbF1y/fl0XC3OfUGxOAU0wTFPMBGPa6tWrzaI4jBGIWgSYwEZt13LDrBAwc1ulpoUdGezJQiGjR4+mnj176orGIiBMZSZJkkQXzifhiwA2qJg9ezY9/fTTwv9w+NaUa2aFAJ5DPI+qPPDAAzR//nw1yJFjMxt5teBRo0YRdvVjYQRiCQEmsLHU29xWgQC2fsybNy/dvHnTFJFevXoRPBKEQuBKC7vswF2OKthJzOiHUo3n4/BCYN26dTRnzhyxYjwUrtnCC43Iqw3MdooXLx5P+7pkyRKqW7eu4w0y23JaViJp0qR05MgR3rxAAsK/MYMAE9iY6WpuqIpAkyZNhIZMDZPHcJGDF8I999wjgxz9HTJkCL366qu6MrFgBFpYvKxYwh8BTOdCU/fcc89RpkyZwr/CXEMdAmZu7erUqUNLly7VpXPi5PLly5QzZ046d+6caXHYsQ8797EwArGGABPYWOtxbq9AYPr06dSqVStLNOCEvmPHjpbxwYy4cOGCWOGMDQ5UgQ9ITEmzhD8C8CaxcOFCev7554XP0PCvMddQIoDFULA3Nc7QwMUeXO05LdiSGN4srATu2tq0aWMVzeGMQNQiwAQ2aruWG+YJASzMgLss497m8prq1atbbtco0wTzF94QjO6zsAMPdnhKkSJFMIvmvG1AAGQH083Ys579+NoAqINZtGzZUniQUIsMle0r6lCtWjXLBVowTzl48CAlS5ZMrS4fMwIxgQAT2JjoZm6kGQJwRv7xxx+bRYkwrCTHxgehkCtXrgiXODBlUAXmBa+88ooaxMdhiMCyZcsIf9i6OHXq1GFYQ66SGQLLly8nmAoYBdvIVqpUyRgc9PNNmzZR2bJlLcvBWIAxgYURiEUEmMDGYq9zmwUCcElTunRpsvIJCxdI2O88VPL555/HW1kMbR60sLwwKFS94l250L5CC9uvXz/WmHsHWchT3b59m+6//37Cin9VYGqETSlCIXCfN2bMGNOi4fsVGyoUKVLENJ4DGYFoR4AJbLT3MLfPIwL16tWzXJiRKlUqsd95+vTpPeYRrEiYOZQoUSKeX1i81OAbliV8EYD9K+xgsTMSb0IRvv2k1gyePrp27aoGib7bvHmz8Aeri3DgBDbw8JaC2Rgzwdi1ePFisygOYwRiAgEmsDHRzdxIKwR++uknat26tVU0hXorV7P6wR8stESephYtG8QRjiAADwTwRNC/f3/2HOEI4oEVghX+cJtldF8HE5Bhw4YFlrmfV2NrWNw/VoKd+9q2bWsVzeGMQNQjwAQ26ruYG+gJAaw0ht9V7LpjJljotXv37pAukqhdu7aYjlbrBzs9TFNjGpEl/BCAD1j4gn3rrbcoceLE4VdBrpEOgWeffTae7+fMmTMLc51QzMDcuHFDjEuHDx/W1VOe5MmTR8zMxMXFySD+ZQRiDgEmsDHX5dxgIwLvvvuuIBrGcHke6k0EoG2FbR5s9FQJdb3UuvCxHgHswoXduAYOHKiP4LOwQwA772ErVuPzFUq3dRMnTqQuXbpYYjV48GBhX22ZgCMYgRhAgAlsDHQyN9EzAnCllS9fPktbszJlytA///wTUm2nmWP1LFmy0NatW9lRvufuDUnszJkzaePGjfTmm2+GpHwu1DsEbt26JbwLGBduweMATEBCoT3HolKYB/3777+mjUiZMqVwnZUxY0bTeA5kBGIFASawsdLT3E6PCJjte65egCnhBx98UA1y9BgkGzZ6Z86c0ZULYvv111/rwvgk9AjMmDGD4OXCkw1j6GvJNTDztwwbc2hlK1SoEBKA8PHTvHlzy7KxmQm0wyyMQKwjwAQ21u8Abr9AAK6pQBCN04gSHjgTx6ryUAqI6uOPP66rAmxgYQtr5rtSl5BPHEUAi+9wTxm3BHa0ElyYQABaVizSMmosMXtx77330tWrV3VIYfc0T/6hdYmDcFK5cmVhP22WNTTC8IqAsYqFEYh1BJjAxvodwO13I2C2A487UjtYsGABNWzYUA1y9BhTi7Vq1Yq3QxgWoWG6mh3mO9odHgvD9p779u3jTSc8ouRMJDYDgEYT20eXK1dOFApSi932sEGBKli0Cc15mjRp1GDHjuEWq0GDBpblhdInrWWlOIIRCBECTGBDBDwXG34IwOYNmlYrqVGjBv32229W0Y6EQ/sCrRF8xKry1FNP0ejRo9UgPg4hAt9//73wbAE3TCyhRWDs2LGETUng1xnH7du3JyyCgo9eo4TaVMjM44haRywMrFixohrEx4xAzCLABDZmu54bboYAtB+enIMjDg7EQylvv/12vNXtMCWYN28eYc92ltAjMGnSJDpx4gRhu2KW0CJg3M0KsxgwB4IWVpUePXoIgquGOXmMGZ5GjRpZFok4POMsjAAjcAcBJrB8JzACCgLQsOIFZyWYdly5cqVVtCPh8BFZtWpV+vPPP3XlYfoT3hKMtn66RHziCALfffedWHAHe0qW0CJQvnx58Vx4qgV2vIIZTrp06TwlC1oczINg+4rFY1ayfPlyj2OT1XUczghEKwJMYKO1Z7ldfiPgaXtZZIpVwk2bNvU7fzsuhIud++67j65du6bLTtr68QYHOlgcPxk/fjxdvHiR4CCfJXQIXLp0SZBSo7ZVrRGeFeycFkr79p9//platGihVkt3jI9qEFgWRoARuIsAE9i7WPARIyAQWLZsGdWtW9cSjVKlSgmNDtzthFKGDBliusr9008/peeeey6UVYv5sseNGydWt/fq1SvmsQglACtWrCDYlXoS7Gp14MABT0mCGgfPJ9ASY7GZlaAdNWvWtIrmcEYgJhFgAhuT3c6NTggBEFgQWSsBQenWrZtVtCPh0CpBW4yXmyrJkycXTthD5cdSrUusHo8ZM0a4ZMPiOpbQITBs2DCvPEH06dOH8EEYiq1ZMZbA/tZK2PbVChkOj3UEmMDG+h3A7TdFAO51YGcK2zQzgdZm+/btlCJFCrNox8IOHToktDenT5/WlVmkSBFhTxcqmz5dZWLw5MsvvxS7OGH1O0voEGjTpg1NmzbNqwrUr1+f4D0ic+bMXqW3IxHMTIoVK0ZHjhwxzQ7mDevWrRPmQqYJOJARiGEEmMDGcOdz0z0jAJ+L8B1pJe+8805YbBU6e/ZsYZNrJNuPPPKIsNcNxXaYVpjFSjh2SoImHDulsYQOAWwR7Yt5AD5aMfOSLFkyRyo9YMAAwjhiJbCL9TQGWV3H4YxALCDABDYWepnb6BcC27ZtozJlytDNmzdNr4dfSezmA21sqAXumsx2D3rrrbcIbrdYnEVg1KhRYmOJrl27Olswl+ZG4OjRo5QzZ073uacDaEHhs7dLly7iw8NTWrviMHuCci9fvmyaJcwZ4FWkZMmSpvEcyAjEOgJMYGP9DuD2e0TA6EPSmLhDhw40efJkY7Dj59jYAItV1qxZoysbU5AzZsygZs2a6cL5JLgIYCFd+vTp6dFHHw1uQZy7JQLwFgKvHJ6kSpUqwkYWz4fTMxUgyxMnTrSsXs+ePenzzz+3jOcIRiDWEWACG+t3ALffIwKwTYOWBLZqZgKCCN+x8A8bajl8+LCwlTt27Ji7KqjfwIEDCZpYFucQGDFiBGXNmpU6derkXKFckg6B/v370wcffKALwwmeiYceekgQV08+n+NdaGMAXGJhoajR7EcWAdv1HTt2iHtIhvEvI8AI6BFgAqvHg88YgXgIDBo0iF5//fV44TIALnDggDwUK5hlHeQvNlnAYhRoZGHigBXObdu2ldH86xACw4cPF9PX0NCzhAYB4656SZMmJfRH3759qXTp0qGplFYqNiKBhxBsC20l2Oq2X79+VtEczggwAhoCTGD5NmAEEkAAmwXA9+vu3bstU3744Yf00ksvWcY7GYEFRCBQMB2ADS+L8wgMHTqU8ufPzx8PzkMvSoRvVexId+7cOWGLDG8QsBMPB3v1hFx74b6Bbf0999wTIvS4WEYgMhBgAhsZ/cS1DDECCe2UA20nNCpY9RwOgh2IUCeW0CAADVrhwoWpdevWoalAjJcKAogpemzogc0kMmTIEBaIHDx4UCzKsjJJQiXhdcDTrlxh0RCuBCMQBggwgQ2DTuAqRAYC2Gpy0aJFlpWF26pZs2ZZxnNE7CDw/vvvC6LCRCQ0fQ6/yClTpgy5n2Zj65s0aUJwe2clsM399ddfraI5nBFgBBQEmMAqYPAhI+AJASyqKFu2LMGkwEp+/PFHgvN0lthC4OTJk2JxEFayY4thLOLC4j8QWJwjHH9YQMQSmwhMmjSJOnfubNl4mAz8+++/VKhQIcs0HMEIMAJ3EWACexcLPmIEEkQAPlWxqt9KsmTJIkwJ8MsSOwhg2nfjxo0eG4zFdOzT0yNEURt54sQJ0ffGHfPUBmNsYW8hKiJ8zAh4RoAJrGd8OJYR0CEA7Wu5cuXENrK6COUEdo9Tp05VQvgw2hGABhY+O63cIsGhPnwKs8QmAvh48TQmYOtnfADxwq3YvD+41f4hwATWP9z4qhhGAFtN1qtXz5KsABrsqd6uXbsYRin2mo4+x+5tZgKn9Tw1bIZM5IfB+wi2g7VaNAni6smVHcxKli5dKjYiiXw0uAWMgHMIMIF1DmsuKYoQ6NGjh/CxatWkzJkzC3u2bNmyWSXh8ChDABtJjBkzJl6r4BaJt5SNB0tUBKDPc+fOLfy6/vLLL+JYbRjiYTd/5swZNVh3zDtu6eDgE0bAawSYwHoNFSdkBO4iAP+S8LEKtzhW0rhxY5ozZw4v3LECKArDJ0yYQHv27NG1DB874eB/VFcpPrEFAWjd5WYVMBOBu737779f5A1zkgceeMCj55K8efOKD900adLYUh/OhBGIJQSYwMZSb3NbbUVg/vz59OCDD3o0JcBq9BdeeMHWcjmz8EVg79699O2337orWLRoUerYsaP7nA+iC4FnnnlG2D7LVsF11/jx44Unko8//lhsniDjzH7nzp1L+NBlYQQYAd8RYALrO2Z8BSPgRgALc8ymjWWC5MmT05o1awjbzbLEBgJjx46lQ4cOCc37U089RdmzZ4+NhsdgK2EesGnTJl3LYdMK92nw5+rJ5V737t3p66+/1l3LJ4wAI+A9AkxgvceKUzIC8RA4f/68sHHbv39/vDgZUKJECfrjjz+EY3UZxr/Ri8D27dtpypQpVLp0ad6JK3q7Wdi1wl0etq31VbCg76+//iI2HfAVOU7PCNxFgAnsXSz4iBHwC4HffvtNbFt569Yty+sfffRR3dSyZUKbI65fv05btmyhI0eOkKftK20uNuazgx0sFvckS5Ys5rFwAgDMdEDTjc0j0qdP70SRhEVbzZo187msuLg4WrFiBVWtWtXna/kCRoARuIsAE9i7WPARI+A3AnBA/u6773q8/ssvv3TMFyh29Bk0aJDYthJaYhZnEYBm7cKFC84WyqVRXNKkVKtmLXr++d7UtGnToCLSt29f+vDDD30uA2MFNi1gYQQYgcAQYAIbGH58NSMgELh58ybVqlWLVq9ebYkInJSvXLmSKlasaJkm0AjUo1+/fvTJJ59oW5jGUa26DahGrXqUI1duSpUydaDZ8/WMQFgicP3GdTp5/Bj9uX4NLZw/m86eOU0NGjSgyZMnU7B2xatSpQqtXbvWJzwqV64sxgBoYVkYAUYgMASYwAaGH1/NCLgRwAr0ChUqEFxsWUmBAgWEPWzGjBmtkvgdfuPGDWrevLlw3dWwcRPqP3Aw5c6T1+/8+EJGIBIRuHTpIn312QgaPWq4cF+2fPlygrsqO+XSpUuUIUMGwjPni7z44ov00Ucf+XIJp2UEGAELBJjAWgDDwYyAPwgktOsO8oRvSKxQtlsLI1369Oz9MvV55S32P+tPB/I1UYPAssXzqdfjHalUqVJC6wkXV3bJ4sWLhYbXn/yeeOIJ+uyzzyipZu7AwggwAv4jwATWf+z4SkbAFAH4fcUUvid5/vnnCX4i7ZLff/+dqlevTk2at6ERn42zK1vOhxGIaAR+nPwtvd73WWGf/sYbb9jWloEDBwZkx4qtqPGxG4yZGNsayRkxAmGOABPYMO8grl7kIYBpxTp16hBIpSeBv1Ds0mSHQKv7u2Z/u2TVRsqUOYsdWXIejEDkI+Aiatu8Ae3asVV44kiVKpUtbapfvz4tWbIkoLywycWsWbMIvyyMACPgOwJMYH3HjK9gBBJEAI7ssVjrxIkTlmnhYglTkTVq1LBM403E6dOnKZvmQqhN+0fpvSGeNb/e5MdpGIFoQmDOrOnU++nH6KeffqKWLVsG3DS4poP96+XLlwPOC/nMmDGDateuHXBenAEjEGsIMIGNtR7n9jqGADQ0jRo1IngGsJLMmTPTqlWrAtLCSH+Uo8dNoQaNHrEqisMZgZhE4KLmzqxCiVzUu3dvW8x24GmkWrVqAWNZuHBheu6556hr166UNm3agPPjDBiBWEOACWys9Ti311EERo0aJV5SngrFrjwwN8iaNaunZJZxX3zxBfXq1YtmL1xNxUuWtkzHEYxArCJwf5n8VL9eXWF3GigGQ4cOFa7q/MkH28zCvRfI9EMPPUSJEyf2Jxu+hhFgBDQEmMDybcAIBBmBp556ir766iuPpVSqVEnY1Pljozd48GB67bXXaPnaLZQrdx6P5XAkIxCLCNSvXo6KFilECxYsCLj5TZo0ERuE+JIRPCB06dJFENeSJUv6cimnZQQYAQsEmMBaAMPBjIBdCGBRV8OGDQn+KD0Jdg6aOXOmpySmcUxgTWHhQEbAjQAIbJHCBWnhwoXuMH8Obt++TTD7OXv2rFeX58uXj+De7vHHHxd2s15dxIkYAUbAKwSYwHoFEydiBAJD4OTJk4Sde/bs2WOaEfZyHz9+PLVv39403lMgE1hP6HAcI0BkF4HduHEjlStXLkFIsSsfzASwsUiSJEkSTM8JGAFGwHcEmMD6jhlfwQj4hcD27duFr1Z4DVAl0JXITGBVNPmYEYiPgF0EFhsQPPvss/EL0EKwVTQ+QEFcsSMfCyPACAQXASawwcWXc2cEdAhgsRYWcVy5ckWEY4vLuXPnUiB2cUxgdRDzCSMQDwG7CCwI6g8//KDLP2fOnNSzZ0968skneP6k7AAAMg1JREFU/V6IqcuQTxgBRsArBJjAegUTJ2IE7ENg+vTp1KZNGypbtqzYUhYvwECECWwg6PG1sYCAXQQ2V65cYkMEYFa5cmWhbcWzzNvCxsJdxG0MNwSYwIZbj3B9YgIBOC+HJjZNmjQBt5cJrH8Qnj51km7dvkWZMmUJip3inl07KKfmFeKee1L4V8H/X3XjxnU6fuwYZc2WjZIlSx5QXrF6sR0EdteuXWKmpHXr1oK4wqadhRFgBEKHABPY0GHPJTMCtiDABNY7GFf9tpR+W7aYtm3ZRFu1PxBYCBbZFChUhB5q0pLad+qqEcUc3mX4/1TXrl2lGVOn0JJFc+nggX0UF5eUUqdOTevX/k7VatShCT/MonWrV9JHQ9/RVq+foevXr5HrtotcLhel0NwrpUqVmtKkTUc5c+XW/vJQnjz56IEHm4o45N2w5r105PBBgg/RjJkyU4aMmcQ1uP7WrVt0S9soA0Q8LkmcuCZNmnSUNl067eMorfht1a4LFShY2Kc2RVtiOwjswYMHxb0S6IxJtGHL7WEEQoUAE9hQIc/lMgI2IcAE1jOQIKrvvNmXfv3lJ88Jtdi0GpEc8N6H1KyVd94g/t34Fz37ZBc6dHC/ad7Qvv67+4SWpjPN+9V7F2kNGz9CX3w9hfbs3kkP1LrXNG9vA6tUq0UTp/7qbfKoTGcHgY1KYLhRjEAEI8AENoI7j6vOCAABJrDW98H0qZPpg4Gv0n//6f12JomLE5pO7Gd/4vjReBkM/ugLat2uc7xwNWDF0oX0dPcOQqOqhhuPN+08TvPm/Ez9+/ZOMK28tlLVGjR52lxx+ulHg2jhvNl05NABunjxgtC6ynTe/DZt0ZY+GvW1N0mjNg0T2KjtWm5YDCPABDaGO5+bHh0IMIE178dfZvxIfZ7t4Y6EqUDXx5+h5q3aUeGixbWFN8lEHKbnf1+5nN59qy9dunhRhIHgzpz3GxUvYb417z9//UGd2z5MVzQCDMmaNTt1f+pZYYZwVfMw0bZ5Q/pPMxeArPl7N2XOkpVgDnDr5i1KmiwprVm1grp1aiHi23fuRs1atqejRw65zRoaNm5CufPkFfHGfygTZgg9urSivzesF9HrNu6lFClS0qVLF8XfOY2w4zh58nuoXPmKhPbEsjCBjeXe57ZHKwJMYKO1Z7ldMYMAE9j4Xb1v725q1riGm5CWLluBPhg2kkqWtnZCv+mfDYJUSuIJM4Lhn46Jl/n58+fo4fpVBOFEZI6cuWnStDmUN18Bd9p5c2bSKy88RVWr16Yvv9G7XUKi2TOn0Qu9uon0L77yJj3z/Cvua7096NG5FS1femdr1N/WbxX18PbaWEvHBDbWepzbGwsIMIGNhV7mNkY1Akxg9d0L7WTrJvVpy7//iIhSZcrTtFmL3RpXfWr92eZNf1PzB2uJBVZYjLVi3eZ4i7pAPEFAIdlz5KIp0+dTnrz59BlpZ1hkhYVXZjJpwlga8NqLIur1AR9Q9yefM0vmMezFZ7rTrJ+nijRzFq+losVLekwfy5FMYGO597nt0YoAE9ho7VluV8wgwARW39Uzf/qeXur9hAhMmSoV/TJ/FeUvUEifyMMZpvZ/W7ZIpOjZ+2V6qd8Ad2p4MnisfVP3+biJ06lW3Ybuc28PRo8cTh8OHiiSvzv4E+rQpbu3l7rTYWHahHGjxfnkn+ZRpSrV3XF8oEeACaweDz5jBKIBASaw0dCL3IaYRoAJrL77+7/yHP0wabwI9IccLl08n554tLW4XrrBEifavzZN69Nff64Tp3C79enob2WUT78fD3uPRn08RFzz4SdfUfPWHXy6HolHjhhMn3z4vrgOHgvguYDFHAEmsOa4cCgjEMkIMIGN5N7jujMCGgJMYPW3QcOaFWjvnl0icNWf2ylbdt92OsPGASULZBYmANDcLlr5t8gLxBUEFpJa24BiwYoNYvGWCPDx39D336SvPv9YXPXZmEnU6KG7Wl1vs5r47Rga+HofkXzQ8M+pTfsu3l4ac+mYwMZcl3ODYwABJrAx0MncxOhGgAns3f49dfIEVSl/x1wAngF+/2vn3UgfjpAH8sIqfvhxhS2rSjp793mNer/0ug856pO+N6AfjR/7uQj01wwBfm2f79lV5OGvHa2+VtF7xgQ2evuWWxa7CDCBjd2+55ZHCQJMYO925PZtm4WHAIQE4sAfC7mwSQFEusFq2qiGe2EYNgZA/v7KB2+/RuO+GiUu/2bSDKpZp4HPWan2uPBiAG8GLOYIMIE1x4VDGYFIRoAJbCT3HtedEdAQYAJ79zaAj9RyxXLQ7du3KVfuvLR87ea7kT4ctW3WgDb8sVZcsWzNZuGT9b7S+YRv18SJE9Pf244QFoj5K8OHvE1ffPqhuPyr8T9SvYYP+pwVfNG2eqSuuO7R7k/TW+8O8zmPWLmACWys9DS3M5YQYAIbS73NbY1KBJjA6ru1cd37adeObSJw/aZ9lCFjJn0C7QyO/kFyzeJu3bxJlTUTAviDTZYsuTAhgEusYnnTi3wKFioi7F/jZepDwOefDqOPhrwjrhg1ZiI1fqiZD1ffSbpt67/0SIOq4qRdp670/tCRPucRKxcwgY2VnuZ2xhICTGBjqbe5rVGJABNYfbe+/PyT9PO0KSLQ6AYLgTu3bxW+XuOSxtE7gz7WdsFqp8vgpx8nUb8XnxZhJUqVpVkLVonjqhUK08kTxyl9+gz0x+YDumuMJxcunKcb169TxkyZjVHiHOYDMCOAjPhsHDVp3kYc+/IPmzU0qFFeXAIvBvBmwGKOABNYc1w4lBGIZASYwEZy73HdGQENASaw+ttg0fxf6enu7UUgto+d+stiKqttpypFjYc5wPCRY90EEprbdto2sOfO/SeSD/vkS2rRuqM47tqhGa1csUQcW2lNb926pS3O+oxGjRiibR17jX6cuZCwC5hRvhnzGb0/8FUR7C+BPXHiGFWrUETkARdacKXFYo4AE1hzXDiUEYhkBJjARnLvcd0ZAQ0BJrDxbwOszscqfQi2eB07YRoVLFxUnMNEoE7VMu6tYJPExdGnX3wrXGO9rG2AAC0rBNrXmfN+I5BcyMTxX9HA/i+J48xZsootYstVuE+cw8QAi77efuNl+nvDehGGf1Y+XuEDFr5gIaPHfU8NGj0sjn35d/HCBSpf/I6LsEpVa9DkaXN9uTym0jKBjanu5sbGCAJMYGOko7mZ0YsAE9j4fXv2zGmCLezpUydFZIqUKTVzgRFubSrsRzu3foj+02xhpcBVFogoJEvWbDR+ykwqVryUjCZoV1s+XIew3SwEW81WqVaTUqVOTevX/k5nTp9yp8VB3fqN6LOxk4QdLfL9feUy2rp5o1anU7R8yQLasX2LSJ8iRQpKlz6jlv9NUUaevPnpi3FTEvQxe+3aVSpVMIvIo2TpctqOYyvFMf+LjwAT2PiYcAgjEOkIMIGN9B7k+sc8AkxgzW+BlcsX07NPdSFoKqXkzJWHKlSsRIWLFqdl2o5bWMlvFGhsv53yC+XJl98YJexnn+jahg4d2B8vTgakS5ee3nxnqG53rWUaYX28SyuZJMHfISNGU6u2nTymO3H8KFW7945WGRpcaHJZzBFgAmuOC4cyApGMABPYSO49rjsjoCHABNb6Nji4fx+98Ew3U6JqdVW9Bo3p87GTKS5pUtMkWKD11qsv0MJ5s+nq1SsiDcwMChcpTvdXrkbPvviq0OCqF6t2t2o4jmHCEJckTvtNIn7zFyxMo7/5PkENLLS6sNeFycKwj7+kZq3u2P0a8+dzIiawfBcwAtGHABPY6OtTblGMIcAE1nOH37xxg0aOGEyzfp5KB/bvjZc4TZq0BM0sNkGQUqtuQ8IWr5jetxLY0u7YsZXO//efWKgFUwIrgcsukNjjx44I113wUZsrdx5xnDRpMqvLvAqHhhlb27JYI8AE1hobjmEEIhUBJrCR2nNcb0bg/wgwgfX+VoBvV5gNgMjCByyIa9ly91JizVvBgNdepCkTx7kzg6kBNhkw8xXrTsQHEYEAE9iI6CauJCPgEwJMYH2CixMzAuGHABNY+/oEmwtgkwEpsIf9euJ0KqBN67NELgJMYCO377jmjIAVAkxgrZDhcEYgQhBgAmtvR038dgy9+9YrBBMBSOWqNWnStDn2FsK5OYoAE1hH4ebCGAFHEGAC6wjMXAgjEDwEmMDaj+3qVcvpuSe7CDdbWJg1Zfp8+wvhHB1DgAmsY1BzQYyAYwgwgXUMai6IEQgOAkxgg4PrOc1H7JJFc6lWnYaUKfMdf6vBKYlzDTYCTGCDjTDnzwg4jwATWOcx5xIZAVsRYAJrK5ycWRQiwAQ2CjuVmxTzCDCBjflbgAGIdASYwEZ6D3L9g40AE9hgI8z5MwLOI8AE1nnMuURGwFYEhgwZQq+++iotW7OZcufJa2venBkjEA0I1KtWlooXK0Lz57MtczT0J7eBEQACTGD5PmAEIhyBsWPH0hNPPEE/z10hHOpHeHO4+oyA7QhUKJ6LHnnkYZo8ebLteXOGjAAjEBoEmMCGBnculRGwDYEFCxZQo0aNaPjIsdSsZTvb8uWMGIFoQODEiWNUrUIR6tevn9h2ORraxG1gBBgB1sDyPcAIRDwCly9fpixZslDteo1o5JcTIr493ABGwE4EJn/3Nb316gu0ePFiqlevnp1Zc16MACMQQgRYAxtC8LloRsAuBDp37kzf//ADzVm8hgoVLmZXtpwPIxDRCNy4cYMa17mPbt+6QXv27KG4uLiIbg9XnhFgBO4iwAT2LhZ8xAhELAK7d++mEiVKajaw5cWuUcmSJY/YtnDFGQG7EBj87hs0dvQn9M0331DXrl3typbzYQQYgTBAgAlsGHQCV4ERsAOBkSNHUu/evanBAw/TR599TSlTprIjW86DEYg8BFwu+mLUcBo++G1q2bIlTZs2jRIlShR57eAaMwKMgCUCTGAtoeEIRiDyEHj99ddp0KBBwozg1Tffozr1G/GLO/K6kWscAAI7tm+hoe+9ScuWLBA2rzNnzqTUqVMHkCNfyggwAuGIABPYcOwVrhMjEAACkyZNoj59+tCJEycoR87cVL1mXcqZKzelTMUv8QBg5UvDGIHr16/TSc3bwJ/r19CWf/+hZMmS0QsvvEDvv/8+272Gcb9x1RiBQBBgAhsIenwtIxCmCFy4cIG++uormj59Bq1fv46wmIWFEYhmBGAiULRoUWratCn17NmTChQoEM3N5bYxAjGPABPYmL8FGIBoR+D27dt08uRJunjxYrQ3ldsXowhA45otWzaheY1RCLjZjEDMIcAENua6nBvMCDACjAAjwAgwAoxAZCPABDay+49rzwgwAowAI8AIMAKMQMwhwAQ25rqcG8wIMAKMACPACDACjEBkI8AENrL7j2vPCDACjAAjwAgwAoxAzCHABDbmupwbzAgwAowAI8AIMAKMQGQjwAQ2svuPa88IMAKMACPACDACjEDMIcAENua6nBvMCDACjAAjwAgwAoxAZCPABDay+49rzwgwAowAI8AIMAKMQMwhwAQ25rqcG8wIMAKMACPACDACjEBkI8AENrL7j2vPCDACjAAjwAgwAoxAzCHABDbmupwbzAgwAowAI8AIMAKMQGQjwAQ2svuPa88IMAKMACPACDACjEDMIcAENua6nBvMCDACjAAjwAgwAoxAZCPABDay+49rzwgwAowAI8AIMAKMQMwhwAQ25rqcG8wIMAKMACPACDACjEBkI8AENrL7j2vPCDACjAAjwAgwAoxAzCHABDbmupwbzAgwAowAI8AIMAKMQGQjwAQ2svuPa88IMAKMACPACDACjEDMIcAENua6nBvMCDACjAAjwAgwAoxAZCPABDay+49rzwgwAowAI8AIMAKMQMwhwATWpMs3bdpEzzzzDC1YsIDOnDlDY8eOFX+tWrWiESNGmFxxN+jSpUvUpEkTGjNmDBUqVOhuRABH58+fp6VLl9LevXvp6NGjlC1bNipRogQ1aNCAkiZNSuvXrxf1bNSoUQCleH/p1atX6ccff6QvvvhClLt9+3bvLw4g5bVr12jJkiUCh0OHDlGSJEkod+7cAgdgfePGDRo1ahS9+OKLAZRy59KffvqJnnvuOapXrx5NnDjRq/yOHDki+h33S8eOHWnIkCFeXedtIl/zx/1y5coV0+yzZMlC+IsluXXrFjVs2JD27NlDkyZNourVq4e0+YcPH6Zz585Z1iFv3ryUOnVqy/hIjAi3PgCGeEbwrKiCcbVIkSJqkMdjjNEYk1RJmTIl5c+fXw0K+Pj27ds0d+5cMfbi/XT27FlKlSqVz/naNYbfvHmTBg8eTHFxcfTqq6+a1sOO95c/Y39C4x8qe/LkSV2dc+bMSenTp9eFeTrZvXs3oW6qYFxt166drRxAzZ+PFQRcLG4EtIfRNXDgQJc28Li0F5zrrbfecmkkyaXBJf569+7tTuvpANdmzJjRpZFYT8kSjDt+/LirZ8+eLu0lJsovVaqU6+GHH3ZVrlxZhGXOnNnVq1cvV8mSJV0aaUswPzsSrFixwpUhQwY3JhpxtCNbj3loLxiXNji6MmXKJMpNnjy5q2rVqi6NsLvy5MnjxqZly5auAgUKeMzL28jWrVuLfBMlSuTSBuAELzPeKy+//HKC1/iSwNf8tRed6/HHH3cVK1bM3VfyPq5Vq5brl19+8aX4qEi7efNmNxZ2948/AH3zzTfiWZb9In8LFizoat68uUt7OfqTbVhfE259ALB27drleuihh3TjGp77LVu2eI1ljx493PcW+hHj0NChQ72+3puEBw4ccOXLl09XzsWLF725VJfGrjH8n3/+cZUvX96lfQi6NCKtKwMndry//B37vRn/NAWDq0KFCjo8NeIZrx1WARpB1vEDjcS7mjVr5tq6davgD3ZwAKuyOfwOAsRA3EWgb9++grzOmTNHBJ4+fdp16tQpV9q0acVN7i2BxcULFy50JUuWzKVpcu8W4MPR2rVrXZp2UZRbs2ZN119//aW7GqTqzTffdOGhwYDZtWtXXXywTrQvd9d///0niDTKDTaBPXjwoOu+++4TbcyaNatr/vz5LtRBlcWLF7sKFy4s0oDs2yErV64UA/Pbb7/tVXa4V06cOOHStCGiHnYTJH/zx0fZvffeK+qE/vrhhx+8ao83iYAR+ifcxFO98MFXt25dn8hJsNv34YcfuvsHz7qm0Ql2kSHNPxz7AICAsOIZkX/dunXzCidtVsyFj2r1Ok3T7NW1viRCnhgHXnvtNXdZ/hBYO8bwffv2uaBAAfG/fPlyvGbY8f6yY+z3Zvxr27atG08orLz9cAQfkH2eOHFi8SGkAhEoB1Dz4mNzBJjA/h+XyZMni5vxs88+i4dUuXLlRJwvBBaZvPHGG+I6XzWxO3bscGtdH3jggXiETa3gV199JcrAl5+TAo0oHt5gElh81WvTqKIc/GqmCpZNvHDhgqt48eIiLb7aQyWaaYeog90EVrbHn/zxcSMHWrx47BC8TIsWLepaunSpHdnZlke41stTAzWzGHf/4KOUJXQIyFkePC9QQGhmAQlW5vXXX3f3H67TTKsSvCaQBPgIlc+zPwRWlu3vGA7CCs1lrly5XNevX5fZuX/teH/ZOfYnNP6NHDnSjSdwxQdWQqKZFrqVFbhGM+szvcRfDmCaGQfGQ4AJrAbJtm3bhOYV2jPNJi0eSPfff7+4wX0lsCBSIF74Osd0gzei2XG6NY733HOPyxvCgS9IaG6cFExp48ENJoHV7EhFGZjO0+ySE2zeunXrRHpMtYVK5MdOsAisP/k/+eSTAhf0F7TEdsjnn38u8gw3Ahuu9fKEObRV6Bv8ffDBB56SclyQEcAHIoir7I+XXnrJY4n4cIZJlWYz674GpiHBlBkzZrjLCoTA+juGd+/eXZQPcmYUu95fdo79CY1/8oNAmuqlSJEiwXHy/fffFxjIGVCYdpiJPxzALB8OM0eACayGi7zBraaMYHOKAU0lsLCxwV9CAttUXIuH3huZOnWqSI9rYMPojfz++++u0qVLe5PUpzSYfrES2Aqjjt4QWLOvdKt8ZfiiRYvcODz44IMyOMFfEPk///wzwXTeJvBmOhc4yXtBTtcnRGAx0Hsr/uSv5i3vb/SXFYFFfWQbcK16rOaF42XLlrlf2N4QWG/aqqbxNP3q6Z70tl7Iw1MZxvZ6e+7PfY68VQI7aNAgb4szTedLHTxhKTP35r4wlukNtp76wJ/8ZH29aZNMa/YLAvvUU0+57e3TpEljat8pr/3444/FONW/f3/3eOUNgfX0fMm8jb8SF9iv41nGnycCK9Mb85Hnvozh8hooBzDNjilzM6WMHe8vu8f+hMY/SWDVPvQ0EwITjOzZs7vwXpI2tFYEFrj5ygEk1vybMAIxT2AxFYBFWxgMQATNRBLY559/XkwpwWAf9pjaakXXI4884tq5c6fZZSIMNpvIG19q3mgG8VDIwUlbCW+ZrzFi/PjxIgimBE2bNtX9qQPq33//rYszPqh4mSIPTA9hkMKDCZsr40KmhAY/pNdW8buw8AwDHqbmgBW03d4IjOklDr4sOML0liRDn3zyia6t6qIK2LaqOM2aNctdLdR99OjRYoGC1cCEFxBsF0GYoSnHiw64aatYRb3NCKy2etileY4QC/xwP2DxHfIwe+H7k7+7AYYDTwP48uXLXdB2YJYANlvaCn0X7m/Yt2GQfuGFF3RkFhpCVdtUrVo1gSMWG6riTVvx7IEAgDQAR5DrRx99VODZuHFjdz+uWrVKLNjTVve6oI3XVoe7OnTooPtQ8aZef/zxh/goxEyLfCZwb6n3AY7Rj6ptL/CTaVq0aCHsEGVbA73PkU+gBNaXOniDJer022+/uTp37iz6AjbmU6ZMESY6mCqdPn26wOCjjz4SiwSxiAcCUyncD7g/atSo4Vq9erUIV/+Z9QHiYdvpT364FlpQPG9YsIgxC6YtUDbgmYY9NP42btyIpAkK7sU+ffq4BgwY4B5/rLTiGGcwPtSuXds1c+ZMd3p5bxkLQz8jbzz3eN7KlCnjeuKJJzyaKcAuF88nysG9D4UBFqvKsdFIYH25FxIaw431x7m0v4Vpm5kE+v5CnnaM/WrdPI1/SCcJLN7Pcr0LFmAZsZV54j4H/vh494bA+soBZDn8mzACMU9g5QIKDA5WX6ySwGJlOl6ecvCQvyCyVlo/TCEgb6Q1s69VuwhERiUHx44dU6O9OoY9HcinrNsrr7yiM4tAG7/99lsRj5eMaqKguQgTRBsmCSDzeLAlucdLShJDVMTT4AdCj4EWi6+wIA754MWAOmF6xrggzdgwlKMuigCp8kdgDoKveZBLlN2mTRt3Nhis8GKSOIHsQtT0iMOLwyj4ApeDLBb+ob3Tpk1zpUuXzp2fkcDiQwFteuedd4QGE/Gy7Pbt2+uK8Cd/XQaGE6sBHCuIZR3wi/7PkSOHIC1yagzhn376qTtHHMuXGOJAJIEjiKgUb9r6/fffi3tBll+pUiWX5uJKVx+slsYLHLihD2fPni2wg/cJXAdCK4lmQvVSX6y4VpIMvPBhRy6fOxAgzS2dS9XkYTU1PDcgDeog4wK9zyVegRBYX+rgLZZyFkH2jbSVlOf4KMVHmzwHaQVhxLl81nCsuZDSffha9QHuBX/yA354xqWnDdyDGG9//fVXd3/KOlrZKMo+kL+SwOJjCmMVrse1eCaNAlKPeNwTCRFYfBDjQx7vEhAazBbI+x0fimbKE4zleLdgLMVHBMyo8LzJNuFXJVm+3Atoi6cx3NhWnANbfNiiXDPzATveX3aN/Wr9rcY/mUYSWIwF6riM8dAoUCxgrQXebRBvCKwvHMBYHp97RiDmCSzcUuGB9DTASQKLdJ06dRIvOBBWrMBEGP5ABq0EX3NIg7I8CRYMyPxAeuWL0tM1ZnHqohAMUkb5+uuvRTnQxkrBSxQvb7RVFfXhh1ZGiqfBDwQDL3uszpUCoixX6FepUkUGm/5iakrigEFfJc7GC6ClhrbE7E9+ANSpU0fkpxJY5APzAPnilAQMLypocTVfvuIaMwLbr18/EYd7QRW8OGW9VQILrRfCoZFWBR4qZPp58+a5o3zN332hxYHah6oJAbxJ4OUr64BffGRhwEV/VaxYUcRBU6QK+lVeYzQh8Latmr9kUQ6eG5kXtDr4uHnsscfExwb6QpIehElRy5dEFHFquLFeaCueWVmWeh2uffbZZ91xxoU7eGnhPkC/qBLofS7zCoTA+lIHb7EEVlJrJPGCRv3LL78U2ka88HGP4KNDxuOZxuIdkBhph4w4dRbJqg/wvPmTH/CT/QbXY6rAHAzl4yMH4xxcZXkjksAiLRbzyPah7UYB0QeZx/3hicBu2LBBKAbwjlHHRCgTJAHCDBXwkYLnFB8DGP/UWSu8E4C1rJdKYH25F1COpzFc1kP9xYedLNdsoZod7y+7x37U32r8k21TCSzaID9msX7F+O6R5hu4BiL7z+w9IfPHr7ccQL2GjxNGIOYJLKZz8FDiRrQSSWDx9asKBhP4I5UPNabHzESujodm1JPIRUjIL1B3UPJlhYfQqFlGnY2EW76MsEBAlTVr1ohpcQyw+/fvd0dZDX6SPGNaDenVv7Jly7qxMlssJzPHlJ/EFFoQTwLMoUWXBvi4Di8KhGFqEYLpX4QbCSzi8IJDnNTAIgwitYzGgQkaP6mZMb4UcT/IgUolsNDeoQzN8bgOD5AohONP+vH1J/87Nbb+72kAR//IOkAzrwowQRw0y6p4Ioq+tBV5wt4QZUDTZCSOiJfTpUbbUDnVJz88kNZTvRCPDxbZVmCvCrT8+IBD/LvvvqtGufBxAY20tvGAO9yO+1xm5i+B9bUO/mKJWQYzkSQR45uqoQShk8+BUYvlqQ/8yQ/aSfQZpuJVUQmlN6Zb8lqVwOL5lvcEZt5UUx9oRFGuvI/U8mSYzLNLly4irZmrQ9VmFN4MpEhiDjMOo8DUQt7HksD6ei8gT6sx3FiePNc2r3GXi/YaxY73l91jP+roafxDvEpgcY6PZYnvhAkTEOQWmDrhY0kql7wlsN5yAHdBfOAVAjFPYOUUuSftqCSwsIE1CqbI5c2ODQzMRL7U8RLE4G4l6tcn8tR2CbFKmmA4tKWyXtC4SoHzaYRru0vJIKFxlAO1kZQhER5W+cDKi6wGPziHRv7ID/ag6h+mp+U5nD1bCabCZN3x64nsyjzUaU6jtsQfAgsbWZRtJLDS7ACEy0zk9KsksOhveY/JtstfFQ+5YM/X/M3qYAzzNIBDSy2xhg2sKnJgR7xKUKyIoq9tRVnyRW2llYc7HRBIuZgOHywgK9LEAR8qUqzqJePxK815jCQDcVLrjg9NVfOCTQW0XfiQxC123OcyM38JrK918AVL+L+W94U6OyDrjN+nn35apJE2sGqcNBnCc2kUqz7wJz85pS2fH1mWqi30xYZeJbDICx+9EgeQTSmw0cZzLO9LTwRWbraC/jIKSLF03SWnpREmP5LVDzR5rdQCol6SwPp6LyAvqzFclmP8lWWgXOBrFDveX3aP/aijp/EP8XKcgwkBBKYa8h7F4mj5zoYyB23XdnsU6fDPWwLrLQdwZ8wHXiEQ0wQWBFEOTvhKthJPBFbNA641zAQvP1kOFitYCQYu1fYT9piBCL4WUS60B5KAYloMg75KSDDFJesnbQoTKtdq8MOLBHlZYZFQvogHDnJqH3nhBZ+QQNMj2/Dzzz/rkvtDYKGFQ35GAguzAYRbeX0wElg5rYZ+lQOhrnKGE1/zN1xueuppAMdUpcTNSGBVdz2Y4pViRRR9bSvyg1kFyrcisEgD3PCSgUkDplVheiE17r4SWEzJojwzAqtOm0uygucB10Djpood97nMz18C608dvMUS45S8L6wIrJxiNyOw0t2b0ewCbbbqA3/yk07oUZ4qal96O6bheiOBVbWKcKcIAcEBNiohtSKwcIovcTS755Cf3KhFzrqpJA629UYxI7D+3AtWY7ixPHmumjyZOfu34/1l99iPunsa/xBvJLAIU80DYRoGwRoYfGzA/EmKtwTWWw4g8+Vf7xCIaQKLr1c5uED7YiWeCCxeCFJ7iakdM5HbkmLgVjU7ZmlBjGSdhg8fbpbE6zDYrcm8sFED2oupV+OUIFaiy3RYOOONWA1+cprSW7dhVmVJ+0vUCwvREhIs4pFtgF2nKoEQWCxEUUXan1mZgxgJLFY/y3qpJhhqnuqxr/mr11odexrAVQJr/GDylcD62lbUNyECCw2XXDAHEx54LoBA+wVc/SWw0muHyOz///AsywVBsJuGwLYa039Gses+R77+Elhf6+ALlr4QWKM5EtrkDYE19oEksL7kB7Mc6bcVi8Eg+NiCJwncH5gO9kWMBBbXSht65IepeuSJcVS1WbUisNLUANcazWBkvWQ/YjEXBB8MSI8/s01wzAiszMOXcddqDJf1Mv6qC5ysFi3b8f6yc+xHGzyNf4g3I7BYZCf7ANpTaU6C8UAVbwmsLxxAzZ+PPSMQ0wQW0EhNDkiqlXgisFihLG90M7cxyBMaCqQxavPMysP0hMwPX4HeCrSOqItR5AOGgQVT65gaMZoJSM0ZyjUzk0Ce0NKqhNpq8JODHKbYrbTNIJsJkTk5qKBO2FIXCz08SaAE1mirJzWwRgIrX4z4aFG/xGXdJIGVDtBhhyv70zj4yWvQb9LFl6/5yzw8/XoawO0ksL62FXVOiMBiYQrwg2svVSSBHTZsmDvYSjPsTqAdSO2fkTzJNOp9hAVl+FAx2kcjrV33OfLylcDCvh2mH77WwRcsI4XAAj+5EBF9izETLg5hYgK78oTGDVyvihmBVRdnYhzFIh9gr4oVgVVtzOEizkwk+QTJgeC+k2OGmQZbJbDSzt/XewHlWI3hiDMTfCzKekE5YiZ2vL/sHPtRR0/jH+JledKEAGEQuYER2oxxHWYdGC9Vke/XhN7tvnAANX8+9oxAzBNYuYirQIEClkh5IrByqgor7I2LpWSGyBsPgdTqyHCzX2hJsPBKDhSwiUxIMPWLxQxmtqLqIgEM8Gb++6B5ku5vQOiN5BLTOvXq1RMPuqyL1eA3duxYd91hq4i8VUHe2LnGOFioaeQx3PNIHLCoypOoxMOogcWLA/mYtV3a0KlECOVYEVjpIQD5GUkvrpMEVv0QAAlCetwj6opipIfADlTaCvqT/51crP+jHySOxgE4UAILDZgqvrQV13kisJj6lfWW03iyLElg1WlclcAa6yWvS4jA4hmSH7UoA/bLqqZN5mPnfa4S2IRMb6Cdk14hfKmDr1hGCoHFrBIWpcImFd4GQCThCUNq6mV/efsLAisXVMprMIapmkUQWOOCQygQ5L06btw4eakY/6BZRRy0tmYfvXLWRX4oIY20wcS1RhKuEljYNUN8uRdk5azGcBlv/FUXcRkXfMq0dr2/7Br7US9P4x/iJYE1vj/Vdyf6z+jrGtdKAot3tifxhQN4yofj9AjEPIEF0cDNKe2P9PDcOZMEFkTDKHBMj+vh589KpF0rFil4I3j5SkKJgQwPmJWAvGLFr9XUP8innBZFPY1eBmS+6n7eeNigTca1ePFBMwDSqQ6+MENAfnLaS+aDlz00IIjDHxbAwI4M5AIDO+xxzbwByOvV3+3bt4vpW+QDjYrVoIlrPBFYucMK6iXbgGlGSWyRv9GsQi4Kg5cCVTBNLkkQ4jZv3uyOBinHlzjyU327YuoQYfjDin7gcOTIEYExpk2Rn3S07k/+7gpYHMhtGVG+8eNEJTZGW0f1hYVFPVJU0xs5hQ/XSXC95UtbkR9eCqgX7gujgOxL3NT+wVSxNNuBz1ksCFyqORX3VC/kjT6X+XnyySynspEWLz8zsfM+V6eZUbaVgOiCVGMLUIgvdfAVS3VmyWpxKrTiwMjMfhnupRBnHDM99YE/+ckPPiy6BGmVtv5WGCYUDiJi1ufQ2Mt7x0yTChMtGY+xSJWRI0e644wfyvCQgLENH34YI6VI216JoaoIkN5BECc/iH25F2QZVmO4jDf+YgyQz5187o1pcG7H+8uusR/18TT+IR7jMbBUvYwgHPeS9HKBdhtnLpEGm2bgWryDPYkZB0CfQlECTyxmNsWe8uO4OwjEPIHFw4YbEH9W7lbk1yBuQkyj40WJr2LpvNvoXku9udRV3iBy3gqIjCRDsPGCCxbY5WCQw8ONL24s+AHRNTP0V8uRDygGSasBXiVfEg9pW4ZzaDZUgTYT4XiwjQ8+XI/IPIy/MIJXB2o1T7NjTJHJhU3IC9NBxoEENrxylSfSGImYnGJEHMg5XpSFCxcWph1ysRhMHjA1CzcuEGh0kB4fEMb2YXcqxOEP10E7jBeTHMwQjnsFdtXYtQgL5qDZkdcYf1X3OSjb1/xxjZXAPZT8+ke5xg8t1E/WR5oxyLzgrFzGGRcxwYMC4jBw416oW7eu0Db50lYM4PLZAonHfW0UdbMFlIOpONxDcpU2PiLwEQWtG8SqXoiTq4hRb9xHVoKPEtlumM5YiR33Oe5vVUOEjyyMMXhmkT/ICjT9eP6l5wW1Tr7UwRcs5cwScDBz5YR+llOscFsnp7KBFbS30s0ZnktVrPrA3/wwMyT7Sv5CQ4pxEaZHsH+3+rhX64VjfARhPIOG2+gBBrNrcnYBi7hUAXnEB6ssH2ZAeEdIgVZSjie4z+EBBvmBcEMBgpkZtU9xHd5FEkPki3S4F+RiLVkWZnywOxzEl3sB6T2N4Yg3E/m8JmRra8f7y46xP6HxDxpsacKBDU3UDwW0X/o0luYdKiZ4V8hnEv2h+klX01lxAOn6DNeauVhT8+BjcwRinsCC0EniYXS/JCHDDQiyKr+iMAiB3EGbhmuMN728Dr/y6xt+Vn0VaEHgHQF+5+SAJX9RBzx4Ce1qhTLxkOI6KxtMWS+UZ3wh4IUKTZwUfClKvGRdgANIlyogvNI9jEwHP7BSY6Cm9eYYL3QM4iAsIJV4OQEXlI388RIAMYWWykxAEuS0HNJDC4wBEvnhpQU3apimhjYP2kBZZ/yCpKpTu+hv7KiFPpDpcIw0kiTU1vzgQnMuzUrwkpOG/Oo17733ns6/JOruT/7GNiMPrG5W2yzLhVYBLzv1wwBxaAOmSrFjEwi3ei2m0lXSh5ew/MDBS23v3r3uKnjTVtjQGe8PPF9YIKMKZgykGzLUES9daI0lyQeBVr1OWNUL08JyVkPigDYaiYosu379+qaaRRkvfwO5z2H+IJ2myzol9IuPWqN4WwdvsYStrHpvo04gb9J1Ep4x4K7WFc8R2gONknwmZTw+oDBOWfUByLI/+QEHkAhjXWW56q+VSQnywAYMxg9M9As+aFXBR6oxDOMAxg+1LBxjPFK16Vi8i3P5DkE8Pp7hKQbtNxOMlVKTLfMHuUY9cA7MYPuqau+8uRe8HcPN6iRJMmYCEhK73l/+jP3ejH+YvVHHFmAKDbw6SwlFFe5t9b2C8UdVCsi+wS/uI6M/eCsOAHIt7x3cRyy+I5AIl2jAx7Ro0z+kvcxJm+4m7ea1xELTEpD2ciftpUfaA0zazUraF5hlekRoq3FJ+xol7cUqyvCY2EOkptUg7QVC2lc7aX4FSTMLII1cerjibpTmB5a0aQrSpo9JexHdjbA40uy7SBs8STOrEPXXtF0WKT0Hax8HpGmzSBswBVaos/bAer7Ii1hNgyswRT+gPdqgIzDRCJXHq7WBhzRNB2kfE6Rp6kRa9Ldmx0TaYi2P15pFalpr0rTqIgp5ahoT0l5GpJFr0l48ZpeIe0cb4Eh7kZGmPSGNHP+vvXNLbhUGgmhvzn/ehDfrdd3uyY1NbIPBkQA7h6pUCI9BHIRoaWaUh8dl4yv2R4112OFwDKVehv+jJc9n7r0+Ov97Wzh4dFb+aMgxy9+bq265s6Hb5/6sXBcDEyup/6m/FvQTR33t6lXPn154cMDcMixlObjELlftNZBHqGUhW+VL+5jnnx933Kve2N0tj8TKHcrN78EdWlnMy+54WbxWmzFVqHyeU/fz3XG+RrX7Dj+q98odDVkE350+ty7cnThjg8PK6p3I++GY4/o+zDit2olXv19D+6+2/UMba69PaQCL2KoL9mbIAwZrF+3tr4eA9SN0b00eeaxGMC9ZBE2LJeLG8bM6Ho9y4P0mFTSNWV4gj5pOivMW94sNCEAAAmsRcFiLDoeDHBYjewdGL2vPTHX8pwYnRk9mxx0B513IIRFyqIQcgnS3nw1XAnvQANfSfN4aAvb/M81okV2ucjyXnMAku6V+9bTT084Lbteq7H6Q3Wq/srfkZMeZ1QiEkyvkuWnlpI8S544fXGKGYyEAAQjslkDaa89HqghU5wQ8LGc8QJ79RY5llMOGHh7DxuUEMvLtBLoamHGs/3IDf+CMLTXAH8Bbt4iAHTzpuEWc/Vnu5LibXnWdO4BfDqyX4ynlyeHlidAHV+m76n9tK8dz/rhIGm7Hsf7Yxh8QgAAE3plAQr4c81m3EPd62rmEszjWWZ4ergYiPBWSHHtaYQbvfK97LLvjnWuAxLOCKOEMLFcCW2qAayk+fw0Be/OMnTEqZ5VXjJGz2xe7/dPrSmyTg+3lbOJVR15zKxl99byIl7uKqydunlfF+MUQKxCAAAR2RMBJQvIMHvI0X0q7fbskbMrTpcnJn7e7+LsRgXxvTqdTfev8TyQaWX1vM1trgPemt6z0CNgRXhGvEYK3CSIjh182J9ErL3XcVlst5/NZntKjkoQSI8YCAQhA4FMJZLQ1YVpJUk3yVhL7kmCb38+SbD+VyZr3ldHGJCp7NpI1L7vba+1BA+wWTuOCIWAbA8UcBCAAAQhAAAIQgEBfAgjYvnyxDgEIQAACEIAABCDQmAACtjFQzEEAAhCAAAQgAAEI9CWAgO3LF+sQgAAEIAABCEAAAo0JIGAbA8UcBCAAAQhAAAIQgEBfAgjYvnyxDgEIQAACEIAABCDQmAACtjFQzEEAAhCAAAQgAAEI9CWAgO3LF+sQgAAEIAABCEAAAo0JIGAbA8UcBCAAAQhAAAIQgEBfAgjYvnyxDgEIQAACEIAABCDQmAACtjFQzEEAAhCAAAQgAAEI9CWAgO3LF+sQgAAEIAABCEAAAo0J/AONmncx95nJwgAAAABJRU5ErkJggg==;imageBorder=default;" parent="1" vertex="1">
          <mxGeometry x="430" y="80" width="320" height="200" as="geometry" />
        </mxCell>
      </root>
    </mxGraphModel>
  </diagram>
</mxfile>
